<?xml version="1.0" encoding="utf-8"?>
<!-- Generator: Adobe Illustrator 16.0.0, SVG Export Plug-In . SVG Version: 6.00 Build 0)  -->
<!DOCTYPE svg PUBLIC "-//W3C//DTD SVG 1.0//EN" "http://www.w3.org/TR/2001/REC-SVG-20010904/DTD/svg10.dtd">
<svg version="1.0" id="Layer_1" xmlns="http://www.w3.org/2000/svg" xmlns:xlink="http://www.w3.org/1999/xlink" x="0px" y="0px"
	 width="480px" height="240px" viewBox="0 0 480 240" enable-background="new 0 0 480 240" xml:space="preserve">
<rect id="Testimonials_2_" fill="#1880B6" width="480" height="240"/>
<g>
	<g>
		<path fill="#8ED9EF" d="M276,112V60c0-2.211-1.793-4-4-4h-88c-2.211,0-4,1.789-4,4v52c0,2.211,1.789,4,4,4c0,0,30.918,0,33,0
			s3.582,1.582,3.582,1.582L244,141v-23c0-1.105,0.891-2,2-2h26C274.207,116,276,114.211,276,112z"/>
		<path fill="#8ED9EF" d="M276,164c-15.66,0-19.559,7.367-20,8.352V176h40v-3.648C295.559,171.367,291.66,164,276,164z"/>
	</g>
	<g>
		<g>
			<path fill="#324249" d="M280,112V60c0-4.422-3.578-8-8-8h-88c-4.422,0-8,3.578-8,8v52c0,4.422,3.578,8,8,8h33.172l27.414,27.414
				c0.383,0.382,0.891,0.586,1.414,0.586c0.258,0,0.516-0.047,0.766-0.152C247.512,147.54,248,146.809,248,146v-26h24
				C276.422,120,280,116.422,280,112z M246,116c-1.109,0-2,0.895-2,2v23l-23.418-23.418c0,0-1.5-1.582-3.582-1.582s-33,0-33,0
				c-2.211,0-4-1.789-4-4V60c0-2.211,1.789-4,4-4h88c2.207,0,4,1.789,4,4v52c0,2.211-1.793,4-4,4H246z"/>
			<path fill="#324249" d="M284.164,160.75c2.348-2.188,3.836-5.285,3.836-8.75v-8c0-4.418-3.578-8-8-8h-8c-4.418,0-8,3.578-8,8v8
				c0,3.465,1.488,6.562,3.836,8.75C255.684,163.094,252,170.328,252,172v4c0,2.211,1.789,4,4,4h40c2.211,0,4-1.789,4-4v-4
				C300,170.328,296.316,163.094,284.164,160.75z M268,144c0-2.211,1.793-3.999,4-3.999h8c2.211,0,4,1.792,4,3.999v8
				c0,4.418-3.582,7.999-8,7.999s-8-3.581-8-7.999V144z M296,176h-40v-3.648c0.441-0.984,4.34-8.352,20-8.352s19.559,7.367,20,8.352
				V176z"/>
		</g>
	</g>
	<g opacity="0.2">
		<path d="M198,76h24c1.109,0,2-0.895,2-2s-0.891-2-2-2h-24c-1.105,0-2,0.895-2,2S196.895,76,198,76z"/>
		<path d="M234,76h8c1.109,0,2-0.895,2-2s-0.891-2-2-2h-8c-1.105,0-2,0.895-2,2S232.895,76,234,76z"/>
		<path d="M216,86c0,1.105,0.891,2,2,2h40c1.105,0,2-0.895,2-2s-0.895-2-2-2h-40C216.891,84,216,84.895,216,86z"/>
		<path d="M226,96h-28c-1.109,0-2,0.895-2,2s0.891,2,2,2h28c1.105,0,2-0.895,2-2S227.105,96,226,96z"/>
		<path d="M258,96h-24c-1.109,0-2,0.895-2,2s0.891,2,2,2h24c1.105,0,2-0.895,2-2S259.105,96,258,96z"/>
		<path d="M198,88h8c1.105,0,2-0.895,2-2s-0.895-2-2-2h-8c-1.109,0-2,0.895-2,2S196.891,88,198,88z"/>
	</g>
	<path fill="#F2F0DA" d="M268,144v8c0,4.418,3.582,7.999,8,7.999s8-3.581,8-7.999v-8c0-2.207-1.789-3.999-4-3.999h-8
		C269.793,140.001,268,141.789,268,144z"/>
</g>
</svg>
