<svg viewBox="0 0 24 24" xmlns="http://www.w3.org/2000/svg"><path d="m6.2959 21.41309h11.4082c.68945 0 1.25-.56055 1.25-1.25v-16.32618c0-.68945-.56055-1.25-1.25-1.25h-11.4082c-.68945 0-1.25.56055-1.25 1.25v16.32617c0 .68945.56055 1.25 1.25 1.25zm11.1582-10.49512h-10.9082v-.96277l2.93848-2.60266 2.61279 2.31689c.24316.21631.59863.25146.87695.08594l2.16357-1.26855 2.31641 1.4422zm-10.9082 8.99512v-7.49512h10.9082v7.49512zm10.9082-15.82618v4.07489l-1.9082-1.18817c-.23633-.14697-.53516-.15137-.77588-.01025l-2.08496 1.22266-2.70264-2.39697c-.28418-.25195-.71143-.25146-.99463-.00049l-2.44189 2.16296v-3.86462h10.9082z"/><path d="m19.92432 5.84619h1.5v12.30762h-1.5z"/><path d="m2.57568 5.84619h1.5v12.30762h-1.5z"/><path d="m8.77246 13.98926h6.45508v1.5h-6.45508z"/><path d="m8.77246 16.68799h6.45508v1.5h-6.45508z"/></svg>