<?xml version="1.0" encoding="utf-8"?>
<!-- Generator: Adobe Illustrator 17.1.0, SVG Export Plug-In . SVG Version: 6.00 Build 0)  -->
<!DOCTYPE svg PUBLIC "-//W3C//DTD SVG 1.1//EN" "http://www.w3.org/Graphics/SVG/1.1/DTD/svg11.dtd">
<svg version="1.1" id="Layer_1" xmlns="http://www.w3.org/2000/svg" xmlns:xlink="http://www.w3.org/1999/xlink" x="0px" y="0px"
	 viewBox="0 0 24 24" enable-background="new 0 0 24 24" xml:space="preserve">
<polygon points="12,0 13.8,1.3 15.9,0.7 17.2,2.5 19.4,2.5 20,4.7 22.1,5.5 21.9,7.7 23.7,9.1 22.8,11.2 24,13.1 22.5,14.7 23,16.9 
	21.1,18 20.9,20.3 18.7,20.6 17.7,22.7 15.5,22.3 14,24 12,22.9 10,24 8.5,22.3 6.3,22.7 5.3,20.6 3.1,20.3 2.9,18 1,16.9 1.5,14.7 
	0,13.1 1.2,11.2 0.3,9.1 2.1,7.7 1.9,5.5 4,4.7 4.6,2.5 6.8,2.5 8.1,0.7 10.2,1.3 "/>
</svg>
