<svg fill="none" height="120" viewBox="0 0 120 120" width="120" xmlns="http://www.w3.org/2000/svg" xmlns:xlink="http://www.w3.org/1999/xlink"><clipPath id="a"><path d="m0 0h120v120h-120z"/></clipPath><g clip-path="url(#a)"><path d="m0 0h120v120h-120z" fill="#1880b6"/><path d="m83.875 27.1607h-48.75v62.6786h48.75z" fill="#f0eed5" stroke="#324249" stroke-linecap="round" stroke-linejoin="round" stroke-width="2"/><path d="m59.5 64.3036c8.3336 0 15.0893-6.7557 15.0893-15.0893s-6.7557-15.0893-15.0893-15.0893-15.0893 6.7557-15.0893 15.0893 6.7557 15.0893 15.0893 15.0893z" fill="#8cdaf0" stroke="#324249" stroke-linecap="round" stroke-linejoin="round" stroke-width="2"/><path d="m65.3036 46.8929c0 3.2052-2.5984 5.8035-5.8036 5.8035s-5.8036-2.5983-5.8036-5.8035 2.5984-5.8036 5.8036-5.8036 5.8036 2.5984 5.8036 5.8036z" fill="#f0eed5"/><path d="m67.9864 61.6928c-2.418 1.6476-5.3397 2.6108-8.4864 2.6108s-6.0685-.9632-8.4865-2.6109c1.8963-2.6365 4.9909-4.3534 8.4865-4.3534s6.5902 1.7169 8.4864 4.3535z" fill="#f0eed5"/><path d="m65.3036 46.8929c0 3.2052-2.5984 5.8035-5.8036 5.8035s-5.8036-2.5983-5.8036-5.8035 2.5984-5.8036 5.8036-5.8036 5.8036 2.5984 5.8036 5.8036z" stroke="#324249" stroke-linecap="round" stroke-linejoin="round" stroke-width="2"/><path d="m67.9864 61.6928c-2.418 1.6476-5.3397 2.6108-8.4864 2.6108s-6.0685-.9632-8.4865-2.6109c1.8963-2.6365 4.9909-4.3534 8.4865-4.3534s6.5902 1.7169 8.4864 4.3535z" stroke="#324249" stroke-linecap="round" stroke-linejoin="round" stroke-width="2"/><path d="m52.5357 80.5536c0 1.2821-1.0393 2.3214-2.3214 2.3214s-2.3214-1.0393-2.3214-2.3214 1.0393-2.3215 2.3214-2.3215 2.3214 1.0394 2.3214 2.3215z" fill="#8cdaf0"/><path d="m61.8214 80.5536c0 1.2821-1.0393 2.3214-2.3214 2.3214s-2.3214-1.0393-2.3214-2.3214 1.0393-2.3215 2.3214-2.3215 2.3214 1.0394 2.3214 2.3215z" fill="#8cdaf0"/><path d="m71.1071 80.5536c0 1.2821-1.0393 2.3214-2.3214 2.3214s-2.3214-1.0393-2.3214-2.3214 1.0393-2.3215 2.3214-2.3215 2.3214 1.0394 2.3214 2.3215z" fill="#8cdaf0"/><g stroke="#324249" stroke-linecap="round" stroke-width="2"><path d="m52.5357 80.5536c0 1.2821-1.0393 2.3214-2.3214 2.3214s-2.3214-1.0393-2.3214-2.3214 1.0393-2.3215 2.3214-2.3215 2.3214 1.0394 2.3214 2.3215z" stroke-linejoin="round"/><path d="m61.8214 80.5536c0 1.2821-1.0393 2.3214-2.3214 2.3214s-2.3214-1.0393-2.3214-2.3214 1.0393-2.3215 2.3214-2.3215 2.3214 1.0394 2.3214 2.3215z" stroke-linejoin="round"/><path d="m71.1071 80.5536c0 1.2821-1.0393 2.3214-2.3214 2.3214s-2.3214-1.0393-2.3214-2.3214 1.0393-2.3215 2.3214-2.3215 2.3214 1.0394 2.3214 2.3215z" stroke-linejoin="round"/><path d="m44.4107 71.2679h30.1786"/></g></g></svg>