<svg viewBox="0 0 24 24" xmlns="http://www.w3.org/2000/svg"><path d="m5.60449 21.92041h12.79102c.68945 0 1.25-.56055 1.25-1.25v-17.34082c0-.68945-.56055-1.25-1.25-1.25h-12.79102c-.68945 0-1.25.56055-1.25 1.25v17.34082c0 .68945.56055 1.25 1.25 1.25zm.25-1.5v-6.12598h12.29102v6.12598zm4.75147-12.81006c0-.76855.62549-1.39404 1.39404-1.39404s1.39404.62549 1.39404 1.39404-.62549 1.39355-1.39404 1.39355-1.39404-.625-1.39404-1.39355zm1.39404 2.89356c1.4165 0 2.59943.97754 2.93573 2.29053h-5.87146c.3363-1.31299 1.51923-2.29053 2.93573-2.29053zm6.14551-6.92432v9.21484h-1.68085c-.23639-1.40826-1.1214-2.58484-2.33826-3.237.47211-.51508.76764-1.19489.76764-1.94708 0-1.5957-1.29834-2.89404-2.89404-2.89404s-2.89404 1.29834-2.89404 2.89404c0 .7522.29553 1.43201.76764 1.94708-1.21686.65216-2.10187 1.82874-2.33826 3.237h-1.68085v-9.21484z"/></svg>