<svg enable-background="new 0 0 120 120" viewBox="0 0 120 120" xmlns="http://www.w3.org/2000/svg"><path d="m0 0h120v120h-120z" fill="#1880b6"/><g stroke="#324249" stroke-linecap="round" stroke-linejoin="round" stroke-width="2" transform="translate(4 4)"><g transform="translate(0 30)"><path d="m28 28h26v26h-26z" fill="#8ed9ef"/><g fill="#f2f0da"><path d="m54 54h-26l14.6-14.6c.8-.8 2-.8 2.8 0l8.6 8.6z"/><circle cx="36" cy="36" r="4"/></g></g><g transform="translate(30 30)"><path d="m28 28h26v26h-26z" fill="#8ed9ef"/><g fill="#f2f0da"><path d="m54 54h-26l14.6-14.6c.8-.8 2-.8 2.8 0l8.6 8.6z"/><circle cx="36" cy="36" r="4"/></g></g><path d="m28 28h26v26h-26z" fill="#8ed9ef"/><path d="m54 54h-26l14.6-14.6c.8-.8 2-.8 2.8 0l8.6 8.6z" fill="#f2f0da"/><circle cx="36" cy="36" fill="#f2f0da" r="4"/><g transform="translate(30)"><path d="m28 28h26v26h-26z" fill="#8ed9ef"/><g fill="#f2f0da"><path d="m54 54h-26l14.6-14.6c.8-.8 2-.8 2.8 0l8.6 8.6z"/><circle cx="36" cy="36" r="4"/></g></g></g></svg>