<svg fill="none" height="120" viewBox="0 0 120 120" width="120" xmlns="http://www.w3.org/2000/svg" xmlns:xlink="http://www.w3.org/1999/xlink"><clipPath id="a"><path d="m0 0h120v120h-120z"/></clipPath><g clip-path="url(#a)"><path d="m0 0h120v120h-120z" fill="#1880b6"/><g stroke="#324249" stroke-linecap="round" stroke-linejoin="round" stroke-width="2"><path d="m27 61.8214h30.1786v30.1786h-30.1786z" fill="#8ed9ef"/><path d="m57.1786 92h-30.1786l16.9464-16.9465c.9286-.9285 2.3215-.9285 3.25 0l9.9822 9.9822z" fill="#f2f0da"/><path d="m36.2857 75.75c2.5642 0 4.6429-2.0787 4.6429-4.6428 0-2.5642-2.0787-4.6429-4.6429-4.6429-2.5641 0-4.6428 2.0787-4.6428 4.6429 0 2.5641 2.0787 4.6428 4.6428 4.6428z" fill="#f2f0da"/><path d="m61.8214 61.8214h30.1786v30.1786h-30.1786z" fill="#8ed9ef"/><path d="m92.0001 92h-30.1786l16.9464-16.9465c.9286-.9285 2.3215-.9285 3.25 0l9.9822 9.9822z" fill="#f2f0da"/><path d="m71.1072 75.75c2.5642 0 4.6429-2.0787 4.6429-4.6428 0-2.5642-2.0787-4.6429-4.6429-4.6429s-4.6428 2.0787-4.6428 4.6429c0 2.5641 2.0786 4.6428 4.6428 4.6428z" fill="#f2f0da"/><path d="m27 27h30.1786v30.1786h-30.1786z" fill="#8ed9ef"/><path d="m57.1786 57.1786h-30.1786l16.9464-16.9465c.9286-.9285 2.3215-.9285 3.25 0l9.9822 9.9822z" fill="#f2f0da"/><path d="m36.2857 40.9286c2.5642 0 4.6429-2.0787 4.6429-4.6429s-2.0787-4.6428-4.6429-4.6428c-2.5641 0-4.6428 2.0786-4.6428 4.6428s2.0787 4.6429 4.6428 4.6429z" fill="#f2f0da"/><path d="m61.8214 27h30.1786v30.1786h-30.1786z" fill="#8ed9ef"/><path d="m92.0001 57.1786h-30.1786l16.9464-16.9465c.9286-.9285 2.3215-.9285 3.25 0l9.9822 9.9822z" fill="#f2f0da"/><path d="m71.1072 40.9286c2.5642 0 4.6429-2.0787 4.6429-4.6429s-2.0787-4.6428-4.6429-4.6428-4.6428 2.0786-4.6428 4.6428 2.0786 4.6429 4.6428 4.6429z" fill="#f2f0da"/></g></g></svg>