<svg viewBox="0 0 24 24" xmlns="http://www.w3.org/2000/svg"><path d="m20.1709 2.07959h-16.3418c-.96484 0-1.75.78516-1.75 1.75v16.34131c0 .96484.78516 1.75 1.75 1.75h16.3418c.96484 0 1.75-.78516 1.75-1.75v-16.34131c0-.96484-.78516-1.75-1.75-1.75zm.25 1.75v5.83252l-4.30273-3.2998c-.71582-.54932-1.72559-.46777-2.34473.19482l-1.02344 1.09723v-4.07477h7.4209c.1377 0 .25.1123.25.25zm-7.6709 7.32568v-1.30072l2.12012-2.27399c.08887-.09473.23145-.10693.33594-.02783l4.77521 3.66211h-7.23126v-.05957zm-9.1709-1.263 2.15527-2.31171c.08887-.09473.23145-.10693.33594-.02783l4.77478 3.66211h-7.26599zm0 2.82257h7.6709v6.05646l-4.2666-3.27228c-.71875-.55078-1.72656-.46875-2.3457.19434l-1.05859 1.1347v-4.11322zm9.1709 7.57618v-1.3006l2.12109-2.27362c.08691-.09375.23047-.10645.33496-.02832l4.86743 3.73242h-7.32349v-.12988zm3.36914-4.792c-.71777-.55078-1.72656-.46875-2.3457.19434l-1.02344 1.09705v-4.07556h7.6709v6.08344l-4.30176-3.29926zm-12.29004-11.91943h7.4209v6.05554l-4.26758-3.27283c-.7168-.54932-1.72559-.46777-2.34473.19482l-1.05859 1.13495v-3.86249c0-.1377.1123-.25.25-.25zm-.25 16.59131v-1.14282l2.15625-2.31128c.08691-.09375.23047-.10645.33496-.02832l4.86646 3.73242h-7.10767c-.1377 0-.25-.1123-.25-.25z"/><path d="m8.75 5.88965c.06934.07031.14941.12012.25.16016.08984.04004.18945.06006.28027.06006.09961 0 .19922-.02002.28906-.06006.09082-.04004.1709-.08984.24023-.16016.07031-.06982.12988-.15967.16992-.25.03027-.08984.05078-.18994.05078-.27979 0-.1001-.02051-.2002-.05078-.29004-.04004-.08984-.09961-.16992-.16992-.24023-.06934-.06982-.14941-.12988-.24023-.16992-.17969-.06982-.38965-.06982-.56934 0-.10059.04004-.18066.1001-.25.16992-.07031.07031-.12012.15039-.16016.24023s-.05957.18994-.05957.29004c0 .08984.01953.18994.05957.27979.04004.09033.08984.18018.16016.25z"/><path d="m9 15.17969c.08984.04004.17969.06055.28027.06055.09961 0 .19922-.02051.28906-.06055.09082-.03027.1709-.08984.24023-.16016.15039-.13965.2207-.33008.2207-.5293 0-.10059-.02051-.19043-.05078-.29004-.04004-.09082-.09961-.16992-.16992-.24023-.2002-.20996-.54004-.28027-.80957-.16016-.10059.04004-.18066.08984-.25.16016-.07031.07031-.12012.14941-.16016.24023-.04004.09961-.05957.18945-.05957.29004 0 .19922.0791.38965.21973.5293.06934.07031.14941.12988.25.16016z"/><path d="m19.10938 14.2002c-.04004-.09082-.08984-.16992-.15918-.24023-.28027-.28027-.78027-.28027-1.06055 0-.07031.07031-.12988.14941-.16016.24023-.04004.09961-.05957.18945-.05957.29004 0 .19922.08008.38965.21973.5293.07031.07031.15039.12988.24023.16016.08984.04004.18945.06055.29004.06055.09961 0 .18945-.02051.29004-.06055.08984-.03027.16992-.08984.24023-.16016.06934-.06934.11914-.14941.15918-.23926.04004-.09082.06055-.19043.06055-.29004 0-.10059-.02051-.19043-.06055-.29004z"/><path d="m17.88965 5.88965c.14062.14014.33008.20996.53027.20996.09961 0 .18945-.00977.29004-.0498.08984-.04004.16992-.08984.24023-.16016.06934-.06982.11914-.15967.15918-.25.04004-.08984.06055-.18994.06055-.27979 0-.1001-.02051-.2002-.06055-.29004s-.08984-.16992-.15918-.24023c-.07031-.06982-.15039-.12988-.24023-.16992-.19043-.06982-.40039-.06982-.58008 0-.08984.04004-.16992.1001-.24023.16992-.07031.07031-.12988.15039-.16016.24023-.04004.08984-.05957.18994-.05957.29004 0 .08984.01953.18994.05957.27979.03027.09033.08984.18018.16016.25z"/></svg>