<?xml version="1.0" encoding="utf-8"?>
<!-- Generator: Adobe Illustrator 19.1.0, SVG Export Plug-In . SVG Version: 6.00 Build 0)  -->
<svg version="1.1" id="Layer_1" xmlns="http://www.w3.org/2000/svg" xmlns:xlink="http://www.w3.org/1999/xlink" x="0px" y="0px"
	 viewBox="55 277 240 240" style="enable-background:new 55 277 240 240;" xml:space="preserve">
<style type="text/css">
	.st0{fill:#1880B6;}
	.st1{fill:#8ED9EF;}
	.st2{fill:#F2F0DA;}
	.st3{fill:#324249;}
</style>
<rect id="Call_to_Action_2_" x="55" y="277" class="st0" width="240" height="240"/>
<g>
	<g>
		<path class="st1" d="M223,381v-32c0-2.2-1.8-4-4-4h-12v40h12C221.2,385,223,383.2,223,381z"/>
		<path class="st1" d="M123,393h4v-40h-4c-2.2,0-4,1.8-4,4v32C119,391.2,120.8,393,123,393z"/>
		<path class="st1" d="M127,405h-8c-2.2,0-4,1.8-4,4v40c0,2.2,1.8,4,4,4h40c2.2,0,4-1.8,4-4v-36h-28C130.6,413,127,409.4,127,405z"
			/>
		<path class="st1" d="M231,401h-24v4c0,4.4-3.6,8-8,8h-20v40c0,2.2,1.8,4,4,4h48c2.2,0,4-1.8,4-4v-48C235,402.8,233.2,401,231,401z
			"/>
	</g>
	<path class="st2" d="M135,409h64c2.2,0,4-1.8,4-4v-64c0-2.2-1.8-4-4-4h-64c-2.2,0-4,1.8-4,4v64C131,407.2,132.8,409,135,409z"/>
	<g>
		<path class="st3" d="M171,365c0-2.6,1.6-4,4-4h4v-8c0,0-4.5,0-8,0c-4.7,0-8,3.9-8,8v8h-8v8h8v16h8v-16h8l2-8h-10V365z"/>
		<path class="st3" d="M220.9,417.4c-1.2,0.7-2.5,1.2-3.8,1.5c-1.1-1.2-2.7-1.9-4.4-1.9c-3.3,0-6.1,2.7-6.1,6.1
			c0,0.5,0.1,0.9,0.2,1.4c-5-0.3-9.5-2.7-12.5-6.3c-0.5,0.9-0.8,1.9-0.8,3c0,2.1,1.1,4,2.7,5c-1,0-1.9-0.3-2.7-0.8c0,0,0,0.1,0,0.1
			c0,2.9,2.1,5.4,4.9,5.9c-0.5,0.1-1,0.2-1.6,0.2c-0.4,0-0.8,0-1.1-0.1c0.8,2.4,3,4.2,5.7,4.2c-2.1,1.6-4.7,2.6-7.5,2.6
			c-0.5,0-1,0-1.4-0.1c2.7,1.7,5.9,2.7,9.3,2.7c11.1,0,17.2-9.2,17.2-17.2c0-0.3,0-0.5,0-0.8c1.2-0.9,2.2-1.9,3-3.1
			c-1.1,0.5-2.3,0.8-3.5,1C219.5,420,220.5,418.9,220.9,417.4z"/>
		<path class="st3" d="M231,397h-24v-8h12c4.4,0,8-3.6,8-8v-32c0-4.4-3.6-8-8-8h-12c0-4.4-3.6-8-8-8h-64c-4.4,0-8,3.6-8,8v8h-4
			c-4.4,0-8,3.6-8,8v32c0,4.4,3.6,8,8,8h4v4h-8c-4.4,0-8,3.6-8,8v40c0,4.4,3.6,8,8,8h40c4.4,0,8-3.6,8-8v-36h8v40c0,4.4,3.6,8,8,8
			h48c4.4,0,8-3.6,8-8v-48C239,400.6,235.4,397,231,397z M207,345h12c2.2,0,4,1.8,4,4v32c0,2.2-1.8,4-4,4h-12V345z M123,393
			c-2.2,0-4-1.8-4-4v-32c0-2.2,1.8-4,4-4h4v40H123z M163,449c0,2.2-1.8,4-4,4h-40c-2.2,0-4-1.8-4-4v-40c0-2.2,1.8-4,4-4h8
			c0,4.4,3.6,8,8,8h28V449z M135,409c-2.2,0-4-1.8-4-4v-64c0-2.2,1.8-4,4-4h64c2.2,0,4,1.8,4,4v64c0,2.2-1.8,4-4,4H135z M235,453
			c0,2.2-1.8,4-4,4h-48c-2.2,0-4-1.8-4-4v-40h20c4.4,0,8-3.6,8-8v-4h24c2.2,0,4,1.8,4,4V453z"/>
		<polygon class="st3" points="135,417 135,425 127,425 127,433 135,433 135,441 143,441 143,433 151,433 151,425 143,425 143,417 
					"/>
	</g>
</g>
</svg>
