<svg enable-background="new 55 277 240 240" viewBox="55 277 240 240" xmlns="http://www.w3.org/2000/svg"><path d="m55 277h240v240h-240z" fill="#1880b6"/><g fill="#8ed9ef"><path d="m223 381v-32c0-2.2-1.8-4-4-4h-12v40h12c2.2 0 4-1.8 4-4z"/><path d="m123 393h4v-40h-4c-2.2 0-4 1.8-4 4v32c0 2.2 1.8 4 4 4z"/><path d="m127 405h-8c-2.2 0-4 1.8-4 4v40c0 2.2 1.8 4 4 4h40c2.2 0 4-1.8 4-4v-36h-28c-4.4 0-8-3.6-8-8z"/><path d="m231 401h-24v4c0 4.4-3.6 8-8 8h-20v40c0 2.2 1.8 4 4 4h48c2.2 0 4-1.8 4-4v-48c0-2.2-1.8-4-4-4z"/></g><path d="m135 409h64c2.2 0 4-1.8 4-4v-64c0-2.2-1.8-4-4-4h-64c-2.2 0-4 1.8-4 4v64c0 2.2 1.8 4 4 4z" fill="#f2f0da"/><path d="m171 365c0-2.6 1.6-4 4-4h4v-8s-4.5 0-8 0c-4.7 0-8 3.9-8 8v8h-8v8h8v16h8v-16h8l2-8h-10z" fill="#324249"/><path d="m220.9 417.4c-1.2.7-2.5 1.2-3.8 1.5-1.1-1.2-2.7-1.9-4.4-1.9-3.3 0-6.1 2.7-6.1 6.1 0 .5.1.9.2 1.4-5-.3-9.5-2.7-12.5-6.3-.5.9-.8 1.9-.8 3 0 2.1 1.1 4 2.7 5-1 0-1.9-.3-2.7-.8v.1c0 2.9 2.1 5.4 4.9 5.9-.5.1-1 .2-1.6.2-.4 0-.8 0-1.1-.1.8 2.4 3 4.2 5.7 4.2-2.1 1.6-4.7 2.6-7.5 2.6-.5 0-1 0-1.4-.1 2.7 1.7 5.9 2.7 9.3 2.7 11.1 0 17.2-9.2 17.2-17.2 0-.3 0-.5 0-.8 1.2-.9 2.2-1.9 3-3.1-1.1.5-2.3.8-3.5 1 1-.8 2-1.9 2.4-3.4z" fill="#324249"/><path d="m231 397h-24v-8h12c4.4 0 8-3.6 8-8v-32c0-4.4-3.6-8-8-8h-12c0-4.4-3.6-8-8-8h-64c-4.4 0-8 3.6-8 8v8h-4c-4.4 0-8 3.6-8 8v32c0 4.4 3.6 8 8 8h4v4h-8c-4.4 0-8 3.6-8 8v40c0 4.4 3.6 8 8 8h40c4.4 0 8-3.6 8-8v-36h8v40c0 4.4 3.6 8 8 8h48c4.4 0 8-3.6 8-8v-48c0-4.4-3.6-8-8-8zm-24-52h12c2.2 0 4 1.8 4 4v32c0 2.2-1.8 4-4 4h-12zm-84 48c-2.2 0-4-1.8-4-4v-32c0-2.2 1.8-4 4-4h4v40zm40 56c0 2.2-1.8 4-4 4h-40c-2.2 0-4-1.8-4-4v-40c0-2.2 1.8-4 4-4h8c0 4.4 3.6 8 8 8h28zm-28-40c-2.2 0-4-1.8-4-4v-64c0-2.2 1.8-4 4-4h64c2.2 0 4 1.8 4 4v64c0 2.2-1.8 4-4 4zm100 44c0 2.2-1.8 4-4 4h-48c-2.2 0-4-1.8-4-4v-40h20c4.4 0 8-3.6 8-8v-4h24c2.2 0 4 1.8 4 4z" fill="#324249"/><path d="m135 417v8h-8v8h8v8h8v-8h8v-8h-8v-8z" fill="#324249"/></svg>