<svg viewBox="0 0 24 24" xmlns="http://www.w3.org/2000/svg"><path d="m18.71094 9.59863h-3.38867v-5.22754c0-.96484-.78516-1.75-1.75-1.75h-8.28321c-.96484 0-1.75.78516-1.75 1.75v8.2832c0 .96484.78516 1.75 1.75 1.75h3.3916v5.22461c0 .96484.78516 1.75 1.75 1.75h8.28027c.96484 0 1.75-.78516 1.75-1.75v-8.28027c0-.96484-.78516-1.75-1.75-1.75zm-3.81934 4.80567c.75977 0 1.37793.61816 1.37793 1.37695s-.61816 1.37695-1.37793 1.37695c-.75879 0-1.37695-.61816-1.37695-1.37695s.61816-1.37695 1.37695-1.37695zm-9.85254-1.75v-8.28321c0-.1377.1123-.25.25-.25h8.2832c.1377 0 .25.1123.25.25v8.2832c0 .1377-.1123.25-.25.25h-8.2832c-.1377 0-.25-.1123-.25-.25zm13.92188 6.97461c0 .13574-.11426.25-.25.25h-8.28027c-.13574 0-.25-.11426-.25-.25v-5.22461h2.20093c-.22656.41089-.36694.87567-.36694 1.37695 0 1.58594 1.29102 2.87695 2.87695 2.87695 1.58691 0 2.87793-1.29102 2.87793-2.87695 0-1.44861-1.08081-2.63904-2.47668-2.83636.01605-.09503.02942-.1911.02942-.29059v-1.55566h3.38867c.13574 0 .25.11426.25.25v8.28027z"/><path d="m10.00684 7.39746c0-.40918.33203-.74121.74121-.74121v-1.5c-1.23535 0-2.24121 1.00586-2.24121 2.24121v.36523h-1.03027v1.5h1.03027v2.35742h1.5v-2.35742h1.03027v-1.5h-1.03027z"/><path d="m17.72949 11.83008c-.18945-.07031-.39941-.07031-.58008 0-.08984.04004-.16992.08984-.23926.16016-.14062.13965-.2207.33984-.2207.5293 0 .20996.08008.39062.2207.53027.06934.08008.14941.12988.23926.16992.09082.04004.19043.0498.29004.0498.2002 0 .39062-.06934.53027-.21973.13965-.13965.21973-.33008.21973-.53027 0-.18945-.08008-.38965-.21973-.5293-.07031-.06055-.15039-.12012-.24023-.16016z"/></svg>