<svg viewBox="0 0 24 24" xmlns="http://www.w3.org/2000/svg"><path d="m3.44434 13.97168h6.84668c.41406 0 .75-.33594.75-.75v-9.88477c0-.41406-.33594-.75-.75-.75h-6.84668c-.41406 0-.75.33594-.75.75v9.88477c0 .41406.33594.75.75.75zm.75-9.88477h5.34668v8.38477h-5.34668z"/><path d="m2.69434 20.66309c0 .41406.33594.75.75.75h6.84668c.41406 0 .75-.33594.75-.75v-4.1582c0-.41406-.33594-.75-.75-.75h-6.84668c-.41406 0-.75.33594-.75.75zm1.5-3.40821h5.34668v2.6582h-5.34668z"/><path d="m12.95898 20.66309c0 .41406.33594.75.75.75h6.84668c.41406 0 .75-.33594.75-.75v-9.88477c0-.41406-.33594-.75-.75-.75h-6.84668c-.41406 0-.75.33594-.75.75zm1.5-9.13477h5.34668v8.38477h-5.34668z"/><path d="m13.70898 8.24512h6.84668c.41406 0 .75-.33594.75-.75v-4.15821c0-.41406-.33594-.75-.75-.75h-6.84668c-.41406 0-.75.33594-.75.75v4.1582c0 .41406.33594.75.75.75zm.75-4.15821h5.34668v2.6582h-5.34668z"/></svg>