<?xml version="1.0" encoding="utf-8"?>
<!-- Generator: Adobe Illustrator 19.1.0, SVG Export Plug-In . SVG Version: 6.00 Build 0)  -->
<svg version="1.1" id="Layer_1" xmlns="http://www.w3.org/2000/svg" xmlns:xlink="http://www.w3.org/1999/xlink" x="0px" y="0px"
	 viewBox="55 277 240 240" style="enable-background:new 55 277 240 240;" xml:space="preserve">
<style type="text/css">
	.st0{fill:#1880B6;}
	.st1{fill:#8ED9EF;}
	.st2{fill:#324249;}
	.st3{fill:#F2F0DA;}
</style>
<rect id="Button_1_" x="55" y="277" class="st0" width="240" height="240"/>
<g>
	<g>
		<path class="st1" d="M114.9,352.9v12h16v-16h-12C116.6,348.9,114.9,350.7,114.9,352.9z"/>
		<rect x="114.9" y="368.9" class="st1" width="16" height="16"/>
		<rect x="114.9" y="388.9" class="st1" width="16" height="16"/>
		<rect x="114.9" y="409" class="st1" width="16" height="16"/>
		<path class="st1" d="M114.9,441c0,2.2,1.8,4,4,4h12v-16h-16V441z"/>
		<rect x="134.9" y="348.9" class="st1" width="80.1" height="96.1"/>
		<path class="st1" d="M219,445h12c2.2,0,4-1.8,4-4v-12h-16L219,445L219,445z"/>
		<rect x="219" y="409" class="st1" width="16" height="16"/>
		<rect x="219" y="388.9" class="st1" width="16" height="16"/>
		<rect x="219" y="368.9" class="st1" width="16" height="16"/>
		<path class="st1" d="M231,348.9h-12v16h16v-12C235,350.7,233.2,348.9,231,348.9z"/>
	</g>
	<path class="st2" d="M164.9,417c0.3,0,0.6-0.1,0.9-0.2l28-17.8c0.7-0.3,1.1-1.2,1.1-2s-0.4-1.4-1.1-1.8l-28-18.1
		c-0.6-0.3-1.4-0.3-1.9,0.1c-0.6,0.4-1,1-1,1.7v36c0,0.7,0.4,1.3,1,1.7C164.2,416.9,164.5,417,164.9,417z M166.9,382.5l22.5,14.5
		l-22.5,14.5V382.5z"/>
	<polygon class="st3" points="166.9,382.5 166.9,411.5 189.4,396.9 	"/>
	<path class="st2" d="M231,344.9H118.9c-4.4,0-8,3.3-8,7.8V441c0,4.4,3.6,8,8,8H231c4.4,0,8-3.6,8-8v-88.4
		C239,348.2,235.4,344.9,231,344.9z M114.9,352.9c0-2.2,1.8-4,4-4h12v16h-16V352.9z M114.9,368.9h16v16h-16V368.9z M114.9,388.9h16
		v16h-16V388.9z M114.9,409h16v16h-16V409z M118.9,445c-2.2,0-4-1.8-4-4v-12h16v16H118.9L118.9,445z M134.9,445v-96.1H215V445H134.9
		z M235,441c0,2.2-1.8,4-4,4h-12v-16h16L235,441L235,441z M235,425h-16v-16h16V425z M235,404.9h-16v-16h16V404.9z M235,384.9h-16
		v-16h16V384.9z M235,364.9h-16v-16h12c2.2,0,4,1.8,4,4L235,364.9L235,364.9z"/>
</g>
</svg>
