<svg enable-background="new 55 277 240 240" viewBox="55 277 240 240" xmlns="http://www.w3.org/2000/svg"><path d="m55 277h240v240h-240z" fill="#1880b6"/><g fill="#8ed9ef"><path d="m114.9 352.9v12h16v-16h-12c-2.3 0-4 1.8-4 4z"/><path d="m114.9 368.9h16v16h-16z"/><path d="m114.9 388.9h16v16h-16z"/><path d="m114.9 409h16v16h-16z"/><path d="m114.9 441c0 2.2 1.8 4 4 4h12v-16h-16z"/><path d="m134.9 348.9h80.1v96.1h-80.1z"/><path d="m219 445h12c2.2 0 4-1.8 4-4v-12h-16z"/><path d="m219 409h16v16h-16z"/><path d="m219 388.9h16v16h-16z"/><path d="m219 368.9h16v16h-16z"/><path d="m231 348.9h-12v16h16v-12c0-2.2-1.8-4-4-4z"/></g><path d="m164.9 417c.3 0 .6-.1.9-.2l28-17.8c.7-.3 1.1-1.2 1.1-2s-.4-1.4-1.1-1.8l-28-18.1c-.6-.3-1.4-.3-1.9.1-.6.4-1 1-1 1.7v36c0 .7.4 1.3 1 1.7.3.3.6.4 1 .4zm2-34.5 22.5 14.5-22.5 14.5z" fill="#324249"/><path d="m166.9 382.5v29l22.5-14.6z" fill="#f2f0da"/><path d="m231 344.9h-112.1c-4.4 0-8 3.3-8 7.8v88.3c0 4.4 3.6 8 8 8h112.1c4.4 0 8-3.6 8-8v-88.4c0-4.4-3.6-7.7-8-7.7zm-116.1 8c0-2.2 1.8-4 4-4h12v16h-16zm0 16h16v16h-16zm0 20h16v16h-16zm0 20.1h16v16h-16zm4 36c-2.2 0-4-1.8-4-4v-12h16v16zm16 0v-96.1h80.1v96.1zm100.1-4c0 2.2-1.8 4-4 4h-12v-16h16zm0-16h-16v-16h16zm0-20.1h-16v-16h16zm0-20h-16v-16h16zm0-20h-16v-16h12c2.2 0 4 1.8 4 4z" fill="#324249"/></svg>