<svg viewBox="0 0 24 24" xmlns="http://www.w3.org/2000/svg"><path d="m20.1709 3.88477h-16.3418c-.96484 0-1.75.78516-1.75 1.75v12.73047c0 .96484.78516 1.75 1.75 1.75h16.3418c.96484 0 1.75-.78516 1.75-1.75v-12.73047c0-.96484-.78516-1.75-1.75-1.75zm.25 14.48046c0 .1377-.1123.25-.25.25h-16.3418c-.1377 0-.25-.1123-.25-.25v-12.73046c0-.1377.1123-.25.25-.25h16.3418c.1377 0 .25.1123.25.25v12.73047z"/><path d="m15.81641 11.35059-5.75-3.32031c-.23242-.13477-.51758-.13477-.75 0-.23242.13379-.375.38184-.375.64941v6.64062c0 .26758.14258.51562.375.64941.11621.06738.24512.10059.375.10059s.25879-.0332.375-.10059l5.75-3.32031c.23242-.13379.375-.38184.375-.64941s-.14258-.51562-.375-.64941zm-5.375 2.67089v-4.04297l3.5 2.02148-3.5 2.02148z"/></svg>