<?xml version="1.0" encoding="utf-8"?>
<!-- Generator: Adobe Illustrator 16.0.0, SVG Export Plug-In . SVG Version: 6.00 Build 0)  -->
<!DOCTYPE svg PUBLIC "-//W3C//DTD SVG 1.0//EN" "http://www.w3.org/TR/2001/REC-SVG-20010904/DTD/svg10.dtd">
<svg version="1.0" id="Layer_1" xmlns="http://www.w3.org/2000/svg" xmlns:xlink="http://www.w3.org/1999/xlink" x="0px" y="0px"
	 width="480px" height="240px" viewBox="0 0 480 240" enable-background="new 0 0 480 240" xml:space="preserve">
<rect id="Call_to_Action_1_" fill="#1880B6" width="480" height="240"/>
<g>
	<g>
		<path fill="#324249" d="M216,92c6.625,0,12-5.373,12-12s-5.375-12-12-12s-12,5.373-12,12S209.375,92,216,92z M216,72
			c4.418,0,8,3.582,8,8s-3.582,8-8,8s-8-3.582-8-8S211.582,72,216,72z"/>
		<path fill="#324249" d="M296,80h-56c0-13.254-10.742-24-24-24s-24,10.746-24,24h-8c-4.418,0-8,3.582-8,8v88c0,4.418,3.582,8,8,8
			h112c4.418,0,8-3.582,8-8V88C304,83.582,300.418,80,296,80z M216,60c11.047,0,20,8.953,20,20c0,3.113-0.594,6.5-2.055,8.869
			l-17.562,25.643l-18.34-25.674C196.594,86.469,196,83.113,196,80C196,68.953,204.953,60,216,60z M180,88c0-2.209,1.789-4,4-4
			h8.371c0-0.01-0.004-0.02-0.004-0.029c0.395,2.43,1.09,4.785,2.094,6.447c0.031,0.141,6.055,8.652,11.539,16.377l0.539,3.602
			L180,114.377V88z M184,180c-2.211,0-4-1.791-4-4v-41.576l29.48-4.422l7.5,49.998H184z M300,176c0,2.209-1.789,4-4,4h-58.98
			L234,160.062L300,160V176z M300,144h-68.625l-2.293-16.939L300,116.424V144z M300,112.377l-75.465,11.32L228.18,148H300v8
			l-66.602,0.059l-4.02-0.059l3.602,24h-11.957l-8.184-54.549L180,130.377v-11.955l30.961-4.643
			c2.254,3.166,3.828,5.383,3.828,5.383c0.375,0.525,0.98,0.838,1.625,0.838c0.008,0,0.016,0,0.023,0
			c0.648-0.006,1.258-0.332,1.629-0.869c0,0,2.094-3.062,4.883-7.15L300,100.424V112.377z M300,96.377l-73.859,11.08l-0.02-0.119
			c5.277-7.725,11.199-16.404,11.223-16.449c1.188-2.057,1.914-4.426,2.305-6.889H296c2.211,0,4,1.791,4,4V96.377z"/>
	</g>
	<g>
		<path fill="#8ED9EF" d="M206,106.795c-5.484-7.725-11.508-16.236-11.539-16.377c-1.004-1.662-1.699-4.018-2.094-6.447
			c0,0.01,0.004,0.02,0.004,0.029H184c-2.211,0-4,1.791-4,4v26.377l26.539-3.98L206,106.795z"/>
		<path fill="#8ED9EF" d="M180,134.424V176c0,2.209,1.789,4,4,4h32.98l-7.5-49.998L180,134.424z"/>
		<path fill="#8ED9EF" d="M237.02,180H296c2.211,0,4-1.791,4-4v-16l-66,0.062L237.02,180z"/>
		<polygon fill="#8ED9EF" points="231.375,144 300,144 300,116.424 229.082,127.061 		"/>
		<path fill="#8ED9EF" d="M296,84h-56.352c-0.391,2.463-1.117,4.832-2.305,6.889c-0.023,0.045-5.945,8.725-11.223,16.449l0.02,0.119
			L300,96.377V88C300,85.791,298.211,84,296,84z"/>
	</g>
	<g>
		<path fill="#F2F0DA" d="M216,60c-11.047,0-20,8.953-20,20c0,3.113,0.594,6.469,2.043,8.838l18.34,25.674l17.562-25.643
			C235.406,86.5,236,83.113,236,80C236,68.953,227.047,60,216,60z M216,92c-6.625,0-12-5.373-12-12s5.375-12,12-12s12,5.373,12,12
			S222.625,92,216,92z"/>
	</g>
	<g>
		<path fill="#F2F0DA" d="M300,100.424l-77.051,11.557c-2.789,4.088-4.883,7.15-4.883,7.15c-0.371,0.537-0.98,0.863-1.629,0.869
			c-0.008,0-0.016,0-0.023,0c-0.645,0-1.25-0.312-1.625-0.838c0,0-1.574-2.217-3.828-5.383L180,118.422v11.955l32.84-4.926
			L221.023,180h11.957l-3.602-24l4.02,0.059L300,156v-8h-71.82l-3.645-24.303L300,112.377V100.424z"/>
	</g>
	<circle fill="#1880B6" cx="216" cy="80" r="8"/>
</g>
</svg>
