<?xml version="1.0" encoding="utf-8"?>
<!-- Generator: Adobe Illustrator 19.1.0, SVG Export Plug-In . SVG Version: 6.00 Build 0)  -->
<svg version="1.1" id="Layer_1" xmlns="http://www.w3.org/2000/svg" xmlns:xlink="http://www.w3.org/1999/xlink" x="0px" y="0px"
	 viewBox="55 277 240 240" style="enable-background:new 55 277 240 240;" xml:space="preserve">
<style type="text/css">
	.st0{fill:#1880B6;}
	.st1{fill:#F2F0DA;}
	.st2{fill:#8ED9EF;}
	.st3{fill:#324249;}
</style>
<rect id="Button" x="55" y="277" class="st0" width="240" height="240"/>
<g>
	<polygon class="st1" points="209.3,426.4 190,434.4 198.4,454.1 194,456.3 185.5,436.3 167,444 167,387.5 	"/>
	<path class="st2" d="M235,405c0,2.2-1.8,4-4,4h-34.7l-30-27.5c-0.6-0.5-1.4-0.7-2.2-0.4c-0.7,0.3-1.2,1-1.2,1.8v26h-44
		c-2.2,0-4-1.8-4-4v-64c0-2.2,1.8-4,4-4h112c2.2,0,4,1.8,4,4V405z"/>
	<g>
		<path class="st3" d="M231.1,333H118.9c-4.3,0-7.9,3.5-7.9,7.9v64.3c0,4.3,3.5,7.9,7.9,7.9H163v34c0,0.7,0.3,1.3,0.9,1.7
			c0.3,0.2,0.7,0.3,1.1,0.3c0.3,0,0.5-0.1,0.8-0.2l17.6-7.3l7.8,18.3c0.2,0.5,0.6,0.9,1.1,1.1c0.2,0.1,0.5,0.1,0.7,0.1
			c0.3,0,0.6-0.1,0.9-0.2l8-4c0.9-0.5,1.4-1.6,0.9-2.6l-7.6-17.7l18.5-7.7c0.6-0.3,1.1-0.8,1.2-1.5c0.1-0.7-0.1-1.4-0.6-1.8
			L200.7,413h30.5c4.3,0,7.9-3.5,7.9-7.9v-64.3C239,336.5,235.5,333,231.1,333z M209.3,426.4l-19.3,8.1l8.4,19.6l-4.4,2.2l-8.6-19.9
			L167,444v-56.5L209.3,426.4z M235,405c0,2.2-1.8,4-4,4h-34.7l-30-27.5c-0.6-0.5-1.4-0.7-2.2-0.4c-0.7,0.3-1.2,1-1.2,1.8v26h-44
			c-2.2,0-4-1.8-4-4v-64c0-2.2,1.8-4,4-4h112c2.2,0,4,1.8,4,4V405z"/>
		<path class="st3" d="M165,349c-1.1,0-2,0.9-2,2v20c0,1.1,0.9,2,2,2s2-0.9,2-2v-20C167,349.9,166.1,349,165,349z"/>
		<path class="st3" d="M153,381h-20c-1.1,0-2,0.9-2,2s0.9,2,2,2h20c1.1,0,2-0.9,2-2S154.1,381,153,381z"/>
		<path class="st3" d="M199,383c0-1.1-0.9-2-2-2h-20c-1.1,0-2,0.9-2,2s0.9,2,2,2h20C198.1,385,199,384.1,199,383z"/>
		<path class="st3" d="M142.4,357.6c-0.8-0.8-2-0.8-2.8,0s-0.8,2,0,2.8l14.1,14.1c0.8,0.8,2,0.8,2.8,0s0.8-2,0-2.8L142.4,357.6z"/>
		<path class="st3" d="M190.4,360.4c0.8-0.8,0.8-2,0-2.8s-2-0.8-2.8,0l-14.1,14.1c-0.8,0.8-0.8,2,0,2.8s2,0.8,2.8,0L190.4,360.4z"/>
	</g>
</g>
</svg>
