<?xml version="1.0" encoding="utf-8"?>
<!-- Generator: Adobe Illustrator 16.0.0, SVG Export Plug-In . SVG Version: 6.00 Build 0)  -->
<!DOCTYPE svg PUBLIC "-//W3C//DTD SVG 1.0//EN" "http://www.w3.org/TR/2001/REC-SVG-20010904/DTD/svg10.dtd">
<svg version="1.0" id="Layer_1" xmlns="http://www.w3.org/2000/svg" xmlns:xlink="http://www.w3.org/1999/xlink" x="0px" y="0px"
	 width="480px" height="240px" viewBox="0 0 480 240" enable-background="new 0 0 480 240" xml:space="preserve">
<rect id="Button_2_" fill="#1880B6" width="480" height="240"/>
<g>
	<path fill="#8ED9EF" d="M300,132.676l-22.352-22.355c-3.129-3.125-8.188-3.125-11.312,0l-34.344,34.344l-14.305-14.301
		c-3.125-3.129-8.184-3.129-11.312,0L180,156.742V76c0-2.211,1.789-4,4-4h112c2.211,0,4,1.789,4,4V132.676z"/>
	<g>
		<circle fill="#F2F0DA" cx="222" cy="97.992" r="6"/>
		<path fill="#F2F0DA" d="M296,168c2.211,0,4-1.789,4-4v-25.664l-25.18-25.184c-1.562-1.562-4.094-1.562-5.656,0l-41.742,41.754
			c-0.781,0.781-2.047,0.781-2.828,0c-0.783-0.781-0.783-2.047,0-2.828l4.578-4.578c-0.002-0.004-0.004-0.004-0.008-0.008
			c-1.906-1.902-14.305-14.297-14.305-14.297c-1.562-1.562-4.094-1.562-5.656,0L180,162.398V164c0,2.211,1.789,4,4,4H296z"/>
	</g>
	<g>
		<path fill="#324249" d="M296,68H184c-4.422,0-8,3.578-8,8v88c0,4.422,3.578,8,8,8h112c4.422,0,8-3.578,8-8V76
			C304,71.578,300.422,68,296,68z M300,164c0,2.211-1.789,4-4,4H184c-2.211,0-4-1.789-4-4v-1.602l29.203-29.203
			c1.562-1.562,4.094-1.562,5.656,0c0,0,12.398,12.395,14.305,14.297c0.004,0.004,0.006,0.004,0.008,0.008l-4.578,4.578
			c-0.783,0.781-0.783,2.047,0,2.828c0.781,0.781,2.047,0.781,2.828,0l41.742-41.754c1.562-1.562,4.094-1.562,5.656,0L300,138.336
			V164z M300,132.676l-22.352-22.355c-3.129-3.125-8.188-3.125-11.312,0l-34.344,34.344l-14.305-14.301
			c-3.125-3.129-8.184-3.129-11.312,0L180,156.742V76c0-2.211,1.789-4,4-4h112c2.211,0,4,1.789,4,4V132.676z"/>
		<path fill="#324249" d="M238.008,95.992h-6.203c-0.258-1.273-0.766-2.457-1.461-3.508l4.391-4.391
			c0.785-0.781,0.785-2.047,0-2.828c-0.781-0.781-2.047-0.781-2.828,0l-4.391,4.391c-1.051-0.695-2.234-1.203-3.508-1.461v-6.203
			c0-1.105-0.895-2-2-2c-1.109,0-2.004,0.895-2.004,2v6.203c-1.273,0.258-2.457,0.766-3.508,1.461l-4.391-4.395
			c-0.781-0.777-2.043-0.777-2.832,0c-0.777,0.789-0.777,2.051,0.004,2.832l4.391,4.391c-0.695,1.051-1.203,2.23-1.461,3.508h-6.203
			c-1.105,0-1.996,0.895-2.004,2c0.008,1.113,0.902,2.004,2.004,2.004h6.203c0.258,1.273,0.766,2.457,1.461,3.508l-4.395,4.391
			c-0.777,0.781-0.777,2.047,0,2.832c0.789,0.781,2.051,0.777,2.832-0.004l4.391-4.391c1.051,0.695,2.23,1.203,3.508,1.461v6.203
			c0,1.105,0.895,2,2.004,2.004c1.109-0.004,2-0.898,2-2.004v-6.203c1.273-0.258,2.457-0.766,3.508-1.461l4.391,4.395
			c0.781,0.781,2.047,0.781,2.832,0c0.781-0.785,0.777-2.051-0.004-2.832l-4.391-4.391c0.695-1.051,1.203-2.23,1.461-3.508h6.203
			c1.105,0.004,2-0.895,2-2.004C240.008,96.887,239.113,95.992,238.008,95.992z M222.008,103.996c-3.312,0-6-2.684-6.004-5.996
			c0,0,0.004-0.004,0.004-0.008c0,0-0.004,0-0.004-0.004c0.004-3.312,2.691-5.996,6.004-5.996s6,2.688,6,6
			C228.008,101.309,225.32,103.996,222.008,103.996z"/>
	</g>
</g>
</svg>
