<svg enable-background="new 55 277 240 240" viewBox="55 277 240 240" xmlns="http://www.w3.org/2000/svg"><path d="m55 277h240v240h-240z" fill="#1880b6"/><g fill="#8ed9ef"><path d="m219 349h-88c-2.2 0-4 1.8-4 4v72.7l22.4-22.4c3.1-3.1 8.2-3.1 11.3 0l10.3 10.3 22.3-30.3c3.1-3.1 8.2-3.1 11.3 0l18.4 18.4v-48.7c0-2.2-1.8-4-4-4z"/><path d="m115 361v72c0 2.2 1.8 4 4 4h4v-80h-4c-2.2 0-4 1.8-4 4z"/><path d="m231 357h-4v80h4c2.2 0 4-1.8 4-4v-72c0-2.2-1.8-4-4-4z"/></g><path d="m231 353h-4c0-4.4-3.6-8-8-8h-88c-4.4 0-8 3.6-8 8h-4c-4.4 0-8 3.6-8 8v72c0 4.4 3.6 8 8 8h4c0 4.4 3.6 8 8 8h88c4.4 0 8-3.6 8-8h4c4.4 0 8-3.6 8-8v-72c0-4.4-3.6-8-8-8zm-108 84h-4c-2.2 0-4-1.8-4-4v-72c0-2.2 1.8-4 4-4h4zm100 4c0 2.2-1.8 4-4 4h-88c-2.2 0-4-1.8-4-4v-9.6l25.2-25.2c1.6-1.6 4.1-1.6 5.7 0 0 0 8.4 8.4 10.3 10.3s3.8 1.9 5.7 0 22.3-30.3 22.3-30.3c1.6-1.6 4.1-1.6 5.7 0l21.2 21.2v33.6zm0-39.3-18.4-18.4c-3.1-3.1-8.2-3.1-11.3 0l-22.3 30.4-10.3-10.3c-3.1-3.1-8.2-3.1-11.3 0l-22.4 22.3v-72.7c0-2.2 1.8-4 4-4h88c2.2 0 4 1.8 4 4zm12 31.3c0 2.2-1.8 4-4 4h-4v-80h4c2.2 0 4 1.8 4 4z" fill="#324249"/><path d="m169 373h-6.2c-.3-1.3-.8-2.5-1.5-3.5l4.4-4.4c.8-.8.8-2 0-2.8s-2-.8-2.8 0l-4.4 4.4c-1.1-.7-2.2-1.2-3.5-1.5v-6.2c0-1.1-.9-2-2-2s-2 .9-2 2v6.2c-1.3.3-2.5.8-3.5 1.5l-4.4-4.4c-.8-.8-2-.8-2.8 0s-.8 2.1 0 2.8l4.4 4.4c-.7 1-1.2 2.2-1.5 3.5h-6.2c-1.1 0-2 .9-2 2s.9 2 2 2h6.2c.3 1.3.8 2.5 1.5 3.5l-4.4 4.4c-.8.8-.8 2 0 2.8s2.1.8 2.8 0l4.4-4.4c1.1.7 2.2 1.2 3.5 1.5v6.2c0 1.1.9 2 2 2s2-.9 2-2v-6.2c1.3-.3 2.5-.8 3.5-1.5l4.4 4.4c.8.8 2 .8 2.8 0s.8-2.1 0-2.8l-4.4-4.4c.7-1 1.2-2.2 1.5-3.5h6.2c1.1 0 2-.9 2-2s-.9-2-2-2zm-16 8c-3.3 0-6-2.7-6-6 0-3.3 2.7-6 6-6s6 2.7 6 6-2.7 6-6 6z" fill="#324249"/><path d="m201.8 386.1c-1.6-1.6-4.1-1.6-5.7 0 0 0-20.4 28.4-22.3 30.3s-3.8 1.9-5.7 0-10.3-10.3-10.3-10.3c-1.6-1.6-4.1-1.6-5.7 0l-25.1 25.3v9.6c0 2.2 1.8 4 4 4h88c2.2 0 4-1.8 4-4v-33.7z" fill="#f2f0da"/><path d="m153 381c3.3 0 6-2.7 6-6s-2.7-6-6-6-6 2.7-6 6 2.7 6 6 6z" fill="#f2f0da"/></svg>