<svg viewBox="0 0 24 24" xmlns="http://www.w3.org/2000/svg"><path d="m17.64453 5.25195h-11.28906c-.96484 0-1.75.78516-1.75 1.75v9.99609c0 .96484.78516 1.75 1.75 1.75h11.28906c.96484 0 1.75-.78516 1.75-1.75v-9.99609c0-.96484-.78516-1.75-1.75-1.75zm-11.28906 1.5h11.28906c.1377 0 .25.1123.25.25v5.52246l-1.32031-1.32031c-.57324-.57324-1.50781-.5752-2.08496 0l-1.63672 1.63672-2.84668-2.8457c-.27832-.2793-.64746-.43262-1.04199-.43262h-.00098c-.39355 0-.76465.15332-1.04297.43164l-1.81445 1.81445v-4.80664c0-.1377.1123-.25.25-.25zm11.28906 10.4961h-11.28906c-.1377 0-.25-.1123-.25-.25v-3.07098l2.83887-2.87238 3.37793 3.37695c.29297.29297.76758.29297 1.06055 0l2.13086-2.16699 2.38086 2.38086v2.35254c0 .1377-.1123.25-.25.25z"/><circle cx="13.13855" cy="9.18732" r="1.02313"/><path d="m20.28027 6.96094h1.5v10.07812h-1.5z"/><path d="m2.21973 6.96094h1.5v10.07812h-1.5z"/></svg>