<svg enable-background="new 0 0 120 120" viewBox="0 0 120 120" xmlns="http://www.w3.org/2000/svg"><path d="m0 0h120v120h-120z" fill="#1880b6"/><g stroke="#324249" stroke-linecap="round" stroke-linejoin="round" stroke-width="2"><path d="m40.3 33.6h42.1v52.6h-42.1z" fill="#8cdaf0"/><path d="m40.3 33.6v52.6" fill="none"/><path d="m29.8 83.6v-47.4c0-1.5 1.2-2.6 2.6-2.6h7.9v52.6h-7.9c-1.5 0-2.6-1.2-2.6-2.6z" fill="#f0eed5"/><path d="m40.3 75.7h-10.5m10.5-10.5h-10.5m10.5-10.6h-10.5m10.5-10.5h-10.5" fill="none"/><path d="m82.4 86.2v-52.6h7.9c1.5 0 2.6 1.2 2.6 2.6v47.3c0 1.5-1.2 2.6-2.6 2.6h-7.9z" fill="#f0eed5"/><path d="m92.9 75.7h-10.5m10.5-10.5h-10.5m10.5-10.6h-10.5m10.5-10.5h-10.5" fill="none"/><path d="m60.4 48.1c0 9.3-1.9 17.9-3.7 20-2.5 2.8-6.7-2.2-4.2-4.2 4.2-3.3 9.3 6.5 19.1 6.5" fill="none"/></g></svg>