<svg enable-background="new 0 0 120 120" viewBox="0 0 120 120" xmlns="http://www.w3.org/2000/svg"><path d="m.3 0h120v120h-120z" fill="#1880b6"/><g stroke="#324249" stroke-linecap="round" stroke-linejoin="round" stroke-width="2"><path d="m41.9 37h36.8v46h-36.8z" fill="#8cdaf0"/><path d="m41.9 37v46" fill="none"/><path d="m32.7 80.7v-41.4c0-1.3 1-2.3 2.3-2.3h6.9v46h-6.9c-1.3 0-2.3-1-2.3-2.3z" fill="#f0eed5"/><path d="m41.9 73.8h-9.2m9.2-9.2h-9.2m9.2-9.2h-9.2m9.2-9.2h-9.2" fill="none"/><path d="m78.7 83v-46h6.9c1.3 0 2.3 1 2.3 2.3v41.4c0 1.3-1 2.3-2.3 2.3z" fill="#f0eed5"/><path d="m87.9 73.8h-9.2m9.2-9.2h-9.2m9.2-9.2h-9.2m9.2-9.2h-9.2" fill="none"/><path d="m59.4 49.6c0 8.1-1.6 15.7-3.3 17.5-2.2 2.5-5.9-1.9-3.7-3.7 3.7-2.9 8.1 5.7 16.7 5.7" fill="none"/></g></svg>