<svg viewBox="0 0 24 24" xmlns="http://www.w3.org/2000/svg"><path d="m20.1709 3.88525h-16.3418c-.96484 0-1.75.78516-1.75 1.75v12.72998c0 .96484.78516 1.75 1.75 1.75h16.3418c.96484 0 1.75-.78516 1.75-1.75v-12.72998c0-.96484-.78516-1.75-1.75-1.75zm.25 10.98194h-2.09375v-2.12598h2.09375zm0-3.62598h-2.09375v-2.12549h2.09375zm0-5.60596v1.98047h-2.09375v-2.23047h1.84375c.1377 0 .25.1123.25.25zm-16.8418 3.48047h2.09375v2.12549h-2.09375zm0 3.62549h2.09375v2.12598h-2.09375zm.25-7.35596h1.84375v2.23047h-2.09375v-1.98047c0-.1377.1123-.25.25-.25zm-.25 12.97998v-1.99805h2.09375v2.24805h-1.84375c-.1377 0-.25-.1123-.25-.25zm3.59375.25v-13.22998h9.6543v13.22998zm12.99805 0h-1.84375v-2.24805h2.09375v1.99805c0 .1377-.1123.25-.25.25z"/><path d="m12.3916 8.84766h-1.5c0 1.42822-.16113 2.69971-.35645 3.62891-.52051-.17529-1.05957-.16748-1.5957.25244-.40137.3208-.5752.82471-.46484 1.34814.13379.6377.65527 1.19824 1.26758 1.36133.52539.13965 1.04102-.02051 1.42285-.44824.07227-.08398.1416-.18457.20703-.2998.86035.56641 1.98633 1.21191 3.43652 1.21191v-1.5c-1.17383 0-2.09375-.61426-2.90527-1.16113.32031-1.28613.48828-2.96582.48828-4.39355zm-2.32226 5.10644c-.02246-.01953-.0459-.04395-.06641-.06934.02832.00488.05859.0127.09277.02441-.00879.0166-.01758.03125-.02637.04492z"/></svg>