<svg enable-background="new 0 0 120 120" viewBox="0 0 120 120" xmlns="http://www.w3.org/2000/svg"><path d="m0 0h120v120h-120z" fill="#1880b6"/><g stroke="#324249" stroke-linecap="round" stroke-linejoin="round" stroke-width="2" transform="translate(5 5)"><path d="m31 28h48c1.7 0 3 1.3 3 3v48c0 1.7-1.3 3-3 3h-48c-1.7 0-3-1.3-3-3v-48c0-1.7 1.3-3 3-3z" fill="#f2f0da"/><path d="m40 54h18m-18 8h30m-30 8h22" fill="#f2f0da"/><g fill="#8ed9ef"><path d="m64 28h15c1.7 0 3 1.3 3 3v11h-18z"/><path d="m46 28h18v14h-18z"/></g></g></svg>