<?xml version="1.0" encoding="utf-8"?>
<!-- Generator: Adobe Illustrator 22.1.0, SVG Export Plug-In . SVG Version: 6.00 Build 0)  -->
<svg version="1.1" id="Layer_1" xmlns="http://www.w3.org/2000/svg" xmlns:xlink="http://www.w3.org/1999/xlink" x="0px" y="0px"
	 viewBox="0 0 120 120" style="enable-background:new 0 0 120 120;" xml:space="preserve">
<style type="text/css">
	.st0{fill:#1880B6;}
	.st1{fill:#F2F0DA;stroke:#324249;stroke-width:2;stroke-linecap:round;stroke-linejoin:round;}
	.st2{fill:#8ED9EF;stroke:#324249;stroke-width:2;stroke-linecap:round;stroke-linejoin:round;}
</style>
<rect id="Call_to_Action" class="st0" width="120" height="120"/>
<g transform="translate(5 5)">
	<path class="st1" d="M31,28h48c1.7,0,3,1.3,3,3v48c0,1.7-1.3,3-3,3H31c-1.7,0-3-1.3-3-3V31C28,29.3,29.3,28,31,28z"/>
	<path class="st1" d="M40,54h18 M40,62h30 M40,70h22"/>
	<path class="st2" d="M64,28h15c1.7,0,3,1.3,3,3v11H64V28z"/>
	<rect x="46" y="28" class="st2" width="18" height="14"/>
</g>
</svg>
