<svg viewBox="0 0 24 24" xmlns="http://www.w3.org/2000/svg"><path d="m19.07129 3.67871h-14.14258c-.96484 0-1.75.78516-1.75 1.75v13.14258c0 .96484.78516 1.75 1.75 1.75h14.14258c.96484 0 1.75-.78516 1.75-1.75v-13.14258c0-.96484-.78516-1.75-1.75-1.75zm.25 1.75v1.64453h-3.88086v-1.89453h3.63086c.1377 0 .25.1123.25.25zm-9.26172 1.64453v-1.18457c0-.24976-.05078-.4859-.1275-.70996h4.00836v1.89453zm9.01172 11.74805h-14.14258c-.1377 0-.25-.1123-.25-.25v-13.14258c0-.1377.1123-.25.25-.25h2.92041c.3916 0 .71045.31836.71045.70996v1.93457c0 .41406.33594.75.75.75h10.01172v9.99805c0 .1377-.1123.25-.25.25z"/><path d="m7.81982 10.94824h8.36035v1.5h-8.36035z"/><path d="m7.81982 14.50293h8.36035v1.5h-8.36035z"/></svg>