<svg fill="none" height="40" viewBox="0 0 40 40" width="40" xmlns="http://www.w3.org/2000/svg" xmlns:xlink="http://www.w3.org/1999/xlink"><clipPath id="a"><path d="m0 0h40v40h-40z"/></clipPath><g clip-path="url(#a)" fill="#009dff"><path d="m20 24c2.2091 0 4-1.7909 4-4s-1.7909-4-4-4-4 1.7909-4 4 1.7909 4 4 4z"/><path d="m37.3333 16h-3.2266c-.32-1.12-.7734-2.2133-1.36-3.2267l2.32-2.32c1.04-1.03997 1.04-2.74663 0-3.78663l-1.8934-1.89334c-1.04-1.04-2.7466-1.04-3.7866 0l-2.3734 2.37334c-.96-.50667-1.9733-.93334-3.0133-1.22667v-3.25333c0-1.46667-1.2-2.66667-2.6667-2.66667h-2.6666c-1.4667 0-2.6667 1.2-2.6667 2.66667v3.22666c-1.0933.29334-2.1333.74667-3.12 1.28l-2.4267-2.42666c-1.03997-1.04-2.74663-1.04-3.78663 0l-1.89334 1.89333c-1.04 1.04-1.04 2.74667 0 3.7867l2.42667 2.4266c-.56.9867-.98667 2.0267-1.28 3.12h-3.25333c-1.46667.0267-2.66667 1.2267-2.66667 2.6934v2.6666c0 1.4667 1.2 2.6667 2.66667 2.6667h3.22666c.29334 1.04.69334 2.0533 1.22667 3.0133l-2.37333 2.3734c-1.04 1.04-1.04 2.7466 0 3.7866l1.89333 1.8934c1.04 1.04 2.74667 1.04 3.7867 0l2.32-2.32c1.0133.5866 2.1066 1.04 3.2266 1.36v3.2266c0 1.4667 1.2 2.6667 2.6667 2.6667h2.6667c1.4666 0 2.6666-1.2 2.6666-2.6667v-3.2266c1.0934-.2934 2.1334-.7467 3.12-1.28l2.2667 2.2666c1.04 1.04 2.7467 1.04 3.7867 0l1.8933-1.8933c1.04-1.04 1.04-2.7467 0-3.7867l-2.2667-2.2666c.56-.9867.9867-2.0267 1.28-3.12h3.28c1.4667 0 2.6667-1.2 2.6667-2.6667v-2.6933c0-1.4667-1.2-2.6667-2.6667-2.6667zm-17.3333 12c-4.4267 0-8-3.5733-8-8s3.5733-8 8-8 8 3.5733 8 8-3.5733 8-8 8z"/></g></svg>