<svg enable-background="new 0 0 212.3 101.7" viewBox="0 0 212.3 101.7" xmlns="http://www.w3.org/2000/svg" xmlns:xlink="http://www.w3.org/1999/xlink"><clipPath id="a"><path d="m145 56.9c4.6 5.5 7.7 6.7 13.6-1.9 1.3-2 7.7-7.8 9.8-8.8.6-.3 9.9 5.2 9.9 5.3 1.1 1.4-14.1 2-15.8 3.6-6 5.7-4.5 11-14.5 11.9-12.6 1.2-16.2-7.7-19.4-10.8-2-1.2-4-2.3-6-3.5 1.7 10.8.2 22.1.2 33 0 7.6-27.5 3.5-27 1.8 9.7-29.1-32.4-37.3-22.6-.8-8.8 3.9-17.7 3.9-26.5 0-1.5-17.5-3.4-34.9 4.1-46.5-5.2-2.2-7.7-2.9-8.1 3.9-.1 1.3-.9 4.4-1.6 5.5-.2.3-2.2-1.2-2.1-1.2.1-.5 1.5-2 1.9-3.3 1.3-4.4-.9-6.6 3.7-9.8 4.9-3.4 8.6-1.6 11.1-.6 6.3-5.4 13.8-8.6 29-8.6-.5 9.1 11.4 30.9 28.6 34.1-14.3-7.1-21.4-20.3-22.7-27.6 0-.2-.1-.4-.1-.6-4.6-26.9 25.8-25.2 31.3-9 16.7-2.8 14.7 7.6 18.9 14.5 3.2 6.6 5.4 14.6 4.3 19.4"/></clipPath><linearGradient id="b" gradientTransform="matrix(-179.082 -103.3928 85.8686 -148.7292 -74733.3203 117016.5)" gradientUnits="userSpaceOnUse" x1="-30.7393" x2="-30.2793" y1="807.7318" y2="807.7318"><stop offset="0" stop-color="#e5e5e5"/><stop offset="1" stop-color="#fff"/></linearGradient><path d="m145 56.9c4.6 5.5 7.7 6.7 13.6-1.9 1.3-2 7.7-7.8 9.8-8.8.6-.3 9.9 5.2 9.9 5.3 1.1 1.4-14.1 2-15.8 3.6-6 5.7-4.5 11-14.5 11.9-12.6 1.2-16.2-7.7-19.4-10.8-2-1.2-4-2.3-6-3.5 1.7 10.8.2 22.1.2 33 0 7.6-27.5 3.5-27 1.8 9.7-29.1-32.4-37.3-22.6-.8-8.8 3.9-17.7 3.9-26.5 0-1.5-17.5-3.4-34.9 4.1-46.5-5.2-2.2-7.7-2.9-8.1 3.9-.1 1.3-.9 4.4-1.6 5.5-.2.3-2.2-1.2-2.1-1.2.1-.5 1.5-2 1.9-3.3 1.3-4.4-.9-6.6 3.7-9.8 4.9-3.4 8.6-1.6 11.1-.6 6.3-5.4 13.8-8.6 29-8.6-.5 9.1 11.4 30.9 28.6 34.1-14.3-7.1-21.4-20.3-22.7-27.6 0-.2-.1-.4-.1-.6-4.6-26.9 25.8-25.1 31.4-8.9 16.7-2.8 14.7 7.6 18.9 14.5 3.1 6.5 5.3 14.5 4.2 19.3z" style="fill:none;stroke:#4d4d4d;stroke-width:8.7434;stroke-linecap:round;stroke-linejoin:round;stroke-miterlimit:22.9256"/><path clip-path="url(#a)" d="m217.6 27.1-143.6-82.9-73.4 127 143.7 83z" fill="url(#b)"/><path clip-rule="evenodd" d="m131.3 32c1.2.3 2 1.3 1.8 2.2s-1.4 1.3-2.6 1-2-1.3-1.8-2.2 1.4-1.4 2.6-1" fill="#4d4d4d" fill-rule="evenodd"/></svg>