<?xml version="1.0" encoding="utf-8"?>
<!-- Generator: Adobe Illustrator 16.0.0, SVG Export Plug-In . SVG Version: 6.00 Build 0)  -->
<!DOCTYPE svg PUBLIC "-//W3C//DTD SVG 1.0//EN" "http://www.w3.org/TR/2001/REC-SVG-20010904/DTD/svg10.dtd">
<svg version="1.0" id="Layer_1" xmlns="http://www.w3.org/2000/svg" xmlns:xlink="http://www.w3.org/1999/xlink" x="0px" y="0px"
	 width="480px" height="240px" viewBox="0 0 480 240" enable-background="new 0 0 480 240" xml:space="preserve">
<rect id="Button" fill="#1880B6" width="480" height="240"/>
<g>
	<polygon fill="#F2F0DA" points="274.34,149.357 255.002,157.416 263.418,177.055 259.002,179.262 250.451,159.312 232,167 
		232,110.547 	"/>
	<path fill="#8ED9EF" d="M300,128c0,2.209-1.791,4-4,4h-34.676l-29.973-27.475c-0.584-0.533-1.432-0.682-2.156-0.355
		c-0.727,0.318-1.195,1.037-1.195,1.83v26h-44c-2.209,0-4-1.791-4-4V64c0-2.209,1.791-4,4-4h112c2.209,0,4,1.791,4,4V128z"/>
	<g>
		<path fill="#324249" d="M296.145,56H183.855c-4.34,0-7.855,3.516-7.855,7.855v64.289c0,4.34,3.516,7.855,7.855,7.855H228v34
			c0,0.668,0.334,1.293,0.891,1.664c0.334,0.223,0.721,0.336,1.109,0.336c0.26,0,0.521-0.051,0.77-0.154l17.566-7.318l7.826,18.26
			c0.217,0.508,0.633,0.902,1.15,1.092c0.223,0.08,0.455,0.121,0.688,0.121c0.307,0,0.613-0.07,0.895-0.211l8-4
			c0.947-0.475,1.361-1.604,0.943-2.576l-7.568-17.658l18.5-7.709c0.629-0.262,1.082-0.828,1.201-1.5
			c0.117-0.672-0.115-1.359-0.619-1.82L265.688,136h30.457c4.34,0,7.855-3.516,7.855-7.855V63.855C304,59.516,300.484,56,296.145,56
			z M274.34,149.357l-19.338,8.059l8.416,19.639l-4.416,2.207l-8.551-19.949L232,167v-56.453L274.34,149.357z M300,128
			c0,2.209-1.791,4-4,4h-34.676l-29.973-27.475c-0.584-0.533-1.432-0.682-2.156-0.355c-0.727,0.318-1.195,1.037-1.195,1.83v26h-44
			c-2.209,0-4-1.791-4-4V64c0-2.209,1.791-4,4-4h112c2.209,0,4,1.791,4,4V128z"/>
		<path fill="#324249" d="M230,72c-1.105,0-2,0.895-2,2v20c0,1.105,0.895,2,2,2s2-0.895,2-2V74C232,72.895,231.105,72,230,72z"/>
		<path fill="#324249" d="M218,104h-20c-1.105,0-2,0.895-2,2s0.895,2,2,2h20c1.105,0,2-0.895,2-2S219.105,104,218,104z"/>
		<path fill="#324249" d="M264,106c0-1.105-0.895-2-2-2h-20c-1.105,0-2,0.895-2,2s0.895,2,2,2h20C263.105,108,264,107.105,264,106z"
			/>
		<path fill="#324249" d="M207.414,80.586c-0.781-0.781-2.047-0.781-2.828,0s-0.781,2.047,0,2.828l14.143,14.143
			c0.781,0.781,2.047,0.781,2.828,0s0.781-2.047,0-2.828L207.414,80.586z"/>
		<path fill="#324249" d="M255.412,83.414c0.781-0.781,0.781-2.047,0-2.828s-2.047-0.781-2.828,0l-14.143,14.143
			c-0.781,0.781-0.781,2.047,0,2.828s2.047,0.781,2.828,0L255.412,83.414z"/>
	</g>
</g>
</svg>
