<?xml version="1.0" encoding="utf-8"?>
<!-- Generator: Adobe Illustrator 16.0.0, SVG Export Plug-In . SVG Version: 6.00 Build 0)  -->
<!DOCTYPE svg PUBLIC "-//W3C//DTD SVG 1.0//EN" "http://www.w3.org/TR/2001/REC-SVG-20010904/DTD/svg10.dtd">
<svg version="1.0" id="Layer_1" xmlns="http://www.w3.org/2000/svg" xmlns:xlink="http://www.w3.org/1999/xlink" x="0px" y="0px"
	 width="480px" height="240px" viewBox="0 0 480 240" enable-background="new 0 0 480 240" xml:space="preserve">
<rect id="Call_to_Action" x="-0.001" fill="#1880B6" width="480" height="240"/>
<g>
	<path fill="#F2F0DA" d="M204,60h72c2.211,0,4,1.791,4,4v46.186l-40,29.334l-40-29.334V64C200,61.791,201.789,60,204,60z"/>
	<g>
		<path fill="#8ED9EF" d="M298.176,96.307c-0.371-0.201-0.77-0.416-1.184-0.656c-0.148-0.084-5.57-3.107-12.992-7.238v18.84
			l14.602-10.707C298.453,96.463,298.359,96.404,298.176,96.307z"/>
		<path fill="#8ED9EF" d="M196,88.428c-7.426,4.123-12.852,7.139-13,7.225c-0.477,0.279-0.922,0.523-1.328,0.744
			c-0.117,0.062-0.172,0.096-0.27,0.15L196,107.252V88.428z"/>
		<path fill="#8ED9EF" d="M241.184,143.613c-0.355,0.258-0.77,0.387-1.184,0.387s-0.828-0.129-1.184-0.387L180,100.48V176
			c0,2.125,1.812,4,4,4h112c2.062,0,4-1.688,4-4v-75.52L241.184,143.613z"/>
		<rect x="220" y="88" fill="#8ED9EF" width="40" height="8"/>
		<polygon fill="#8ED9EF" points="255.707,128 260,124.852 260,120 220,120 220,124.852 224.293,128 		"/>
	</g>
	<g>
		<path fill="#324249" d="M216.586,140.586l-28,28c-0.781,0.781-0.781,2.047,0,2.828c0.391,0.391,0.902,0.586,1.414,0.586
			s1.023-0.195,1.414-0.586l28-28c0.781-0.781,0.781-2.047,0-2.828S217.367,139.805,216.586,140.586z"/>
		<path fill="#324249" d="M288.586,171.414c0.391,0.391,0.902,0.586,1.414,0.586s1.023-0.195,1.414-0.586
			c0.781-0.781,0.781-2.047,0-2.828L264,141.172c-0.781-0.781-2.047-0.781-2.828,0s-0.781,2.047,0,2.828L288.586,171.414z"/>
		<path fill="#324249" d="M300.074,92.785c-0.336-0.182-0.691-0.373-1.074-0.594c-0.648-0.379-6.922-3.896-15-8.42V63.855
			c0-4.34-3.516-7.855-7.855-7.855h-72.289c-4.34,0-7.855,3.516-7.855,7.855V83.75c-8.082,4.539-14.359,8.07-15.008,8.445
			c-0.445,0.262-0.859,0.484-1.23,0.686c-1.848,1.004-3.762,2.041-3.762,5.041V176c0,4.25,3.625,8,8,8h112c4.125,0,8-3.688,8-8
			V97.922C304,94.902,301.824,93.729,300.074,92.785z M284,88.412c7.422,4.131,12.844,7.154,12.992,7.238
			c0.414,0.24,0.812,0.455,1.184,0.656c0.184,0.098,0.277,0.156,0.426,0.238L284,107.252V88.412z M200,64c0-2.209,1.789-4,4-4h72
			c2.211,0,4,1.791,4,4v46.186l-16,11.734V116h-48v5.92l-16-11.734V64z M255.707,128h-31.414L220,124.852V120h40v4.852L255.707,128z
			 M250.254,132L240,139.52L229.746,132H250.254z M181.672,96.396c0.406-0.221,0.852-0.465,1.328-0.744
			c0.148-0.086,5.574-3.102,13-7.225v18.824l-14.598-10.705C181.5,96.492,181.555,96.459,181.672,96.396z M300,176
			c0,2.312-1.938,4-4,4H184c-2.188,0-4-1.875-4-4v-75.52l58.816,43.133c0.355,0.258,0.77,0.387,1.184,0.387s0.828-0.129,1.184-0.387
			L300,100.48V176z"/>
		<path fill="#324249" d="M264,84h-48v16h48V84z M260,96h-40v-8h40V96z"/>
	</g>
	<g opacity="0.2">
		<path d="M218,80h20c1.105,0,2-0.895,2-2s-0.895-2-2-2h-20c-1.105,0-2,0.895-2,2S216.895,80,218,80z"/>
		<path d="M238,108h-20c-1.105,0-2,0.895-2,2s0.895,2,2,2h20c1.105,0,2-0.895,2-2S239.105,108,238,108z"/>
	</g>
</g>
</svg>
