<?xml version="1.0" encoding="utf-8"?>
<!-- Generator: Adobe Illustrator 16.0.0, SVG Export Plug-In . SVG Version: 6.00 Build 0)  -->
<!DOCTYPE svg PUBLIC "-//W3C//DTD SVG 1.0//EN" "http://www.w3.org/TR/2001/REC-SVG-20010904/DTD/svg10.dtd">
<svg version="1.0" id="Layer_1" xmlns="http://www.w3.org/2000/svg" xmlns:xlink="http://www.w3.org/1999/xlink" x="0px" y="0px"
	 width="480px" height="240px" viewBox="0 0 480 240" enable-background="new 0 0 480 240" xml:space="preserve">
<rect id="Call_to_Action" x="-0.001" fill="#1880B6" width="480" height="240"/>
<g>
	<path fill="#324249" d="M271.999,96.203V60.467c0-2.266-1.375-4.375-4.321-4.375c-1.172,0-3.733,1.895-4.781,2.709
		c-1.406,1.088-17.796,15.707-25.53,21.199h-35.367c-0.258,0-26,0.297-26,26s25.742,26,26,26h10v48c0,2.209,1.789,4,4,4h12
		c2.211,0,4-1.791,4-4v-48h5.359l27.492,22.779c1.109,0.79,2.344,1.25,3.469,1.25c1.836,0,3.68-1.23,3.68-4v-36.233
		c4.562-0.928,8-4.969,8-9.797S276.562,97.131,271.999,96.203z M227.999,180h-12v-48h12V180z M235.999,128h-34
		c-0.898,0-22-0.25-22-22c0-21.672,21.109-21.996,22-22h34V128z M267.968,150.516c0,0.84-0.75,1.183-1.438,0.492l-26.531-22.037
		V83.033c4.117-2.918,24.491-20.076,26.179-21.537c0.868-0.748,1.821-0.529,1.821,0.846L267.968,150.516z M271.999,111.631v-11.262
		c2.328,0.829,4,3.028,4,5.631C275.999,108.604,274.327,110.803,271.999,111.631z"/>
	<path fill="#324249" d="M281.858,119.531c-0.414,0.359-2.297,1.969-1.234,3.406s2.429,0.74,3.484-0.082
		c4.391-3.418,7.891-9.752,7.891-16.855c0-7.009-2.812-12.625-7.43-16.455c-0.547-0.456-2.398-1.893-3.695-0.483
		c-1.25,1.359,0.648,3.111,0.812,3.26c3.75,3.303,6.312,7.926,6.312,13.678C287.999,111.65,285.562,116.312,281.858,119.531z"/>
	<path fill="#324249" d="M283.249,74.688c-0.469-0.192-2.195-1-2.945,0.812c-0.68,1.654,1.164,2.809,1.375,2.895
		c10.969,4.461,18.32,15.033,18.32,27.605c0,12.486-7.641,23.166-18.493,27.676c-0.241,0.099-1.952,0.949-1.202,2.949
		c0.633,1.676,2.336,0.949,2.867,0.725c12.234-5.146,20.828-17.242,20.828-31.35C303.999,91.779,295.647,79.76,283.249,74.688z"/>
</g>
<g>
	<path fill="#8ED9EF" d="M179.999,106c0,21.75,21.102,22,22,22h34V84h-34C201.108,84.004,179.999,84.328,179.999,106z"/>
	<path fill="#8ED9EF" d="M266.178,61.496c-1.688,1.461-22.062,18.619-26.179,21.537v45.938l26.531,22.037
		c0.688,0.691,1.438,0.348,1.438-0.492l0.031-88.174C267.999,60.967,267.046,60.748,266.178,61.496z"/>
</g>
<g>
	<rect x="215.999" y="132" fill="#F2F0DA" width="12" height="48"/>
	<path fill="#F2F0DA" d="M271.999,100.369v11.262c2.328-0.828,4-3.027,4-5.631C275.999,103.397,274.327,101.197,271.999,100.369z"/>
</g>
</svg>
