<?xml version="1.0" encoding="utf-8"?>
<!-- Generator: Adobe Illustrator 16.0.0, SVG Export Plug-In . SVG Version: 6.00 Build 0)  -->
<!DOCTYPE svg PUBLIC "-//W3C//DTD SVG 1.0//EN" "http://www.w3.org/TR/2001/REC-SVG-20010904/DTD/svg10.dtd">
<svg version="1.0" id="Layer_1" xmlns="http://www.w3.org/2000/svg" xmlns:xlink="http://www.w3.org/1999/xlink" x="0px" y="0px"
	 width="480px" height="240px" viewBox="0 0 480 240" enable-background="new 0 0 480 240" xml:space="preserve">
<rect id="Button_1_" fill="#1880B6" width="480" height="240"/>
<g>
	<path fill="#324249" d="M296,56H184c-4.417,0-8,3.583-8,8v112c0,4.417,3.583,8,8,8h112c4.417,0,8-3.583,8-8V64
		C304,59.583,300.417,56,296,56z M248,96C248,87.165,255.165,80,264,80C272.835,80,280,87.165,280,96c0,8.836-7.164,16-15.999,16
		h-16V96z M180,64c0-2.209,1.791-4,4-4h48v24.109C228.354,79.214,222.572,76,216,76c-11.045,0-20,8.955-20,20
		c0,6.573,3.214,12.354,8.109,16H180V64z M232,96v16h-16C207.165,112,200,104.835,200,96C200,87.165,207.165,80,216,80
		C224.835,80,232,87.165,232,96z M232,180h-48c-2.209,0-4-1.791-4-4v-48h24.109c-4.895,3.646-8.109,9.428-8.109,16
		c0,11.044,8.955,20,20,20c6.573,0,12.354-3.214,16-8.109V180z M232,144c0,8.835-7.165,16-16,16c-8.835,0-15.999-7.165-15.999-16
		c0-8.836,7.164-16,15.999-16h16V144z M300,176c0,2.209-1.791,4-4,4h-48v-24.109c3.646,4.895,9.428,8.109,16,8.109
		c11.045,0,20-8.955,20-20c0-6.573-3.214-12.354-8.109-16H300V176z M248,144v-16h16c8.835,0,15.999,7.165,15.999,16
		c0,8.835-7.164,16-15.999,16C255.165,160,248,152.835,248,144z M300,124h-56v56h-8v-56h-56v-8h56V60h8v56h56V124z M300,112h-24.109
		c4.895-3.646,8.109-9.428,8.109-16c0-11.045-8.955-20-20-20c-6.573,0-12.354,3.214-16,8.109V60h48c2.209,0,4,1.791,4,4V112z"/>
	<path fill="#324249" d="M276,96C276,89.373,270.627,84,264,84c-6.627,0-12,5.373-12,11.999v12h12C270.627,108,276,102.627,276,96z
		 M256,96c0-4.417,3.582-7.999,8-7.999C268.418,88,272,91.582,272,96c0,4.418-3.582,8-7.999,8h-8V96z"/>
	<path fill="#324249" d="M216,84C209.373,84,204,89.373,204,96c0,6.627,5.373,12,11.999,12h12V96C228,89.373,222.627,84,216,84z
		 M224,104h-8c-4.417,0-7.999-3.582-7.999-8C208,91.582,211.582,88,216,88c4.418,0,8,3.582,8,7.999V104z"/>
	<path fill="#324249" d="M204,144C204,150.627,209.373,156,216,156c6.627,0,12-5.373,12-11.999v-12h-12
		C209.373,132,204,137.373,204,144z M224,144c0,4.417-3.582,7.999-8,7.999C211.582,152,208,148.418,208,144c0-4.418,3.582-8,7.999-8
		h8V144z"/>
	<path fill="#324249" d="M264,156C270.627,156,276,150.627,276,144c0-6.627-5.373-12-11.999-12h-12v12
		C252,150.627,257.373,156,264,156z M256,136h8c4.417,0,7.999,3.582,7.999,8c0,4.417-3.582,7.999-7.999,7.999
		c-4.418,0-8-3.582-8-7.999V136z"/>
</g>
<g>
	<path fill="#8ED9EF" d="M180,64v48h24.109c-4.895-3.646-8.109-9.428-8.109-16c0-11.045,8.955-20,20-20
		c6.573,0,12.354,3.214,16,8.109V60h-48C181.791,60,180,61.791,180,64z"/>
	<path fill="#8ED9EF" d="M216,164c-11.045,0-20-8.955-20-20c0-6.573,3.214-12.354,8.109-16H180v48c0,2.209,1.791,4,4,4h48v-24.109
		C228.354,160.786,222.572,164,216,164z"/>
	<path fill="#8ED9EF" d="M284,144c0,11.044-8.955,20-20,20c-6.573,0-12.354-3.214-16-8.109V180h48c2.209,0,4-1.791,4-4v-48h-24.109
		C280.786,131.646,284,137.428,284,144z"/>
	<path fill="#8ED9EF" d="M296,60h-48v24.109c3.646-4.895,9.428-8.109,16-8.109c11.045,0,20,8.955,20,20
		c0,6.573-3.214,12.354-8.109,16H300V64C300,61.791,298.209,60,296,60z"/>
	<path fill="#8ED9EF" d="M272,96C272,91.582,268.418,88,264,88c-4.418,0-8,3.582-8,7.999v8h8C268.418,104,272,100.418,272,96z"/>
	<path fill="#8ED9EF" d="M216,104h8v-8c0-4.417-3.582-7.999-8-7.999C211.582,88,208,91.582,208,96C208,100.418,211.582,104,216,104z
		"/>
	<path fill="#8ED9EF" d="M216,152c4.418,0,8-3.582,8-7.999v-8h-8c-4.417,0-7.999,3.582-7.999,8C208,148.418,211.582,152,216,152z"/>
	<path fill="#8ED9EF" d="M256,144c0,4.417,3.582,7.999,8,7.999c4.417,0,7.999-3.582,7.999-7.999c0-4.418-3.582-8-7.999-8h-8V144z"/>
</g>
<g>
	<path fill="#F2F0DA" d="M280,96C280,87.165,272.835,80,264,80c-8.836,0-16,7.164-16,15.999v16h16C272.835,112,280,104.835,280,96z
		 M252,96C252,89.373,257.373,84,264,84C270.627,84,276,89.373,276,96c0,6.627-5.373,12-11.999,12h-12V96z"/>
	<path fill="#F2F0DA" d="M216,112h16V96C232,87.165,224.835,80,216,80C207.165,80,200,87.165,200,96
		C200,104.835,207.165,112,216,112z M216,84c6.627,0,12,5.373,12,11.999v12h-12C209.373,108,204,102.627,204,96
		C204,89.373,209.373,84,216,84z"/>
	<path fill="#F2F0DA" d="M200,144c0,8.835,7.164,16,15.999,16c8.836,0,16-7.165,16-16v-16h-16C207.165,128,200,135.165,200,144z
		 M228,144c0,6.626-5.373,11.999-12,11.999C209.373,156,204,150.627,204,144c0-6.627,5.373-12,11.999-12h12V144z"/>
	<path fill="#F2F0DA" d="M264,128h-16v16c0,8.835,7.165,16,16,16c8.835,0,15.999-7.165,15.999-16C280,135.165,272.835,128,264,128z
		 M264,156c-6.627,0-12-5.373-12-11.999v-12h12c6.626,0,11.999,5.373,11.999,12C276,150.627,270.627,156,264,156z"/>
	<polygon fill="#F2F0DA" points="244,116 244,60 236,60 236,116 180,116 180,124 236,124 236,180 244,180 244,124 300,124 300,116 	
		"/>
</g>
</svg>
