<?xml version="1.0" encoding="utf-8"?>
<!-- Generator: Adobe Illustrator 16.0.0, SVG Export Plug-In . SVG Version: 6.00 Build 0)  -->
<!DOCTYPE svg PUBLIC "-//W3C//DTD SVG 1.0//EN" "http://www.w3.org/TR/2001/REC-SVG-20010904/DTD/svg10.dtd">
<svg version="1.0" id="Layer_1" xmlns="http://www.w3.org/2000/svg" xmlns:xlink="http://www.w3.org/1999/xlink" x="0px" y="0px"
	 width="480px" height="240px" viewBox="0 0 480 240" enable-background="new 0 0 480 240" xml:space="preserve">
<rect id="Testimonials_2_" fill="#1880B6" width="480" height="240"/>
<g>
	<path fill="#8ED9EF" d="M296.125,168.25c0,2.142-1.733,3.875-3.875,3.875h-108.5c-2.142,0-3.875-1.733-3.875-3.875V59.75
		c0-2.142,1.733-3.875,3.875-3.875h108.5c2.142,0,3.875,1.733,3.875,3.875V168.25z"/>
	<g>
		<path fill="#324249" d="M292.391,52H183.609c-4.203,0-7.609,3.406-7.609,7.609v108.781c0,4.203,3.406,7.609,7.609,7.609h108.781
			c4.203,0,7.609-3.406,7.609-7.609V59.609C300,55.406,296.594,52,292.391,52z M296.125,168.25c0,2.142-1.733,3.875-3.875,3.875
			h-108.5c-2.142,0-3.875-1.733-3.875-3.875V59.75c0-2.142,1.733-3.875,3.875-3.875h108.5c2.142,0,3.875,1.733,3.875,3.875V168.25z"
			/>
		<path fill="#324249" d="M195.375,94.625h85.25v-15.5h-85.25V94.625z M199.25,83h77.5v7.75h-77.5V83z"/>
		<path fill="#324249" d="M195.375,129.5h85.25V114h-85.25V129.5z M199.25,117.875h77.5v7.75h-77.5V117.875z"/>
		<path fill="#324249" d="M230.25,156.625h50.375V137.25H230.25V156.625z M234.125,141.125h42.625v11.625h-42.625V141.125z"/>
	</g>
	<rect x="234.125" y="141.125" fill="#F2F0DA" width="42.625" height="11.625"/>
	<g opacity="0.2">
		<path d="M224.438,71.375h-27.125c-1.07,0-1.938,0.867-1.938,1.938s0.867,1.938,1.938,1.938h27.125c1.07,0,1.938-0.867,1.938-1.938
			S225.508,71.375,224.438,71.375z"/>
		<path d="M232.188,75.25h11.625c1.07,0,1.938-0.867,1.938-1.938s-0.867-1.938-1.938-1.938h-11.625c-1.07,0-1.938,0.867-1.938,1.938
			S231.117,75.25,232.188,75.25z"/>
		<path d="M267.062,145h-23.25c-1.07,0-1.938,0.867-1.938,1.938s0.867,1.938,1.938,1.938h23.25c1.07,0,1.938-0.867,1.938-1.938
			S268.133,145,267.062,145z"/>
		<path d="M224.438,106.25h-27.125c-1.07,0-1.938,0.867-1.938,1.938s0.867,1.938,1.938,1.938h27.125c1.07,0,1.938-0.867,1.938-1.938
			S225.508,106.25,224.438,106.25z"/>
		<path d="M243.812,106.25h-11.625c-1.07,0-1.938,0.867-1.938,1.938s0.867,1.938,1.938,1.938h11.625c1.07,0,1.938-0.867,1.938-1.938
			S244.883,106.25,243.812,106.25z"/>
	</g>
</g>
</svg>
