<?xml version="1.0" encoding="utf-8"?>
<!-- Generator: Adobe Illustrator 16.0.0, SVG Export Plug-In . SVG Version: 6.00 Build 0)  -->
<!DOCTYPE svg PUBLIC "-//W3C//DTD SVG 1.0//EN" "http://www.w3.org/TR/2001/REC-SVG-20010904/DTD/svg10.dtd">
<svg version="1.0" id="Layer_1" xmlns="http://www.w3.org/2000/svg" xmlns:xlink="http://www.w3.org/1999/xlink" x="0px" y="0px"
	 width="480px" height="240px" viewBox="0 0 480 240" enable-background="new 0 0 480 240" xml:space="preserve">
<rect id="Button_2_" fill="#1880B6" width="480" height="240"/>
<path fill="#8ED9EF" d="M300,140.676l-22.353-22.354c-3.127-3.126-8.187-3.126-11.313,0l-34.341,34.341l-14.303-14.3
	c-3.126-3.129-8.185-3.129-11.312,0L180,164.742V64c0-2.209,1.792-4,4-4H296c2.209,0,4,1.792,4,4V140.676z"/>
<g>
	<path fill="#324249" d="M296,56H184c-4.422,0-8.001,3.578-8.001,8v112c0,4.422,3.579,8,8.001,8H296c4.422,0,8.001-3.578,8.001-8V64
		C304,59.578,300.422,56,296,56z M300,176c0,2.21-1.792,4-4,4H184c-2.209,0-4-1.79-4-4v-5.602l29.205-29.203
		c1.562-1.562,4.094-1.562,5.657,0c0,0,12.395,12.395,14.3,14.297c1.906,1.906,3.76,1.902,5.658,0
		c1.898-1.898,34.342-34.34,34.342-34.34c1.563-1.563,4.094-1.563,5.656,0L300,146.335V176z M300,140.676l-22.353-22.354
		c-3.127-3.126-8.187-3.126-11.313,0l-34.341,34.341l-14.303-14.3c-3.126-3.129-8.185-3.129-11.312,0L180,164.742V64
		c0-2.209,1.792-4,4-4H296c2.209,0,4,1.792,4,4V140.676z"/>
	<path fill="#324249" d="M233.999,90h-5.997c-0.049,0-0.087,0.023-0.136,0.027c-0.362-2.938-1.519-5.625-3.252-7.848
		c0.035-0.032,0.082-0.043,0.118-0.078l4.242-4.243c0.783-0.781,0.781-2.047,0-2.829c-0.784-0.781-2.047-0.781-2.832,0l-4.241,4.241
		c-0.035,0.036-0.047,0.08-0.078,0.117c-2.223-1.734-4.908-2.892-7.848-3.253c0.004-0.045,0.028-0.088,0.028-0.135l0.001-6
		c0-1.105-0.899-2-2-2c-1.108,0.002-2.002,0.896-2.004,2.004V76c0,0.047,0.023,0.09,0.027,0.135
		c-2.939,0.362-5.627,1.52-7.849,3.251c-0.032-0.035-0.042-0.082-0.076-0.115l-4.243-4.242c-0.781-0.783-2.047-0.781-2.829,0
		c-0.781,0.783-0.783,2.047,0,2.83l4.242,4.243c0.033,0.033,0.081,0.044,0.116,0.076c-1.735,2.222-2.894,4.912-3.254,7.849
		C196.088,90.023,196.047,90,196,90h-6c-1.105,0-2,0.895-2,2c0,1.105,0.896,2,2,2h6c0.047,0,0.089-0.023,0.136-0.028
		c0.36,2.94,1.519,5.627,3.254,7.85c-0.038,0.031-0.083,0.043-0.118,0.078l-4.242,4.241c-0.783,0.783-0.783,2.05,0,2.828
		c0.783,0.785,2.045,0.781,2.832,0.003l4.241-4.241c0.035-0.036,0.046-0.083,0.078-0.118c2.223,1.733,4.908,2.89,7.848,3.252
		c-0.004,0.049-0.027,0.088-0.027,0.139L209.999,114c0,1.107,0.896,2.003,2,2c1.106,0,2-0.895,2.005-2l-0.001-5.996
		c0-0.051-0.024-0.09-0.028-0.139c2.937-0.362,5.625-1.519,7.848-3.254c0.031,0.037,0.043,0.083,0.078,0.12l4.241,4.241
		c0.783,0.786,2.051,0.782,2.827,0c0.783-0.783,0.781-2.046,0.002-2.831l-4.239-4.241c-0.036-0.035-0.083-0.047-0.12-0.078
		c1.735-2.223,2.892-4.91,3.254-7.848c0.049,0.004,0.087,0.028,0.136,0.028L234,94.004c1.107,0,2.001-0.896,1.999-2
		C236,90.896,235.105,90.004,233.999,90z M212,104c-6.627,0-12-5.373-12-12s5.373-12,12-12c6.626,0,12,5.373,12,12
		S218.626,104,212,104z"/>
</g>
<g>
	<path fill="#F2F0DA" d="M274.818,121.152c-1.562-1.563-4.093-1.563-5.656,0c0,0-32.443,32.441-34.342,34.34
		c-1.898,1.902-3.752,1.906-5.658,0c-1.906-1.902-14.3-14.297-14.3-14.297c-1.562-1.562-4.095-1.562-5.657,0L180,170.398V176
		c0,2.21,1.792,4,4,4H296c2.209,0,4-1.79,4-4v-29.665L274.818,121.152z"/>
	<circle fill="#F2F0DA" cx="212" cy="92" r="12"/>
</g>
</svg>
