<?xml version="1.0" encoding="utf-8"?>
<!-- Generator: Adobe Illustrator 16.0.0, SVG Export Plug-In . SVG Version: 6.00 Build 0)  -->
<!DOCTYPE svg PUBLIC "-//W3C//DTD SVG 1.0//EN" "http://www.w3.org/TR/2001/REC-SVG-20010904/DTD/svg10.dtd">
<svg version="1.0" id="Layer_1" xmlns="http://www.w3.org/2000/svg" xmlns:xlink="http://www.w3.org/1999/xlink" x="0px" y="0px"
	 width="480px" height="240px" viewBox="0 0 480 240" enable-background="new 0 0 480 240" xml:space="preserve">
<rect id="Button" fill="#1880B6" width="480" height="240"/>
<g>
	<path fill="#8ED9EF" d="M224.018,129.992V62.924l-43.447,43.473c-0.766,0.768-0.746,1.989,0.047,2.782l70.209,70.243
		c0.75,0.752,2.083,0.74,2.838-0.016l43.391-43.412h-67.039C226.71,135.993,224.018,133.301,224.018,129.992z"/>
	<path fill="#8ED9EF" d="M230.018,131.992h69.963c0.006-0.711-0.191-1.444-0.616-1.868l-70.273-69.434
		c-0.332-0.333-0.704-0.516-1.073-0.624v69.924C228.019,131.189,229.053,131.992,230.018,131.992z"/>
</g>
<g>
	<path fill="#324249" d="M178.035,164h27.993c1.106,0,2-0.895,2-2c0-1.106-0.895-2-2-2h-27.993c-1.105,0-2,0.895-2,2
		C176.035,163.104,176.93,164,178.035,164z"/>
	<path fill="#324249" d="M218.031,172.001h-39.996c-1.105,0-2,0.895-2,2c0,1.106,0.895,2,2,2h39.996c1.105,0,2-0.895,2-2
		C220.031,172.896,219.136,172.001,218.031,172.001z"/>
	<path fill="#324249" d="M178.035,151.997h16c1.106,0,2-0.895,2-2c0-1.105-0.895-2-2-2h-16c-1.105,0-2,0.895-2,2
		C176.035,151.102,176.93,151.997,178.035,151.997z"/>
	<path fill="#324249" d="M302.188,127.288l-70.276-69.434c-2.342-2.346-6.013-2.475-8.219-0.266l-45.952,45.979
		c-2.315,2.313-2.293,6.099,0.047,8.439l70.207,70.243c1.129,1.129,2.634,1.75,4.235,1.75c1.614,0,3.128-0.627,4.265-1.766
		l45.8-45.823C304.609,134.092,304.562,129.664,302.188,127.288z M253.666,179.405c-0.756,0.756-2.088,0.768-2.838,0.016
		l-70.209-70.243c-0.793-0.793-0.812-2.014-0.047-2.782l43.447-43.473v67.068c0,3.309,2.692,6.001,6,6.001h67.039L253.666,179.405z
		 M230.018,131.992c-0.965,0-1.999-0.803-1.999-2V60.067c0.369,0.107,0.741,0.291,1.073,0.624l70.273,69.434
		c0.424,0.424,0.622,1.157,0.616,1.868H230.018z"/>
	<path fill="#324249" d="M250.017,172.001c1.105,0,2-0.895,2-2v-28.007c0-1.105-0.895-2-2-2c-1.106,0-2,0.895-2,2v28.007
		C248.016,171.106,248.911,172.001,250.017,172.001z"/>
	<path fill="#324249" d="M218.025,103.986h-27.999c-1.106,0-2,0.895-2,2c0,1.105,0.895,2,2,2h27.999c1.105,0,2-0.895,2-2
		C220.025,104.88,219.13,103.986,218.025,103.986z"/>
	<path fill="#324249" d="M263.99,112.022c-4.419,0-8.002,3.583-8.002,8.002s3.583,8.002,8.002,8.002s8.002-3.583,8.002-8.002
		S268.409,112.022,263.99,112.022z M263.99,124.025c-2.209,0-4.001-1.792-4.001-4.001s1.792-4.001,4.001-4.001
		s4.001,1.792,4.001,4.001S266.2,124.025,263.99,124.025z"/>
	<path fill="#324249" d="M245.658,96.505c1.025,0.006,2.961,0.322,3.782,1.145c0.823,0.82,1.139,2.754,1.145,3.774
		c0,0.439,0.064,4.356,2.317,6.605c2.249,2.252,6.166,2.317,6.605,2.317c1.102,0,1.993-0.891,1.997-1.995
		c0.004-1.102-0.889-1.999-1.991-2.006c-1.025-0.006-2.962-0.322-3.782-1.145c-0.822-0.82-1.139-2.756-1.145-3.776
		c0-0.44-0.064-4.354-2.317-6.604c-2.248-2.252-6.165-2.317-6.604-2.317c-1.102,0-1.993,0.891-1.997,1.995
		C243.663,95.601,244.556,96.498,245.658,96.505z"/>
	<path fill="#324249" d="M254.322,111.536c-1.026-0.006-2.962-0.322-3.782-1.145c-0.821-0.823-1.139-2.757-1.145-3.776
		c0-0.439-0.064-4.353-2.317-6.605c-2.25-2.25-6.164-2.315-6.603-2.315c-1.102,0-1.993,0.891-1.997,1.995
		c-0.004,1.102,0.889,1.999,1.991,2.006c1.026,0.006,2.959,0.322,3.78,1.143c0.82,0.823,1.139,2.757,1.145,3.776
		c0,0.439,0.064,4.353,2.317,6.605c2.249,2.252,6.166,2.317,6.605,2.317c1.102,0,1.992-0.891,1.996-1.995
		C256.316,112.441,255.424,111.544,254.322,111.536z"/>
</g>
<circle fill="#F2F0DA" cx="263.99" cy="120.024" r="4.001"/>
</svg>
