<?xml version="1.0" encoding="utf-8"?>
<!-- Generator: Adobe Illustrator 16.0.0, SVG Export Plug-In . SVG Version: 6.00 Build 0)  -->
<!DOCTYPE svg PUBLIC "-//W3C//DTD SVG 1.0//EN" "http://www.w3.org/TR/2001/REC-SVG-20010904/DTD/svg10.dtd">
<svg version="1.0" id="Layer_1" xmlns="http://www.w3.org/2000/svg" xmlns:xlink="http://www.w3.org/1999/xlink" x="0px" y="0px"
	 width="480px" height="240px" viewBox="0 0 480 240" enable-background="new 0 0 480 240" xml:space="preserve">
<rect id="Call_to_Action_1_" fill="#1880B6" width="480" height="240"/>
<g>
	<circle fill="#8ED9EF" cx="240" cy="120" r="44"/>
	<path fill="#F2F0DA" d="M240,60c-33.137,0-60,26.863-60,60s26.863,60,60,60s60-26.863,60-60S273.137,60,240,60z M240,168
		c-26.508,0-48-21.49-48-48s21.492-48,48-48s48,21.49,48,48S266.508,168,240,168z"/>
	<path fill="#1880B6" d="M240,168v12c33.137,0,60-26.863,60-60h-12C288,146.51,266.508,168,240,168z"/>
	<g>
		<path fill="#324249" d="M242,116c1.105,0,2-0.895,2-2s-0.895-2-2-2h-8c-1.105,0-2,0.895-2,2v8c0,1.105,0.895,2,2,2h6v4h-6
			c-1.105,0-2,0.895-2,2s0.895,2,2,2h8c1.105,0,2-0.895,2-2v-8c0-1.105-0.895-2-2-2h-6v-4H242z"/>
		<path fill="#324249" d="M262.895,112.211c-0.988-0.486-2.184-0.096-2.684,0.895l-8,16c-0.492,0.988-0.094,2.189,0.895,2.684
			c0.289,0.143,0.594,0.211,0.895,0.211c0.73,0,1.438-0.404,1.789-1.105l8-16C264.281,113.906,263.883,112.705,262.895,112.211z"/>
		<circle fill="#324249" cx="264" cy="128" r="4"/>
		<circle fill="#324249" cx="252" cy="116" r="4"/>
		<path fill="#324249" d="M240,56c-35.348,0-64,28.654-64,64s28.652,64,64,64s64-28.654,64-64S275.348,56,240,56z M237.996,179.898
			C205.797,178.832,180,152.461,180,120c0-33.137,26.863-60,60-60c32.461,0,58.836,25.797,59.898,58h-12
			C286.844,92.426,265.832,72,240,72c-26.508,0-48,21.49-48,48c0,25.834,20.426,46.842,46,47.898L237.996,179.898z M284,120
			c0,24.301-19.699,44-44,44s-44-19.699-44-44s19.699-44,44-44S284,95.699,284,120z M240,180c-0.027,0-0.051-0.004-0.078-0.004
			h0.156C240.051,179.996,240.027,180,240,180z M242,179.898l-0.008-12c2.902-0.119,5.738-0.469,8.484-1.08l3.098,11.582
			C249.836,179.266,245.969,179.768,242,179.898z M257.453,177.402l-3.113-11.586c2.754-0.859,5.383-1.982,7.898-3.301l6.012,10.412
			C264.832,174.754,261.223,176.258,257.453,177.402z M271.688,170.883l-6-10.383c2.418-1.535,4.676-3.283,6.773-5.213l8.484,8.484
			C278.102,166.432,275.008,168.811,271.688,170.883z M283.773,160.943l-8.488-8.482c1.93-2.098,3.676-4.355,5.215-6.77
			l10.383,5.994C288.812,155.004,286.434,158.1,283.773,160.943z M292.93,148.246l-10.414-6.008
			c1.316-2.512,2.438-5.143,3.301-7.893l11.586,3.105C296.258,141.221,294.754,144.832,292.93,148.246z M298.398,133.578
			l-11.582-3.102c0.613-2.744,0.961-5.578,1.082-8.477h12C299.77,125.971,299.266,129.84,298.398,133.578z"/>
		<path fill="#324249" d="M227.855,113.275c-0.051-0.131-0.137-0.236-0.211-0.35c-0.066-0.1-0.117-0.207-0.199-0.295
			c-0.117-0.125-0.266-0.213-0.414-0.305c-0.07-0.041-0.113-0.104-0.188-0.137c-0.008-0.004-0.016-0.002-0.027-0.006
			c-0.137-0.062-0.289-0.078-0.441-0.107c-0.113-0.023-0.227-0.066-0.34-0.068c-0.012,0-0.023-0.008-0.035-0.008h-8
			c-1.105,0-2,0.895-2,2s0.895,2,2,2h4.871l-6.012,12.996c-0.469,1-0.109,2.223,0.891,2.691c1.004,0.469,2.137,0.1,2.605-0.904
			l7.457-15.938c0.004-0.012,0.004-0.023,0.008-0.033c0.055-0.123,0.066-0.262,0.098-0.396c0.027-0.127,0.074-0.252,0.074-0.379
			c0-0.014,0.008-0.023,0.008-0.037c0-0.107-0.043-0.199-0.062-0.303C227.918,113.555,227.906,113.41,227.855,113.275z"/>
	</g>
</g>
</svg>
