<?xml version="1.0" encoding="utf-8"?>
<!-- Generator: Adobe Illustrator 16.0.0, SVG Export Plug-In . SVG Version: 6.00 Build 0)  -->
<!DOCTYPE svg PUBLIC "-//W3C//DTD SVG 1.0//EN" "http://www.w3.org/TR/2001/REC-SVG-20010904/DTD/svg10.dtd">
<svg version="1.0" id="Layer_1" xmlns="http://www.w3.org/2000/svg" xmlns:xlink="http://www.w3.org/1999/xlink" x="0px" y="0px"
	 width="480px" height="240px" viewBox="0 0 480 240" enable-background="new 0 0 480 240" xml:space="preserve">
<rect id="Price_Table_1_" y="0.001" fill="#1880B6" width="480" height="240"/>
<g>
	<path fill="#8ED9EF" d="M300,168c0,6-6.125,12-12,12h-96c-5.625,0-12-6.25-12-16v-56c0-1.75,1.875-4,4-4h12v52c0,2.211-1.791,4-4,4
		c-1.105,0-2,0.895-2,2s0.895,2,2,2c4.418,0,8-3.582,8-8V64c0-1.625,2.062-4,4-4h91.977C298,60,300,61.875,300,64V168z"/>
	<g opacity="0.2">
		<path d="M242,100h24c1.105,0,2-0.895,2-2s-0.895-2-2-2h-24c-1.105,0-2,0.895-2,2S240.895,100,242,100z"/>
		<path d="M246,88h8c1.105,0,2-0.895,2-2s-0.895-2-2-2h-8c-1.105,0-2,0.895-2,2S244.895,88,246,88z"/>
		<path d="M262,88h20c1.105,0,2-0.895,2-2s-0.895-2-2-2h-20c-1.105,0-2,0.895-2,2S260.895,88,262,88z"/>
		<path d="M242,128h24c1.105,0,2-0.895,2-2s-0.895-2-2-2h-24c-1.105,0-2,0.895-2,2S240.895,128,242,128z"/>
		<path d="M242,116h12c1.105,0,2-0.895,2-2s-0.895-2-2-2h-12c-1.105,0-2,0.895-2,2S240.895,116,242,116z"/>
		<path d="M282,112h-20c-1.105,0-2,0.895-2,2s0.895,2,2,2h20c1.105,0,2-0.895,2-2S283.105,112,282,112z"/>
		<path d="M266,152h-24c-1.105,0-2,0.895-2,2s0.895,2,2,2h24c1.105,0,2-0.895,2-2S267.105,152,266,152z"/>
		<path d="M246,144h8c1.105,0,2-0.895,2-2s-0.895-2-2-2h-8c-1.105,0-2,0.895-2,2S244.895,144,246,144z"/>
		<path d="M282,140h-20c-1.105,0-2,0.895-2,2s0.895,2,2,2h20c1.105,0,2-0.895,2-2S283.105,140,282,140z"/>
	</g>
	<g>
		<path fill="#324249" d="M296,56h-92c-4.402,0-8,3.875-8,7.977V100h-12c-4.25,0-8,4.125-8,7.977V164c0,12,7.688,20,16,20h96
			c8.125,0,16-8,16-16V64C304,59.598,300.312,56,296,56z M300,168c0,6-6.125,12-12,12h-96c-5.625,0-12-6.25-12-16v-56
			c0-1.75,1.875-4,4-4h12v52c0,2.211-1.791,4-4,4c-1.105,0-2,0.895-2,2s0.895,2,2,2c4.418,0,8-3.582,8-8V64c0-1.625,2.062-4,4-4
			h91.977C298,60,300,61.875,300,64V168z"/>
		<path fill="#324249" d="M220,128h8c2.209,0,4-1.789,4-4v-8c0-2.211-1.791-4-4-4h-8c-2.209,0-4,1.789-4,4v8
			C216,126.211,217.791,128,220,128z M220,116h8v8h-8V116z"/>
		<path fill="#324249" d="M233.557,140.586l-9.898,9.898l-4.242-4.242c-0.783-0.781-2.047-0.781-2.83,0
			c-0.781,0.781-0.781,2.047,0,2.828l5.658,5.656c0.781,0.781,2.047,0.781,2.828,0l11.314-11.312c0.781-0.781,0.781-2.047,0-2.828
			C235.604,139.805,234.34,139.805,233.557,140.586z"/>
		<path fill="#324249" d="M233.557,84.586l-9.898,9.898l-4.242-4.242c-0.783-0.781-2.047-0.781-2.83,0
			c-0.781,0.781-0.781,2.047,0,2.828l5.658,5.656c0.781,0.781,2.047,0.781,2.828,0l11.314-11.312c0.781-0.781,0.781-2.047,0-2.828
			C235.604,83.805,234.34,83.805,233.557,84.586z"/>
	</g>
	<rect x="220" y="116" fill="#F2F0DA" width="8" height="8"/>
</g>
</svg>
