<?xml version="1.0" encoding="utf-8"?>
<!-- Generator: Adobe Illustrator 16.0.0, SVG Export Plug-In . SVG Version: 6.00 Build 0)  -->
<!DOCTYPE svg PUBLIC "-//W3C//DTD SVG 1.0//EN" "http://www.w3.org/TR/2001/REC-SVG-20010904/DTD/svg10.dtd">
<svg version="1.0" id="Layer_1" xmlns="http://www.w3.org/2000/svg" xmlns:xlink="http://www.w3.org/1999/xlink" x="0px" y="0px"
	 width="480px" height="240px" viewBox="0 0 480 240" enable-background="new 0 0 480 240" xml:space="preserve">
<rect id="Image_Slider_1_" y="0.001" fill="#1880B6" width="480" height="240"/>
<g>
	<g>
		<path fill="#F2F0DA" d="M281.982,53.004h-84.069c-1.106,0-2.001,0.895-2.001,2.001s0.895,2.002,2.001,2.002h84.069
			c1.105,0,2.001-0.896,2.001-2.002S283.088,53.004,281.982,53.004z"/>
		<path fill="#F2F0DA" d="M220.076,170.209c-0.414,1.027,0.082,2.189,1.106,2.607c1.028,0.414,2.192-0.082,2.607-1.106l3.519-10.618
			h-4.316L220.076,170.209z"/>
		<path fill="#F2F0DA" d="M256.903,161.092h-4.32l3.522,10.618c0.414,1.024,1.579,1.517,2.604,1.103s1.521-1.58,1.106-2.604
			L256.903,161.092z"/>
	</g>
	<path fill="#8ED9EF" d="M299.997,153.085c0,2.213-1.791,4.004-4.003,4.004H183.902c-2.213,0-4.004-1.791-4.004-4.004V61.01
		c0-2.213,1.791-4.003,4.004-4.003h8.373c0.829,2.326,3.026,4.003,5.638,4.003h84.069c2.611,0,4.809-1.677,5.637-4.003h8.375
		c2.212,0,4.003,1.79,4.003,4.003V153.085z"/>
	<g>
		<rect x="247.954" y="73.02" fill="#F2F0DA" width="36.029" height="28.023"/>
		<rect x="195.912" y="73.02" fill="#F2F0DA" width="36.029" height="28.023"/>
		<rect x="247.954" y="117.056" fill="#F2F0DA" width="36.029" height="28.022"/>
		<rect x="195.912" y="117.056" fill="#F2F0DA" width="36.029" height="28.022"/>
	</g>
	<g>
		<path fill="#324249" d="M296.139,53.004h-8.52c-0.828-2.326-3.025-4.004-5.637-4.004h-84.069c-2.611,0-4.809,1.678-5.638,4.004
			h-8.519c-4.343,0-7.861,3.518-7.861,7.861v92.365c0,4.343,3.519,7.861,7.861,7.861h34.915l-2.306,7.619
			c-1.243,3.073,0.242,6.572,3.319,7.815c3.072,1.239,6.575-0.246,7.814-3.319l4.129-12.115h16.639l4.124,12.115
			c1.243,3.073,4.746,4.562,7.819,3.319c3.072-1.243,4.558-4.746,3.318-7.819l-2.311-7.615h34.92c4.343,0,7.861-3.519,7.861-7.861
			V60.865C304,56.521,300.481,53.004,296.139,53.004z M197.913,53.004h84.069c1.105,0,2.001,0.895,2.001,2.001
			s-0.896,2.002-2.001,2.002h-84.069c-1.106,0-2.001-0.896-2.001-2.002S196.807,53.004,197.913,53.004z M223.79,171.71
			c-0.415,1.024-1.579,1.521-2.607,1.106c-1.024-0.418-1.521-1.58-1.106-2.607l2.916-9.117h4.316L223.79,171.71z M258.709,172.812
			c-1.024,0.414-2.189-0.078-2.604-1.103l-3.522-10.618h4.32l2.912,9.117C260.23,171.232,259.733,172.398,258.709,172.812z
			 M299.997,153.085c0,2.213-1.791,4.004-4.003,4.004H183.902c-2.213,0-4.004-1.791-4.004-4.004V61.01
			c0-2.213,1.791-4.003,4.004-4.003h8.373c0.829,2.326,3.026,4.003,5.638,4.003h84.069c2.611,0,4.809-1.677,5.637-4.003h8.375
			c2.212,0,4.003,1.79,4.003,4.003V153.085z"/>
		<path fill="#324249" d="M191.908,105.046h44.036V69.017h-44.036V105.046z M195.912,73.02h36.029v28.023h-36.029V73.02z"/>
		<path fill="#324249" d="M243.951,105.046h44.036V69.017h-44.036V105.046z M247.954,73.02h36.029v28.023h-36.029V73.02z"/>
		<path fill="#324249" d="M191.908,149.082h44.036v-36.029h-44.036V149.082z M195.912,117.056h36.029v28.022h-36.029V117.056z"/>
		<path fill="#324249" d="M243.951,149.082h44.036v-36.029h-44.036V149.082z M247.954,117.056h36.029v28.022h-36.029V117.056z"/>
	</g>
	<g opacity="0.2">
		<path d="M205.92,85.029h8.006c1.107,0,2.002-0.895,2.002-2.002c0-1.105-0.895-2.001-2.002-2.001h-8.006
			c-1.106,0-2.002,0.896-2.002,2.001C203.918,84.135,204.813,85.029,205.92,85.029z"/>
		<path d="M221.933,89.033H205.92c-1.106,0-2.002,0.895-2.002,2.001s0.896,2.002,2.002,2.002h16.013
			c1.106,0,2.002-0.896,2.002-2.002S223.039,89.033,221.933,89.033z"/>
		<path d="M257.963,85.029h8.006c1.106,0,2.002-0.895,2.002-2.002c0-1.105-0.896-2.001-2.002-2.001h-8.006
			c-1.107,0-2.002,0.896-2.002,2.001C255.961,84.135,256.855,85.029,257.963,85.029z"/>
		<path d="M257.963,93.036h16.013c1.106,0,2.001-0.896,2.001-2.002s-0.895-2.001-2.001-2.001h-16.013
			c-1.107,0-2.002,0.895-2.002,2.001S256.855,93.036,257.963,93.036z"/>
		<path d="M205.92,129.065h8.006c1.107,0,2.002-0.896,2.002-2.001c0-1.107-0.895-2.002-2.002-2.002h-8.006
			c-1.106,0-2.002,0.895-2.002,2.002C203.918,128.17,204.813,129.065,205.92,129.065z"/>
		<path d="M221.933,133.068H205.92c-1.106,0-2.002,0.896-2.002,2.002s0.896,2.002,2.002,2.002h16.013
			c1.106,0,2.002-0.896,2.002-2.002S223.039,133.068,221.933,133.068z"/>
		<path d="M257.963,129.065h8.006c1.106,0,2.002-0.896,2.002-2.001c0-1.107-0.896-2.002-2.002-2.002h-8.006
			c-1.107,0-2.002,0.895-2.002,2.002C255.961,128.17,256.855,129.065,257.963,129.065z"/>
		<path d="M273.976,133.068h-16.013c-1.107,0-2.002,0.896-2.002,2.002s0.895,2.002,2.002,2.002h16.013
			c1.106,0,2.001-0.896,2.001-2.002S275.082,133.068,273.976,133.068z"/>
	</g>
</g>
</svg>
