<?xml version="1.0" encoding="utf-8"?>
<!-- Generator: Adobe Illustrator 16.0.0, SVG Export Plug-In . SVG Version: 6.00 Build 0)  -->
<!DOCTYPE svg PUBLIC "-//W3C//DTD SVG 1.0//EN" "http://www.w3.org/TR/2001/REC-SVG-20010904/DTD/svg10.dtd">
<svg version="1.0" id="Layer_1" xmlns="http://www.w3.org/2000/svg" xmlns:xlink="http://www.w3.org/1999/xlink" x="0px" y="0px"
	 width="480px" height="240px" viewBox="0 0 480 240" enable-background="new 0 0 480 240" xml:space="preserve">
<rect id="Image_Slider_1_" y="0.001" fill="#1880B6" width="480" height="240"/>
<g>
	<g>
		<path fill="#8ED9EF" d="M284,72.001h-88c-2.211,0-4,1.789-4,4v72.743l22.375-22.383c3.129-3.126,8.188-3.126,11.312,0
			l10.305,10.304l22.344-30.343c3.125-3.126,8.184-3.126,11.312,0L288,124.674V76.001C288,73.79,286.211,72.001,284,72.001z"/>
		<path fill="#8ED9EF" d="M180,84.002v72c0,2.21,1.788,4,4,4h4.001V80.001H184C181.788,80.001,180,81.79,180,84.002z"/>
		<path fill="#8ED9EF" d="M296,79.993h-4.001v80.001H296c2.211,0,4-1.79,4-4.001V83.994C300,81.783,298.211,79.993,296,79.993z"/>
	</g>
	<g>
		<path fill="#324249" d="M296,75.993h-4.001v0.008c0-4.421-3.577-7.999-7.999-7.999h-88c-4.422,0-7.999,3.578-7.999,7.999H184
			c-4.422,0-8,3.578-8,8.001v72c0,4.422,3.578,7.999,8,7.999h4.001c0,4.423,3.577,8.001,7.999,8.001h88
			c4.422,0,7.999-3.578,7.999-8.001v-0.007H296c4.422,0,8-3.579,8-8.001V83.994C304,79.571,300.422,75.993,296,75.993z
			 M188.001,160.002H184c-2.212,0-4-1.79-4-4v-72c0-2.212,1.788-4.001,4-4.001h4.001V160.002z M288,164.001c0,2.212-1.789,4-4,4h-88
			c-2.211,0-4-1.788-4-4v-9.602l25.203-25.203c1.562-1.562,4.094-1.562,5.655,0c0,0,8.399,8.391,10.306,10.298
			c1.906,1.905,3.757,1.897,5.656,0c1.898-1.899,22.344-30.344,22.344-30.344c1.562-1.563,4.094-1.563,5.656,0L288,130.337V164.001z
			 M288,124.674l-18.352-18.352c-3.129-3.126-8.188-3.126-11.312,0l-22.344,30.343l-10.305-10.304
			c-3.125-3.126-8.184-3.126-11.312,0L192,148.744V76.001c0-2.211,1.789-4,4-4h88c2.211,0,4,1.789,4,4V124.674z M300,155.993
			c0,2.211-1.789,4.001-4,4.001h-4.001V79.993H296c2.211,0,4,1.79,4,4.001V155.993z"/>
		<path fill="#324249" d="M234.008,96.001h-6.203c-0.259-1.272-0.766-2.461-1.461-3.507l4.391-4.391
			c0.785-0.782,0.785-2.047,0-2.829c-0.78-0.781-2.047-0.781-2.828,0l-4.391,4.391c-1.051-0.695-2.233-1.203-3.508-1.461v-6.202
			c0-1.109-0.895-2.001-2-2.001c-1.109,0-2.004,0.892-2.004,2.001v6.202c-1.273,0.258-2.456,0.766-3.508,1.461l-4.391-4.398
			c-0.781-0.773-2.043-0.773-2.832,0c-0.777,0.79-0.777,2.055,0.004,2.837l4.391,4.391c-0.695,1.046-1.203,2.227-1.461,3.507h-6.203
			c-1.105,0-1.996,0.892-2.004,2.001c0.008,1.109,0.902,2,2.004,2h6.203c0.258,1.272,0.766,2.461,1.461,3.508l-4.395,4.391
			c-0.777,0.781-0.777,2.046,0,2.836c0.789,0.78,2.051,0.772,2.832-0.009l4.391-4.39c1.052,0.695,2.23,1.202,3.508,1.461v6.203
			c0,1.109,0.895,2,2.004,2.007c1.109-0.007,2-0.897,2-2.007v-6.203c1.274-0.259,2.457-0.766,3.508-1.461l4.391,4.398
			c0.781,0.78,2.048,0.78,2.832,0c0.781-0.79,0.777-2.055-0.004-2.836l-4.391-4.391c0.695-1.047,1.202-2.227,1.461-3.508h6.203
			c1.105,0.008,2-0.891,2-2S235.113,96.001,234.008,96.001z M218.008,104.001c-3.312,0-6-2.68-6.004-5.991l0.004-0.008
			c0,0-0.004,0-0.004-0.009c0.004-3.312,2.691-5.992,6.004-5.992s6,2.688,6,6.001C224.008,101.313,221.32,104.001,218.008,104.001z"
			/>
	</g>
	<g>
		<path fill="#F2F0DA" d="M266.82,109.15c-1.562-1.563-4.094-1.563-5.656,0c0,0-20.445,28.444-22.344,30.344
			c-1.899,1.897-3.75,1.905-5.656,0c-1.906-1.907-10.306-10.298-10.306-10.298c-1.562-1.562-4.093-1.562-5.655,0L192,154.399v9.602
			c0,2.212,1.789,4,4,4h88c2.211,0,4-1.788,4-4v-33.664L266.82,109.15z"/>
		<path fill="#F2F0DA" d="M218.001,104.001c3.315,0,5.999-2.688,5.999-5.999c0-3.313-2.684-6.001-5.999-6.001
			c-3.318,0-6.001,2.688-6.001,6.001C212,101.313,214.683,104.001,218.001,104.001z"/>
	</g>
</g>
</svg>
