<?xml version="1.0" encoding="utf-8"?>
<!-- Generator: Adobe Illustrator 19.1.0, SVG Export Plug-In . SVG Version: 6.00 Build 0)  -->
<svg version="1.1" id="Layer_1" xmlns="http://www.w3.org/2000/svg" xmlns:xlink="http://www.w3.org/1999/xlink" x="0px" y="0px"
	 viewBox="55 277 240 240" style="enable-background:new 55 277 240 240;" xml:space="preserve">
<style type="text/css">
	.st0{fill:#1880B6;}
	.st1{fill:#8ED9EF;}
	.st2{fill:#F2F0DA;}
	.st3{fill:#324249;}
</style>
<rect id="Button_2_" x="55" y="277" class="st0" width="240" height="240"/>
<g>
	<path class="st1" d="M235,409.7l-22.4-22.4c-3.1-3.1-8.2-3.1-11.3,0L167,421.7l-14.3-14.3c-3.1-3.1-8.2-3.1-11.3,0L115,433.7V353
		c0-2.2,1.8-4,4-4h112c2.2,0,4,1.8,4,4V409.7z"/>
	<g>
		<circle class="st2" cx="157" cy="375" r="6"/>
		<path class="st2" d="M231,445c2.2,0,4-1.8,4-4v-25.7l-25.2-25.2c-1.6-1.6-4.1-1.6-5.7,0l-41.7,41.8c-0.8,0.8-2,0.8-2.8,0
			c-0.8-0.8-0.8-2,0-2.8l4.6-4.6c0,0,0,0,0,0c-1.9-1.9-14.3-14.3-14.3-14.3c-1.6-1.6-4.1-1.6-5.7,0L115,439.4v1.6c0,2.2,1.8,4,4,4
			H231z"/>
	</g>
	<g>
		<path class="st3" d="M231,345H119c-4.4,0-8,3.6-8,8v88c0,4.4,3.6,8,8,8h112c4.4,0,8-3.6,8-8v-88C239,348.6,235.4,345,231,345z
			 M235,441c0,2.2-1.8,4-4,4H119c-2.2,0-4-1.8-4-4v-1.6l29.2-29.2c1.6-1.6,4.1-1.6,5.7,0c0,0,12.4,12.4,14.3,14.3c0,0,0,0,0,0
			l-4.6,4.6c-0.8,0.8-0.8,2,0,2.8c0.8,0.8,2,0.8,2.8,0l41.7-41.8c1.6-1.6,4.1-1.6,5.7,0l25.2,25.2V441z M235,409.7l-22.4-22.4
			c-3.1-3.1-8.2-3.1-11.3,0L167,421.7l-14.3-14.3c-3.1-3.1-8.2-3.1-11.3,0L115,433.7V353c0-2.2,1.8-4,4-4h112c2.2,0,4,1.8,4,4V409.7
			z"/>
		<path class="st3" d="M173,373h-6.2c-0.3-1.3-0.8-2.5-1.5-3.5l4.4-4.4c0.8-0.8,0.8-2,0-2.8c-0.8-0.8-2-0.8-2.8,0l-4.4,4.4
			c-1.1-0.7-2.2-1.2-3.5-1.5V359c0-1.1-0.9-2-2-2c-1.1,0-2,0.9-2,2v6.2c-1.3,0.3-2.5,0.8-3.5,1.5l-4.4-4.4c-0.8-0.8-2-0.8-2.8,0
			c-0.8,0.8-0.8,2.1,0,2.8l4.4,4.4c-0.7,1.1-1.2,2.2-1.5,3.5H141c-1.1,0-2,0.9-2,2c0,1.1,0.9,2,2,2h6.2c0.3,1.3,0.8,2.5,1.5,3.5
			l-4.4,4.4c-0.8,0.8-0.8,2,0,2.8c0.8,0.8,2.1,0.8,2.8,0l4.4-4.4c1.1,0.7,2.2,1.2,3.5,1.5v6.2c0,1.1,0.9,2,2,2c1.1,0,2-0.9,2-2v-6.2
			c1.3-0.3,2.5-0.8,3.5-1.5l4.4,4.4c0.8,0.8,2,0.8,2.8,0c0.8-0.8,0.8-2.1,0-2.8l-4.4-4.4c0.7-1.1,1.2-2.2,1.5-3.5h6.2
			c1.1,0,2-0.9,2-2C175,373.9,174.1,373,173,373z M157,381c-3.3,0-6-2.7-6-6c0,0,0,0,0,0c0,0,0,0,0,0c0-3.3,2.7-6,6-6s6,2.7,6,6
			C163,378.3,160.3,381,157,381z"/>
	</g>
</g>
</svg>
