<svg enable-background="new 55 277 240 240" viewBox="55 277 240 240" xmlns="http://www.w3.org/2000/svg"><path d="m55 277h240v240h-240z" fill="#1880b6"/><path d="m235 409.7-22.4-22.4c-3.1-3.1-8.2-3.1-11.3 0l-34.3 34.4-14.3-14.3c-3.1-3.1-8.2-3.1-11.3 0l-26.4 26.3v-80.7c0-2.2 1.8-4 4-4h112c2.2 0 4 1.8 4 4z" fill="#8ed9ef"/><circle cx="157" cy="375" fill="#f2f0da" r="6"/><path d="m231 445c2.2 0 4-1.8 4-4v-25.7l-25.2-25.2c-1.6-1.6-4.1-1.6-5.7 0l-41.7 41.8c-.8.8-2 .8-2.8 0s-.8-2 0-2.8l4.6-4.6c-1.9-1.9-14.3-14.3-14.3-14.3-1.6-1.6-4.1-1.6-5.7 0l-29.2 29.2v1.6c0 2.2 1.8 4 4 4z" fill="#f2f0da"/><g fill="#324249"><path d="m231 345h-112c-4.4 0-8 3.6-8 8v88c0 4.4 3.6 8 8 8h112c4.4 0 8-3.6 8-8v-88c0-4.4-3.6-8-8-8zm4 96c0 2.2-1.8 4-4 4h-112c-2.2 0-4-1.8-4-4v-1.6l29.2-29.2c1.6-1.6 4.1-1.6 5.7 0 0 0 12.4 12.4 14.3 14.3l-4.6 4.6c-.8.8-.8 2 0 2.8s2 .8 2.8 0l41.7-41.8c1.6-1.6 4.1-1.6 5.7 0l25.2 25.2zm0-31.3-22.4-22.4c-3.1-3.1-8.2-3.1-11.3 0l-34.3 34.4-14.3-14.3c-3.1-3.1-8.2-3.1-11.3 0l-26.4 26.3v-80.7c0-2.2 1.8-4 4-4h112c2.2 0 4 1.8 4 4z"/><path d="m173 373h-6.2c-.3-1.3-.8-2.5-1.5-3.5l4.4-4.4c.8-.8.8-2 0-2.8s-2-.8-2.8 0l-4.4 4.4c-1.1-.7-2.2-1.2-3.5-1.5v-6.2c0-1.1-.9-2-2-2s-2 .9-2 2v6.2c-1.3.3-2.5.8-3.5 1.5l-4.4-4.4c-.8-.8-2-.8-2.8 0s-.8 2.1 0 2.8l4.4 4.4c-.7 1.1-1.2 2.2-1.5 3.5h-6.2c-1.1 0-2 .9-2 2s.9 2 2 2h6.2c.3 1.3.8 2.5 1.5 3.5l-4.4 4.4c-.8.8-.8 2 0 2.8s2.1.8 2.8 0l4.4-4.4c1.1.7 2.2 1.2 3.5 1.5v6.2c0 1.1.9 2 2 2s2-.9 2-2v-6.2c1.3-.3 2.5-.8 3.5-1.5l4.4 4.4c.8.8 2 .8 2.8 0s.8-2.1 0-2.8l-4.4-4.4c.7-1.1 1.2-2.2 1.5-3.5h6.2c1.1 0 2-.9 2-2s-.9-2-2-2zm-16 8c-3.3 0-6-2.7-6-6 0-3.3 2.7-6 6-6s6 2.7 6 6-2.7 6-6 6z"/></g></svg>