<svg viewBox="0 0 24 24" xmlns="http://www.w3.org/2000/svg"><path d="m4.33691 19.93555h15.32617c.96484 0 1.75-.78516 1.75-1.75v-12.37061c0-.96484-.78516-1.75-1.75-1.75h-15.32617c-.96484 0-1.75.78516-1.75 1.75v12.37061c0 .96484.78516 1.75 1.75 1.75zm15.32618-1.5h-15.32618c-.1377 0-.25-.1123-.25-.25v-4.18555l3.81592-3.81592c.06543-.06445.20947-.06445.2749.00049l4.40332 4.40332c.29297.29297.76758.29297 1.06055 0l2.82617-2.82568c.06445-.06494.21045-.06396.2749.00049l3.17041 3.16998v3.25287c0 .1377-.1123.25-.25.25zm-15.32618-12.87061h15.32617c.1377 0 .25.1123.25.25v6.99677l-2.10986-2.10956c-.64062-.64062-1.75684-.64014-2.39648 0l-2.29541 2.29492-3.87305-3.87305c-.64062-.64062-1.75684-.63965-2.39648 0l-2.75488 2.75488v-6.06396c0-.1377.1123-.25.25-.25z"/><path d="m13.36395 9.85608c.677 0 1.22577-.54877 1.22577-1.22571s-.54877-1.22577-1.22577-1.22577c-.67694 0-1.22571.54883-1.22571 1.22577s.54877 1.22571 1.22571 1.22571z"/></svg>