<svg enable-background="new 55 277 240 240" viewBox="55 277 240 240" xmlns="http://www.w3.org/2000/svg"><path d="m55 277h240v240h-240z" fill="#1880b6"/><path d="m211 389v-52c0-2.2-1.8-4-4-4h-88c-2.2 0-4 1.8-4 4v52c0 2.2 1.8 4 4 4h33s3.6 1.6 3.6 1.6l23.4 23.4v-23c0-1.1.9-2 2-2h26c2.2 0 4-1.8 4-4z" fill="#8ed9ef"/><path d="m211 441c-15.7 0-19.6 7.4-20 8.4v3.6h40v-3.6c-.4-1-4.3-8.4-20-8.4z" fill="#8ed9ef"/><path d="m215 389v-52c0-4.4-3.6-8-8-8h-88c-4.4 0-8 3.6-8 8v52c0 4.4 3.6 8 8 8h33.2l27.4 27.4c.4.4.9.6 1.4.6.3 0 .5 0 .8-.2.7-.3 1.2-1 1.2-1.8v-26h24c4.4 0 8-3.6 8-8zm-34 4c-1.1 0-2 .9-2 2v23l-23.4-23.4s-1.5-1.6-3.6-1.6-33 0-33 0c-2.2 0-4-1.8-4-4v-52c0-2.2 1.8-4 4-4h88c2.2 0 4 1.8 4 4v52c0 2.2-1.8 4-4 4z" fill="#324249"/><path d="m219.2 437.8c2.3-2.2 3.8-5.3 3.8-8.8v-8c0-4.4-3.6-8-8-8h-8c-4.4 0-8 3.6-8 8v8c0 3.5 1.5 6.6 3.8 8.8-12.2 2.3-15.8 9.6-15.8 11.2v4c0 2.2 1.8 4 4 4h40c2.2 0 4-1.8 4-4v-4c0-1.7-3.7-8.9-15.8-11.2zm-16.2-16.8c0-2.2 1.8-4 4-4h8c2.2 0 4 1.8 4 4v8c0 4.4-3.6 8-8 8s-8-3.6-8-8zm28 32h-40v-3.6c.4-1 4.3-8.4 20-8.4s19.6 7.4 20 8.4z" fill="#324249"/><g opacity=".2"><path d="m133 353h24c1.1 0 2-.9 2-2s-.9-2-2-2h-24c-1.1 0-2 .9-2 2s.9 2 2 2z"/><path d="m169 353h8c1.1 0 2-.9 2-2s-.9-2-2-2h-8c-1.1 0-2 .9-2 2s.9 2 2 2z"/><path d="m151 363c0 1.1.9 2 2 2h40c1.1 0 2-.9 2-2s-.9-2-2-2h-40c-1.1 0-2 .9-2 2z"/><path d="m161 373h-28c-1.1 0-2 .9-2 2s.9 2 2 2h28c1.1 0 2-.9 2-2s-.9-2-2-2z"/><path d="m193 373h-24c-1.1 0-2 .9-2 2s.9 2 2 2h24c1.1 0 2-.9 2-2s-.9-2-2-2z"/><path d="m133 365h8c1.1 0 2-.9 2-2s-.9-2-2-2h-8c-1.1 0-2 .9-2 2s.9 2 2 2z"/></g><path d="m203 421v8c0 4.4 3.6 8 8 8s8-3.6 8-8v-8c0-2.2-1.8-4-4-4h-8c-2.2 0-4 1.8-4 4z" fill="#f2f0da"/></svg>