<?xml version="1.0" encoding="utf-8"?>
<!-- Generator: Adobe Illustrator 19.1.0, SVG Export Plug-In . SVG Version: 6.00 Build 0)  -->
<svg version="1.1" id="Layer_1" xmlns="http://www.w3.org/2000/svg" xmlns:xlink="http://www.w3.org/1999/xlink" x="0px" y="0px"
	 viewBox="55 277 240 240" style="enable-background:new 55 277 240 240;" xml:space="preserve">
<style type="text/css">
	.st0{fill:#1880B6;}
	.st1{fill:#8ED9EF;}
	.st2{fill:#324249;}
	.st3{opacity:0.2;}
	.st4{fill:#F2F0DA;}
</style>
<rect id="Testimonials_2_" x="55" y="277" class="st0" width="240" height="240"/>
<g>
	<g>
		<path class="st1" d="M211,389v-52c0-2.2-1.8-4-4-4h-88c-2.2,0-4,1.8-4,4v52c0,2.2,1.8,4,4,4c0,0,30.9,0,33,0s3.6,1.6,3.6,1.6
			L179,418v-23c0-1.1,0.9-2,2-2h26C209.2,393,211,391.2,211,389z"/>
		<path class="st1" d="M211,441c-15.7,0-19.6,7.4-20,8.4v3.6h40v-3.6C230.6,448.4,226.7,441,211,441z"/>
	</g>
	<g>
		<g>
			<path class="st2" d="M215,389v-52c0-4.4-3.6-8-8-8h-88c-4.4,0-8,3.6-8,8v52c0,4.4,3.6,8,8,8h33.2l27.4,27.4
				c0.4,0.4,0.9,0.6,1.4,0.6c0.3,0,0.5,0,0.8-0.2c0.7-0.3,1.2-1,1.2-1.8v-26h24C211.4,397,215,393.4,215,389z M181,393
				c-1.1,0-2,0.9-2,2v23l-23.4-23.4c0,0-1.5-1.6-3.6-1.6s-33,0-33,0c-2.2,0-4-1.8-4-4v-52c0-2.2,1.8-4,4-4h88c2.2,0,4,1.8,4,4v52
				c0,2.2-1.8,4-4,4H181z"/>
			<path class="st2" d="M219.2,437.8c2.3-2.2,3.8-5.3,3.8-8.8v-8c0-4.4-3.6-8-8-8h-8c-4.4,0-8,3.6-8,8v8c0,3.5,1.5,6.6,3.8,8.8
				c-12.2,2.3-15.8,9.6-15.8,11.2v4c0,2.2,1.8,4,4,4h40c2.2,0,4-1.8,4-4v-4C235,447.3,231.3,440.1,219.2,437.8z M203,421
				c0-2.2,1.8-4,4-4h8c2.2,0,4,1.8,4,4v8c0,4.4-3.6,8-8,8s-8-3.6-8-8V421z M231,453h-40v-3.6c0.4-1,4.3-8.4,20-8.4s19.6,7.4,20,8.4
				V453z"/>
		</g>
	</g>
	<g class="st3">
		<path d="M133,353h24c1.1,0,2-0.9,2-2s-0.9-2-2-2h-24c-1.1,0-2,0.9-2,2S131.9,353,133,353z"/>
		<path d="M169,353h8c1.1,0,2-0.9,2-2s-0.9-2-2-2h-8c-1.1,0-2,0.9-2,2S167.9,353,169,353z"/>
		<path d="M151,363c0,1.1,0.9,2,2,2h40c1.1,0,2-0.9,2-2s-0.9-2-2-2h-40C151.9,361,151,361.9,151,363z"/>
		<path d="M161,373h-28c-1.1,0-2,0.9-2,2s0.9,2,2,2h28c1.1,0,2-0.9,2-2S162.1,373,161,373z"/>
		<path d="M193,373h-24c-1.1,0-2,0.9-2,2s0.9,2,2,2h24c1.1,0,2-0.9,2-2S194.1,373,193,373z"/>
		<path d="M133,365h8c1.1,0,2-0.9,2-2s-0.9-2-2-2h-8c-1.1,0-2,0.9-2,2S131.9,365,133,365z"/>
	</g>
	<path class="st4" d="M203,421v8c0,4.4,3.6,8,8,8s8-3.6,8-8v-8c0-2.2-1.8-4-4-4h-8C204.8,417,203,418.8,203,421z"/>
</g>
</svg>
