<svg viewBox="0 0 24 24" xmlns="http://www.w3.org/2000/svg"><path d="m19.37402 3.72656h-14.74804c-1.18848 0-2.15625.96777-2.15625 2.15723v9.5166c0 1.18848.96777 2.15625 2.15625 2.15625h1.66406v1.9668c0 .28027.15625.53809.40625.66699.1084.05566.22656.08301.34375.08301.15332 0 .30566-.04688.43457-.13867l3.62402-2.57812h8.27539c1.18848 0 2.15625-.96777 2.15625-2.15625v-9.51661c0-1.18945-.96777-2.15723-2.15625-2.15723zm.65625 11.67383c0 .3623-.29395.65625-.65625.65625h-8.51465c-.15625 0-.30762.04883-.43457.13867l-2.63477 1.87402v-1.2627c0-.41406-.33594-.75-.75-.75h-2.41406c-.3623 0-.65625-.29395-.65625-.65625v-9.51659c0-.3623.29395-.65723.65625-.65723h14.74805c.3623 0 .65625.29492.65625.65723z"/><path d="m7.97266 7.7666h8.05469v1.5h-8.05469z"/><path d="m7.97266 11.52148h8.05469v1.5h-8.05469z"/></svg>