<svg enable-background="new 55 277 240 240" viewBox="55 277 240 240" xmlns="http://www.w3.org/2000/svg"><path d="m55 277h240v240h-240z" fill="#1880b6"/><g fill="#324249"><path d="m207 373.2v-35.7c0-2.3-1.4-4.4-4.3-4.4-1.2 0-3.7 1.9-4.8 2.7-1.4 1.1-17.8 15.7-25.5 21.2h-35.4c-.3 0-26 .3-26 26s25.7 26 26 26h10v48c0 2.2 1.8 4 4 4h12c2.2 0 4-1.8 4-4v-48h5.4l27.5 22.8c1.1.8 2.3 1.2 3.5 1.2 1.8 0 3.7-1.2 3.7-4v-36.2c4.6-.9 8-5 8-9.8s-3.5-8.9-8.1-9.8zm-44 83.8h-12v-48h12zm8-52h-34c-.9 0-22-.2-22-22 0-21.7 21.1-22 22-22h34zm32 22.5c0 .8-.8 1.2-1.4.5l-26.6-22v-46c4.1-2.9 24.5-20.1 26.2-21.5.9-.7 1.8-.5 1.8.8zm4-38.9v-11.3c2.3.8 4 3 4 5.6 0 2.7-1.7 4.9-4 5.7z"/><path d="m216.9 396.5c-.4.4-2.3 2-1.2 3.4s2.4.7 3.5-.1c4.4-3.4 7.9-9.8 7.9-16.9 0-7-2.8-12.6-7.4-16.5-.5-.5-2.4-1.9-3.7-.5-1.2 1.4.6 3.1.8 3.3 3.8 3.3 6.3 7.9 6.3 13.7-.1 5.7-2.5 10.4-6.2 13.6z"/><path d="m218.2 351.7c-.5-.2-2.2-1-2.9.8-.7 1.7 1.2 2.8 1.4 2.9 11 4.5 18.3 15 18.3 27.6 0 12.5-7.6 23.2-18.5 27.7-.2.1-2 .9-1.2 2.9.6 1.7 2.3.9 2.9.7 12.2-5.1 20.8-17.2 20.8-31.4 0-14.1-8.4-26.1-20.8-31.2z"/></g><path d="m115 383c0 21.8 21.1 22 22 22h34v-44h-34c-.9 0-22 .3-22 22z" fill="#8ed9ef"/><path d="m201.2 338.5c-1.7 1.5-22.1 18.6-26.2 21.5v46l26.5 22c.7.7 1.4.3 1.4-.5v-88.2c.1-1.3-.9-1.6-1.7-.8z" fill="#8ed9ef"/><path d="m151 409h12v48h-12z" fill="#f2f0da"/><path d="m207 377.4v11.3c2.3-.8 4-3 4-5.6 0-2.7-1.7-4.9-4-5.7z" fill="#f2f0da"/></svg>