<?xml version="1.0" encoding="utf-8"?>
<!-- Generator: Adobe Illustrator 19.1.0, SVG Export Plug-In . SVG Version: 6.00 Build 0)  -->
<svg version="1.1" id="Layer_1" xmlns="http://www.w3.org/2000/svg" xmlns:xlink="http://www.w3.org/1999/xlink" x="0px" y="0px"
	 viewBox="55 277 240 240" style="enable-background:new 55 277 240 240;" xml:space="preserve">
<style type="text/css">
	.st0{fill:#1880B6;}
	.st1{fill:#324249;}
	.st2{fill:#8ED9EF;}
	.st3{fill:#F2F0DA;}
</style>
<rect id="Call_to_Action" x="55" y="277" class="st0" width="240" height="240"/>
<g>
	<path class="st1" d="M207,373.2v-35.7c0-2.3-1.4-4.4-4.3-4.4c-1.2,0-3.7,1.9-4.8,2.7c-1.4,1.1-17.8,15.7-25.5,21.2H137
		c-0.3,0-26,0.3-26,26s25.7,26,26,26h10v48c0,2.2,1.8,4,4,4h12c2.2,0,4-1.8,4-4v-48h5.4l27.5,22.8c1.1,0.8,2.3,1.2,3.5,1.2
		c1.8,0,3.7-1.2,3.7-4v-36.2c4.6-0.9,8-5,8-9.8S211.6,374.1,207,373.2z M163,457h-12v-48h12V457z M171,405h-34c-0.9,0-22-0.2-22-22
		c0-21.7,21.1-22,22-22h34V405z M203,427.5c0,0.8-0.8,1.2-1.4,0.5L175,406V360c4.1-2.9,24.5-20.1,26.2-21.5c0.9-0.7,1.8-0.5,1.8,0.8
		L203,427.5z M207,388.6v-11.3c2.3,0.8,4,3,4,5.6C211,385.6,209.3,387.8,207,388.6z"/>
	<path class="st1" d="M216.9,396.5c-0.4,0.4-2.3,2-1.2,3.4c1.1,1.4,2.4,0.7,3.5-0.1c4.4-3.4,7.9-9.8,7.9-16.9c0-7-2.8-12.6-7.4-16.5
		c-0.5-0.5-2.4-1.9-3.7-0.5c-1.2,1.4,0.6,3.1,0.8,3.3c3.8,3.3,6.3,7.9,6.3,13.7C223,388.6,220.6,393.3,216.9,396.5z"/>
	<path class="st1" d="M218.2,351.7c-0.5-0.2-2.2-1-2.9,0.8c-0.7,1.7,1.2,2.8,1.4,2.9c11,4.5,18.3,15,18.3,27.6
		c0,12.5-7.6,23.2-18.5,27.7c-0.2,0.1-2,0.9-1.2,2.9c0.6,1.7,2.3,0.9,2.9,0.7c12.2-5.1,20.8-17.2,20.8-31.4
		C239,368.8,230.6,356.8,218.2,351.7z"/>
</g>
<g>
	<path class="st2" d="M115,383c0,21.8,21.1,22,22,22h34v-44h-34C136.1,361,115,361.3,115,383z"/>
	<path class="st2" d="M201.2,338.5c-1.7,1.5-22.1,18.6-26.2,21.5V406l26.5,22c0.7,0.7,1.4,0.3,1.4-0.5l0-88.2
		C203,338,202,337.7,201.2,338.5z"/>
</g>
<g>
	<rect x="151" y="409" class="st3" width="12" height="48"/>
	<path class="st3" d="M207,377.4v11.3c2.3-0.8,4-3,4-5.6C211,380.4,209.3,378.2,207,377.4z"/>
</g>
</svg>
