<svg viewBox="0 0 24 24" xmlns="http://www.w3.org/2000/svg"><path d="m6.00854 15.17358-.03296 4.4353c-.00488.80566.646 1.46582 1.45166 1.47168l2.4082.01709h.01074c.52295 0 .99316-.26807 1.25879-.71924.26807-.4541.27344-1 .01514-1.45947l-.42236-.73926.02106-2.82434 6.91693 3.0011c.2373.10303.48877.15381.73877.15381.35352 0 .70508-.10156 1.01172-.30127.52295-.34082.8374-.91699.8418-1.54053l.08496-11.89502c.00439-.62402-.30273-1.2041-.8208-1.55176-.51758-.34863-1.17139-.41113-1.74756-.17236l-7.17664 2.99255-3.92102-.02771h-.02051c-1.5957 0-2.90039 1.29248-2.91211 2.89062l-.02393 3.39648c-.00586.77734.29199 1.51074.83789 2.06494.4093.41516.92157.6922 1.48022.80737zm1.46705 4.44556.03253-4.37872 1.71136.01215-.02173 2.91589c-.00195.25488.06348.50684.18799.72754l.46045.70166-2.37061.02148zm10.84619-15.18506c.15479-.06445.27539-.00684.33447.03271s.15771.13086.15674.29639l-.08496 11.89502c-.00098.16553-.10107.25537-.16064.29395-.05908.03955-.18115.09375-.33496.02832l-6.81824-2.95844.02405-3.36383.02417-3.36377 6.85938-2.86035zm-13.10742 4.48145c.00586-.7749.63818-1.40137 1.41211-1.40137h.00977l3.32422.02344-.02222 3.10986-.02222 3.10986-3.14563-.02216c-.00049 0-.00085-.00031-.00134-.00031-.00037.00006-.00067.00018-.00104.00024l-.17621-.00122c-.37695-.00293-.73047-.15234-.99512-.4209s-.40918-.62402-.40625-1.00098l.02393-3.39648z"/></svg>