<svg fill="none" height="120" viewBox="0 0 120 120" width="120" xmlns="http://www.w3.org/2000/svg" xmlns:xlink="http://www.w3.org/1999/xlink"><clipPath id="a"><path d="m0 0h120v120h-120z"/></clipPath><g clip-path="url(#a)"><path d="m0 0h120v120h-120z" fill="#1880b6"/><g stroke="#324249" stroke-linecap="round" stroke-width="2"><path d="m51.375 56.0179h-18.5714c-2.5642 0-4.6429 2.0786-4.6429 4.6428v9.2857c0 2.5642 2.0787 4.6429 4.6429 4.6429h18.5714c2.5642 0 4.6428-2.0787 4.6428-4.6429v-9.2857c0-2.5642-2.0786-4.6428-4.6428-4.6428z" fill="#8cdaf0" stroke-linejoin="round"/><path d="m86.1964 56.0179h-18.5714c-2.5642 0-4.6429 2.0786-4.6429 4.6428v9.2857c0 2.5642 2.0787 4.6429 4.6429 4.6429h18.5714c2.5642 0 4.6429-2.0787 4.6429-4.6429v-9.2857c0-2.5642-2.0787-4.6428-4.6429-4.6428z" fill="#f0eed5" stroke-linejoin="round"/><path d="m69.9464 65.3036h13.9286"/><path d="m35.125 65.3036h13.9286"/><path d="m86.1964 30.4821h-18.5714c-2.5642 0-4.6429 2.0787-4.6429 4.6429v9.2857c0 2.5642 2.0787 4.6429 4.6429 4.6429h18.5714c2.5642 0 4.6429-2.0787 4.6429-4.6429v-9.2857c0-2.5642-2.0787-4.6429-4.6429-4.6429z" fill="#f0eed5" stroke-linejoin="round"/><path d="m69.9464 39.7679h13.9286"/><path d="m51.375 30.4821h-18.5714c-2.5642 0-4.6429 2.0787-4.6429 4.6429v9.2857c0 2.5642 2.0787 4.6429 4.6429 4.6429h18.5714c2.5642 0 4.6428-2.0787 4.6428-4.6429v-9.2857c0-2.5642-2.0786-4.6429-4.6428-4.6429z" fill="#f0eed5" stroke-linejoin="round"/><path d="m35.125 39.7679h13.9286"/><path d="m64.1428 78.0714-18.3881-7.2438c-.4637-.1826-.9916-.0728-1.344.2795-.3524.3524-.4622.8803-.2795 1.344l7.2438 18.3882 3.4821-9.2857z" fill="#8cdaf0" stroke-linejoin="round"/></g></g></svg>