<svg viewBox="0 0 24 24" xmlns="http://www.w3.org/2000/svg"><path d="m3.8291 10.63867h5.05957c.96484 0 1.75-.78516 1.75-1.75v-5.05908c0-.96484-.78516-1.75-1.75-1.75h-5.05957c-.96484 0-1.75.78516-1.75 1.75v5.05908c0 .96484.78516 1.75 1.75 1.75zm-.25-6.80908c0-.1377.1123-.25.25-.25h5.05957c.1377 0 .25.1123.25.25v5.05908c0 .1377-.1123.25-.25.25h-5.05957c-.1377 0-.25-.1123-.25-.25z"/><path d="m20.1709 2.07959h-5.05957c-.96484 0-1.75.78516-1.75 1.75v5.05908c0 .96484.78516 1.75 1.75 1.75h5.05957c.96484 0 1.75-.78516 1.75-1.75v-5.05908c0-.96484-.78516-1.75-1.75-1.75zm.25 6.80908c0 .1377-.1123.25-.25.25h-5.05957c-.1377 0-.25-.1123-.25-.25v-5.05908c0-.1377.1123-.25.25-.25h5.05957c.1377 0 .25.1123.25.25z"/><path d="m3.8291 21.92041h5.05957c.96484 0 1.75-.78516 1.75-1.75v-5.05908c0-.96484-.78516-1.75-1.75-1.75h-5.05957c-.96484 0-1.75.78516-1.75 1.75v5.05908c0 .96484.78516 1.75 1.75 1.75zm-.25-6.80908c0-.1377.1123-.25.25-.25h5.05957c.1377 0 .25.1123.25.25v5.05908c0 .1377-.1123.25-.25.25h-5.05957c-.1377 0-.25-.1123-.25-.25z"/><path d="m20.1709 13.36133h-5.05957c-.96484 0-1.75.78516-1.75 1.75v5.05908c0 .96484.78516 1.75 1.75 1.75h5.05957c.96484 0 1.75-.78516 1.75-1.75v-5.05908c0-.96484-.78516-1.75-1.75-1.75zm.25 6.80908c0 .1377-.1123.25-.25.25h-5.05957c-.1377 0-.25-.1123-.25-.25v-5.05908c0-.1377.1123-.25.25-.25h5.05957c.1377 0 .25.1123.25.25z"/></svg>