<svg viewBox="0 0 24 24" xmlns="http://www.w3.org/2000/svg"><path d="m20.17041 3.88525h-16.34082c-.96484 0-1.75.78516-1.75 1.75v12.72998c0 .96484.78516 1.75 1.75 1.75h16.34082c.96484 0 1.75-.78516 1.75-1.75v-12.72998c0-.96484-.78516-1.75-1.75-1.75zm.25 14.47998c0 .1377-.1123.25-.25.25h-16.34082c-.1377 0-.25-.1123-.25-.25v-12.72998c0-.1377.1123-.25.25-.25h16.34082c.1377 0 .25.1123.25.25z"/><path d="m16.1875 12.9248h-7.9375c-.41406 0-.75.33594-.75.75v2.84277c0 .41406.33594.75.75.75h7.9375c.41406 0 .75-.33594.75-.75v-2.84277c0-.41406-.33594-.75-.75-.75zm-.75 2.84278h-6.4375v-1.34277h6.4375z"/><path d="m9.55859 6.93604h5.32031v1.5h-5.32031z"/><path d="m7.39941 9.88135h9.63867v1.5h-9.63867z"/></svg>