<?xml version="1.0" encoding="utf-8"?>
<!-- Generator: Adobe Illustrator 16.0.0, SVG Export Plug-In . SVG Version: 6.00 Build 0)  -->
<!DOCTYPE svg PUBLIC "-//W3C//DTD SVG 1.0//EN" "http://www.w3.org/TR/2001/REC-SVG-20010904/DTD/svg10.dtd">
<svg version="1.0" id="Layer_1" xmlns="http://www.w3.org/2000/svg" xmlns:xlink="http://www.w3.org/1999/xlink" x="0px" y="0px"
	 width="480px" height="240px" viewBox="0 0 480 240" enable-background="new 0 0 480 240" xml:space="preserve">
<rect id="Call_to_Action_2_" fill="#1880B6" width="480" height="240"/>
<g>
	<g>
		<path fill="#8ED9EF" d="M288,104V72c0-2.211-1.789-4-4-4h-12v40h12C286.211,108,288,106.211,288,104z"/>
		<path fill="#8ED9EF" d="M188,116h4V76h-4c-2.211,0-4,1.789-4,4v32C184,114.211,185.789,116,188,116z"/>
		<path fill="#8ED9EF" d="M192,128h-8c-2.211,0-4,1.789-4,4v40c0,2.211,1.789,4,4,4h40c2.211,0,4-1.789,4-4v-36h-28
			C195.582,136,192,132.418,192,128z"/>
		<path fill="#8ED9EF" d="M296,124h-24v4c0,4.418-3.582,8-8,8h-20v40c0,2.211,1.789,4,4,4h48c2.211,0,4-1.789,4-4v-48
			C300,125.789,298.211,124,296,124z"/>
	</g>
	<path fill="#F2F0DA" d="M200,132h64c2.211,0,4-1.789,4-4V64c0-2.211-1.789-4-4-4h-64c-2.211,0-4,1.789-4,4v64
		C196,130.211,197.789,132,200,132z"/>
	<g>
		<path fill="#324249" d="M236,88c0-2.582,1.625-4,4-4h4v-8c0,0-4.48,0-8,0c-4.688,0-8,3.938-8,8v8h-8v8h8v16h8v-16h8l2-8h-10V88z"
			/>
		<path fill="#324249" d="M285.949,140.445c-1.172,0.691-2.469,1.195-3.848,1.469c-1.105-1.18-2.68-1.914-4.426-1.914
			c-3.344,0-6.055,2.711-6.055,6.059c0,0.473,0.051,0.938,0.156,1.383c-5.035-0.254-9.5-2.668-12.488-6.332
			c-0.523,0.895-0.82,1.934-0.82,3.047c0,2.102,1.07,3.953,2.695,5.043c-0.996-0.035-1.93-0.305-2.746-0.758
			c0,0.023,0,0.051,0,0.074c0,2.938,2.09,5.387,4.859,5.941c-0.508,0.137-1.043,0.215-1.594,0.215c-0.391,0-0.77-0.039-1.141-0.109
			c0.77,2.406,3.008,4.156,5.66,4.207c-2.074,1.625-4.688,2.594-7.523,2.594c-0.492,0-0.973-0.027-1.449-0.086
			c2.684,1.719,5.867,2.723,9.289,2.723c11.145,0,17.238-9.23,17.238-17.238c0-0.262-0.008-0.523-0.016-0.785
			c1.184-0.855,2.207-1.922,3.023-3.137c-1.086,0.484-2.254,0.809-3.48,0.953C284.535,143.047,285.496,141.859,285.949,140.445z"/>
		<path fill="#324249" d="M296,120h-24v-8h12c4.418,0,8-3.582,8-8V72c0-4.418-3.582-8-8-8h-12c0-4.418-3.582-8-8-8h-64
			c-4.418,0-8,3.582-8,8v8h-4c-4.418,0-8,3.582-8,8v32c0,4.418,3.582,8,8,8h4v4h-8c-4.418,0-8,3.582-8,8v40c0,4.418,3.582,8,8,8h40
			c4.418,0,8-3.582,8-8v-36h8v40c0,4.418,3.582,8,8,8h48c4.418,0,8-3.582,8-8v-48C304,123.582,300.418,120,296,120z M272,68h12
			c2.211,0,4,1.789,4,4v32c0,2.211-1.789,4-4,4h-12V68z M188,116c-2.211,0-4-1.789-4-4V80c0-2.211,1.789-4,4-4h4v40H188z M228,172
			c0,2.211-1.789,4-4,4h-40c-2.211,0-4-1.789-4-4v-40c0-2.211,1.789-4,4-4h8c0,4.418,3.582,8,8,8h28V172z M200,132
			c-2.211,0-4-1.789-4-4V64c0-2.211,1.789-4,4-4h64c2.211,0,4,1.789,4,4v64c0,2.211-1.789,4-4,4H200z M300,176c0,2.211-1.789,4-4,4
			h-48c-2.211,0-4-1.789-4-4v-40h20c4.418,0,8-3.582,8-8v-4h24c2.211,0,4,1.789,4,4V176z"/>
		<polygon fill="#324249" points="200,140 200,148 192,148 192,156 200,156 200,164 208,164 208,156 216,156 216,148 208,148 
			208,140 		"/>
	</g>
</g>
</svg>
