<svg enable-background="new 55 277 240 240" viewBox="55 277 240 240" xmlns="http://www.w3.org/2000/svg"><path d="m55 277h240v240h-240z" fill="#1880b6"/><path d="m231 333h-112c-4.4 0-8 3.6-8 8v112c0 4.4 3.6 8 8 8h112c4.4 0 8-3.6 8-8v-112c0-4.4-3.6-8-8-8zm-48 40c0-8.8 7.2-16 16-16s16 7.2 16 16-7.2 16-16 16h-16zm-68-32c0-2.2 1.8-4 4-4h48v24.1c-3.6-4.9-9.4-8.1-16-8.1-11 0-20 9-20 20 0 6.6 3.2 12.4 8.1 16h-24.1zm52 32v16h-16c-8.8 0-16-7.2-16-16s7.2-16 16-16 16 7.2 16 16zm0 84h-48c-2.2 0-4-1.8-4-4v-48h24.1c-4.9 3.6-8.1 9.4-8.1 16 0 11 9 20 20 20 6.6 0 12.4-3.2 16-8.1zm0-36c0 8.8-7.2 16-16 16s-16-7.2-16-16 7.2-16 16-16h16zm68 32c0 2.2-1.8 4-4 4h-48v-24.1c3.6 4.9 9.4 8.1 16 8.1 11 0 20-9 20-20 0-6.6-3.2-12.4-8.1-16h24.1zm-52-32v-16h16c8.8 0 16 7.2 16 16s-7.2 16-16 16-16-7.2-16-16zm52-20h-56v56h-8v-56h-56v-8h56v-56h8v56h56zm0-12h-24.1c4.9-3.6 8.1-9.4 8.1-16 0-11-9-20-20-20-6.6 0-12.4 3.2-16 8.1v-24.1h48c2.2 0 4 1.8 4 4z" fill="#324249"/><path d="m211 373c0-6.6-5.4-12-12-12s-12 5.4-12 12v12h12c6.6 0 12-5.4 12-12zm-20 0c0-4.4 3.6-8 8-8s8 3.6 8 8-3.6 8-8 8h-8z" fill="#324249"/><path d="m151 361c-6.6 0-12 5.4-12 12s5.4 12 12 12h12v-12c0-6.6-5.4-12-12-12zm8 20h-8c-4.4 0-8-3.6-8-8s3.6-8 8-8 8 3.6 8 8z" fill="#324249"/><path d="m139 421c0 6.6 5.4 12 12 12s12-5.4 12-12v-12h-12c-6.6 0-12 5.4-12 12zm20 0c0 4.4-3.6 8-8 8s-8-3.6-8-8 3.6-8 8-8h8z" fill="#324249"/><path d="m199 433c6.6 0 12-5.4 12-12s-5.4-12-12-12h-12v12c0 6.6 5.4 12 12 12zm-8-20h8c4.4 0 8 3.6 8 8s-3.6 8-8 8-8-3.6-8-8z" fill="#324249"/><g fill="#8ed9ef"><path d="m115 341v48h24.1c-4.9-3.6-8.1-9.4-8.1-16 0-11 9-20 20-20 6.6 0 12.4 3.2 16 8.1v-24.1h-48c-2.2 0-4 1.8-4 4z"/><path d="m151 441c-11 0-20-9-20-20 0-6.6 3.2-12.4 8.1-16h-24.1v48c0 2.2 1.8 4 4 4h48v-24.1c-3.6 4.9-9.4 8.1-16 8.1z"/><path d="m219 421c0 11-9 20-20 20-6.6 0-12.4-3.2-16-8.1v24.1h48c2.2 0 4-1.8 4-4v-48h-24.1c4.9 3.6 8.1 9.4 8.1 16z"/><path d="m231 337h-48v24.1c3.6-4.9 9.4-8.1 16-8.1 11 0 20 9 20 20 0 6.6-3.2 12.4-8.1 16h24.1v-48c0-2.2-1.8-4-4-4z"/><path d="m207 373c0-4.4-3.6-8-8-8s-8 3.6-8 8v8h8c4.4 0 8-3.6 8-8z"/><path d="m151 381h8v-8c0-4.4-3.6-8-8-8s-8 3.6-8 8 3.6 8 8 8z"/><path d="m151 429c4.4 0 8-3.6 8-8v-8h-8c-4.4 0-8 3.6-8 8s3.6 8 8 8z"/><path d="m191 421c0 4.4 3.6 8 8 8s8-3.6 8-8-3.6-8-8-8h-8z"/></g><path d="m215 373c0-8.8-7.2-16-16-16s-16 7.2-16 16v16h16c8.8 0 16-7.2 16-16zm-28 0c0-6.6 5.4-12 12-12s12 5.4 12 12-5.4 12-12 12h-12z" fill="#f2f0da"/><path d="m151 389h16v-16c0-8.8-7.2-16-16-16s-16 7.2-16 16 7.2 16 16 16zm0-28c6.6 0 12 5.4 12 12v12h-12c-6.6 0-12-5.4-12-12s5.4-12 12-12z" fill="#f2f0da"/><path d="m135 421c0 8.8 7.2 16 16 16s16-7.2 16-16v-16h-16c-8.8 0-16 7.2-16 16zm28 0c0 6.6-5.4 12-12 12s-12-5.4-12-12 5.4-12 12-12h12z" fill="#f2f0da"/><path d="m199 405h-16v16c0 8.8 7.2 16 16 16s16-7.2 16-16-7.2-16-16-16zm0 28c-6.6 0-12-5.4-12-12v-12h12c6.6 0 12 5.4 12 12s-5.4 12-12 12z" fill="#f2f0da"/><path d="m179 393v-56h-8v56h-56v8h56v56h8v-56h56v-8z" fill="#f2f0da"/></svg>