<svg viewBox="0 0 24 24" xmlns="http://www.w3.org/2000/svg"><path d="m20.1709 2.07959h-16.3418c-.96484 0-1.75.78516-1.75 1.75v16.34082c0 .96484.78516 1.75 1.75 1.75h16.3418c.96484 0 1.75-.78516 1.75-1.75v-16.34082c0-.96484-.78516-1.75-1.75-1.75zm.25 1.75v7.38525h-2.89764c.37854-.55225.60175-1.21887.60175-1.9375 0-1.89551-1.54199-3.4375-3.4375-3.4375-.71863 0-1.38525.22321-1.9375.60175v-2.862h7.4209c.1377 0 .25.1123.25.25zm-3.7959 10.82324c0 1.06836-.86914 1.9375-1.9375 1.9375s-1.9375-.86914-1.9375-1.9375v-1.93799h1.9375c1.06836 0 1.9375.86914 1.9375 1.93799zm-9.25-5.37549c0-1.06836.86914-1.9375 1.9375-1.9375s1.9375.86914 1.9375 1.9375v1.9375h-1.9375c-1.06836 0-1.9375-.86914-1.9375-1.9375zm7.3125 1.9375h-1.9375v-1.9375c0-1.06836.86914-1.9375 1.9375-1.9375s1.9375.86914 1.9375 1.9375-.86914 1.9375-1.9375 1.9375zm-5.375 1.5h1.9375v1.93799c0 1.06836-.86914 1.9375-1.9375 1.9375s-1.9375-.86914-1.9375-1.9375c0-1.06885.86914-1.93799 1.9375-1.93799zm-5.4834-9.13525h7.4209v2.862c-.55225-.37854-1.21887-.60175-1.9375-.60175-1.89551 0-3.4375 1.54199-3.4375 3.4375 0 .71863.22321 1.38525.60175 1.9375h-2.89764v-7.38525c0-.1377.1123-.25.25-.25zm-.25 16.59082v-7.45557h2.89795c-.37872.55243-.60205 1.21918-.60205 1.93799 0 1.89551 1.54199 3.4375 3.4375 3.4375.71863 0 1.38525-.22321 1.9375-.60175v2.93182h-7.4209c-.1377 0-.25-.1123-.25-.25zm16.5918.25h-7.4209v-2.93182c.55225.37854 1.21887.60175 1.9375.60175 1.89551 0 3.4375-1.54199 3.4375-3.4375 0-.71881-.22333-1.38556-.60205-1.93799h2.89795v7.45557c0 .1377-.1123.25-.25.25z"/></svg>