<svg viewBox="0 0 24 24" xmlns="http://www.w3.org/2000/svg"><path d="m17.68066 2.58691h-12.90673c-.96484 0-1.75.78516-1.75 1.75v15.32617c0 .96484.78516 1.75 1.75 1.75h10.85352c2.94922 0 5.34863-2.39941 5.34863-5.34863 0-1.46216-.59186-2.7868-1.54541-3.7533v-7.97424c0-.96484-.78516-1.75-1.75-1.75zm-12.90673 17.32618c-.1377 0-.25-.1123-.25-.25v-15.32618c0-.1377.1123-.25.25-.25h12.90674c.1377 0 .25.1123.25.25v6.92029c-.70032-.33728-1.47534-.54236-2.30322-.54236-2.94971 0-5.34912 2.39941-5.34912 5.34961 0 1.51318.63776 2.87476 1.65125 3.84863h-7.15564zm10.85351 0c-2.12256 0-3.84912-1.72656-3.84912-3.84863 0-2.12305 1.72656-3.84961 3.84912-3.84961 2.12207 0 3.84863 1.72656 3.84863 3.84961 0 2.12207-1.72656 3.84863-3.84863 3.84863z"/><path d="m6.66992 11.25h2.05078v1.5h-2.05078z"/><path d="m6.66992 7.15723h2.05078v1.5h-2.05078z"/><path d="m10.49463 7.15723h5.13281v1.5h-5.13281z"/><path d="m6.66992 15.34277h2.05078v1.5h-2.05078z"/><path d="m17.31543 15.31445h-.93799v-1.16211c0-.41406-.33594-.75-.75-.75s-.75.33594-.75.75v1.91211c0 .41406.33594.75.75.75h1.68799c.41406 0 .75-.33594.75-.75s-.33594-.75-.75-.75z"/></svg>