<?xml version="1.0" encoding="utf-8"?>
<!-- Generator: Adobe Illustrator 16.0.0, SVG Export Plug-In . SVG Version: 6.00 Build 0)  -->
<!DOCTYPE svg PUBLIC "-//W3C//DTD SVG 1.0//EN" "http://www.w3.org/TR/2001/REC-SVG-20010904/DTD/svg10.dtd">
<svg version="1.0" id="Layer_1" xmlns="http://www.w3.org/2000/svg" xmlns:xlink="http://www.w3.org/1999/xlink" x="0px" y="0px"
	 width="480px" height="240px" viewBox="0 0 480 240" enable-background="new 0 0 480 240" xml:space="preserve">
<rect id="Price_Table_1_" y="0.001" fill="#1880B6" width="480" height="240"/>
<g>
	<path fill="#8ED9EF" d="M280,60.001H200c-5.875,0-12,5.998-12,11.999v104c0,2.126,2.001,4.001,4.024,4.001H272
		c1.937,0,4-2.375,4-4.001V84.001c0-4.424,3.582-8.001,8-8.001c1.105,0,1.999,0.892,1.999,2.001C286,79.103,285.105,80,284,80
		c-2.209,0-4,1.79-4,4.001v19.998h8c2.125,0,4-2.248,4-3.999V76C292,66.25,285.625,60.001,280,60.001z M232,163.999
		c-15.465,0-28-12.538-28-27.999c0-15.469,12.535-27.999,28-27.999c15.465,0,28,12.53,28,27.999
		C260,151.461,247.465,163.999,232,163.999z"/>
	<path fill="#F2F0DA" d="M256,136c0-13.257-10.746-23.999-24-23.999c-13.253,0-24,10.742-24,23.999c0,13.251,10.747,24,24,24
		C245.254,160,256,149.251,256,136z"/>
	<g>
		<path fill="#324249" d="M280,56H200c-8.124,0-16,8-16,16v104c0,4.399,3.688,8,8,8h80c4.402,0,8-3.874,8-7.976v-68.023h8
			c4.25,0,8-4.126,8-7.977V76C296,64,288.312,56,280,56z M292,100c0,1.751-1.875,3.999-4,3.999h-8V84.001
			c0-2.211,1.791-4.001,4-4.001c1.105,0,1.999-0.897,1.999-1.999C286,76.892,285.105,76,284,76c-4.419,0-8,3.577-8,8.001V176
			c0,1.626-2.062,4.001-4,4.001h-79.977C190,180.001,188,178.126,188,176V72c0-6.001,6.125-11.999,12-11.999H280
			c5.625,0,12,6.249,12,15.999V100z"/>
		<path fill="#324249" d="M232,125.999c2.209,0,4,1.791,4,4.001c0,1.102,0.895,2,2,2c1.106,0,2-0.898,2-2
			c0-3.726-2.555-6.829-6-7.717v-0.282c0-1.109-0.895-2-2-2s-2,0.891-2,2v0.282C226.555,123.171,224,126.274,224,130
			c0,4.415,3.582,8.001,8,8.001c2.209,0,4,1.787,4,4c0,2.211-1.791,3.999-4,3.999c-2.208,0-4-1.788-4-3.999
			c0-1.11-0.895-2.001-2-2.001c-1.105,0-2,0.891-2,2.001c0,3.72,2.555,6.82,5.999,7.719v0.281c0,1.102,0.895,2,2,2s2-0.898,2-2
			v-0.281c3.445-0.898,6-3.999,6-7.719c0-4.423-3.582-8.002-8-8.002c-2.208,0-4-1.788-4-3.999
			C228,127.79,229.792,125.999,232,125.999z"/>
		<path fill="#324249" d="M232,108.001c-15.465,0-28,12.53-28,27.999c0,15.461,12.535,27.999,28,27.999
			c15.465,0,28-12.538,28-27.999C260,120.531,247.465,108.001,232,108.001z M232,160c-13.253,0-24-10.749-24-24
			c0-13.257,10.747-23.999,24-23.999c13.254,0,24,10.742,24,23.999C256,149.251,245.254,160,232,160z"/>
	</g>
	<g opacity="0.2">
		<path d="M206,88h32c1.106,0,2-0.897,2-2c0-1.108-0.894-1.999-2-1.999h-32c-1.105,0-2,0.891-2,1.999C204,87.103,204.895,88,206,88z
			"/>
		<path d="M246,88h8c1.105,0,2-0.897,2-2c0-1.108-0.895-1.999-2-1.999h-8c-1.106,0-2,0.891-2,1.999C244,87.103,244.894,88,246,88z"
			/>
		<path d="M254,95.999h-32c-1.105,0-2,0.892-2,2.002c0,1.1,0.894,1.999,2,1.999h32c1.105,0,2-0.899,2-1.999
			C256,96.891,255.105,95.999,254,95.999z"/>
		<path d="M214,95.999h-8c-1.105,0-2,0.892-2,2.002c0,1.1,0.895,1.999,2,1.999h8c1.105,0,2-0.899,2-1.999
			C216,96.891,215.105,95.999,214,95.999z"/>
	</g>
</g>
</svg>
