<?xml version="1.0" encoding="utf-8"?>
<!-- Generator: Adobe Illustrator 19.1.0, SVG Export Plug-In . SVG Version: 6.00 Build 0)  -->
<svg version="1.1" id="Layer_1" xmlns="http://www.w3.org/2000/svg" xmlns:xlink="http://www.w3.org/1999/xlink" x="0px" y="0px"
	 viewBox="55 277 240 240" style="enable-background:new 55 277 240 240;" xml:space="preserve">
<style type="text/css">
	.st0{fill:#1880B6;}
	.st1{fill:#8ED9EF;}
	.st2{fill:#324249;}
	.st3{fill:#F2F0DA;}
</style>
<rect id="Image_Slider_1_" x="55" y="277" class="st0" width="240" height="240"/>
<g>
	<g>
		<path class="st1" d="M219,349h-88c-2.2,0-4,1.8-4,4v72.7l22.4-22.4c3.1-3.1,8.2-3.1,11.3,0l10.3,10.3l22.3-30.3
			c3.1-3.1,8.2-3.1,11.3,0l18.4,18.4V353C223,350.8,221.2,349,219,349z"/>
		<path class="st1" d="M115,361v72c0,2.2,1.8,4,4,4h4v-80h-4C116.8,357,115,358.8,115,361z"/>
		<path class="st1" d="M231,357h-4v80h4c2.2,0,4-1.8,4-4v-72C235,358.8,233.2,357,231,357z"/>
	</g>
	<g>
		<path class="st2" d="M231,353h-4v0c0-4.4-3.6-8-8-8h-88c-4.4,0-8,3.6-8,8h-4c-4.4,0-8,3.6-8,8v72c0,4.4,3.6,8,8,8h4
			c0,4.4,3.6,8,8,8h88c4.4,0,8-3.6,8-8v0h4c4.4,0,8-3.6,8-8v-72C239,356.6,235.4,353,231,353z M123,437h-4c-2.2,0-4-1.8-4-4v-72
			c0-2.2,1.8-4,4-4h4V437z M223,441c0,2.2-1.8,4-4,4h-88c-2.2,0-4-1.8-4-4v-9.6l25.2-25.2c1.6-1.6,4.1-1.6,5.7,0
			c0,0,8.4,8.4,10.3,10.3c1.9,1.9,3.8,1.9,5.7,0c1.9-1.9,22.3-30.3,22.3-30.3c1.6-1.6,4.1-1.6,5.7,0l21.2,21.2V441z M223,401.7
			l-18.4-18.4c-3.1-3.1-8.2-3.1-11.3,0L171,413.7l-10.3-10.3c-3.1-3.1-8.2-3.1-11.3,0L127,425.7V353c0-2.2,1.8-4,4-4h88
			c2.2,0,4,1.8,4,4V401.7z M235,433c0,2.2-1.8,4-4,4h-4v-80h4c2.2,0,4,1.8,4,4V433z"/>
		<path class="st2" d="M169,373h-6.2c-0.3-1.3-0.8-2.5-1.5-3.5l4.4-4.4c0.8-0.8,0.8-2,0-2.8c-0.8-0.8-2-0.8-2.8,0l-4.4,4.4
			c-1.1-0.7-2.2-1.2-3.5-1.5V359c0-1.1-0.9-2-2-2c-1.1,0-2,0.9-2,2v6.2c-1.3,0.3-2.5,0.8-3.5,1.5l-4.4-4.4c-0.8-0.8-2-0.8-2.8,0
			c-0.8,0.8-0.8,2.1,0,2.8l4.4,4.4c-0.7,1-1.2,2.2-1.5,3.5H137c-1.1,0-2,0.9-2,2c0,1.1,0.9,2,2,2h6.2c0.3,1.3,0.8,2.5,1.5,3.5
			l-4.4,4.4c-0.8,0.8-0.8,2,0,2.8c0.8,0.8,2.1,0.8,2.8,0l4.4-4.4c1.1,0.7,2.2,1.2,3.5,1.5v6.2c0,1.1,0.9,2,2,2c1.1,0,2-0.9,2-2v-6.2
			c1.3-0.3,2.5-0.8,3.5-1.5l4.4,4.4c0.8,0.8,2,0.8,2.8,0c0.8-0.8,0.8-2.1,0-2.8l-4.4-4.4c0.7-1,1.2-2.2,1.5-3.5h6.2c1.1,0,2-0.9,2-2
			C171,373.9,170.1,373,169,373z M153,381c-3.3,0-6-2.7-6-6l0,0c0,0,0,0,0,0c0-3.3,2.7-6,6-6s6,2.7,6,6C159,378.3,156.3,381,153,381
			z"/>
	</g>
	<g>
		<path class="st3" d="M201.8,386.1c-1.6-1.6-4.1-1.6-5.7,0c0,0-20.4,28.4-22.3,30.3c-1.9,1.9-3.8,1.9-5.7,0
			c-1.9-1.9-10.3-10.3-10.3-10.3c-1.6-1.6-4.1-1.6-5.7,0L127,431.4v9.6c0,2.2,1.8,4,4,4h88c2.2,0,4-1.8,4-4v-33.7L201.8,386.1z"/>
		<path class="st3" d="M153,381c3.3,0,6-2.7,6-6c0-3.3-2.7-6-6-6c-3.3,0-6,2.7-6,6C147,378.3,149.7,381,153,381z"/>
	</g>
</g>
</svg>
