<svg enable-background="new 0 0 120 120" viewBox="0 0 120 120" xmlns="http://www.w3.org/2000/svg"><path d="m0 0h120v120h-120z" fill="#1880b6"/><g stroke="#324249" stroke-linecap="round" stroke-linejoin="round" stroke-width="2" transform="translate(1 7)"><g fill="#8ed9ef"><path d="m34 74h-3c-1.7 0-3-1.3-3-3v-36c0-1.7 1.3-3 3-3h3"/><path d="m84 32h3c1.7 0 3 1.3 3 3v36c0 1.7-1.3 3-3 3h-3"/><path d="m37 28h44c1.7 0 3 1.3 3 3v44c0 1.7-1.3 3-3 3h-44c-1.7 0-3-1.3-3-3v-44c0-1.7 1.3-3 3-3z"/></g><path d="m40 34h38v38h-38z" fill="#f2f0da"/><path d="m40 50h38m-26 22v-22" fill="#f2f0da"/></g></svg>