<svg enable-background="new 55 277 240 240" viewBox="55 277 240 240" xmlns="http://www.w3.org/2000/svg"><path d="m55 277h240v240h-240z" fill="#1880b6"/><path d="m139 337h72c2.2 0 4 1.8 4 4v46.2l-40 29.3-40-29.3v-46.2c0-2.2 1.8-4 4-4z" fill="#f2f0da"/><g fill="#8ed9ef"><path d="m233.2 373.3c-.4-.2-.8-.4-1.2-.7-.1-.1-5.6-3.1-13-7.2v18.8l14.6-10.7c-.1 0-.2-.1-.4-.2z"/><path d="m131 365.4c-7.4 4.1-12.9 7.1-13 7.2-.5.3-.9.5-1.3.7-.1.1-.2.1-.3.1l14.6 10.7z"/><path d="m176.2 420.6c-.4.3-.8.4-1.2.4s-.8-.1-1.2-.4l-58.8-43.1v75.5c0 2.1 1.8 4 4 4h112c2.1 0 4-1.7 4-4v-75.5z"/><path d="m155 365h40v8h-40z"/><path d="m190.7 405 4.3-3.1v-4.9h-40v4.9l4.3 3.1z"/></g><path d="m151.6 417.6-28 28c-.8.8-.8 2 0 2.8.4.4.9.6 1.4.6s1-.2 1.4-.6l28-28c.8-.8.8-2 0-2.8s-2-.8-2.8 0z" fill="#324249"/><path d="m223.6 448.4c.4.4.9.6 1.4.6s1-.2 1.4-.6c.8-.8.8-2 0-2.8l-27.4-27.4c-.8-.8-2-.8-2.8 0s-.8 2 0 2.8z" fill="#324249"/><path d="m235.1 369.8c-.3-.2-.7-.4-1.1-.6-.6-.4-6.9-3.9-15-8.4v-19.9c0-4.3-3.5-7.9-7.9-7.9h-72.3c-4.3 0-7.9 3.5-7.9 7.9v19.9c-8.1 4.5-14.4 8.1-15 8.4-.4.3-.9.5-1.2.7-1.8 1-3.8 2-3.8 5v78.1c0 4.2 3.6 8 8 8h112c4.1 0 8-3.7 8-8v-78.1c.1-3-2.1-4.2-3.8-5.1zm-16.1-4.4c7.4 4.1 12.8 7.2 13 7.2.4.2.8.5 1.2.7.2.1.3.2.4.2l-14.6 10.8zm-84-24.4c0-2.2 1.8-4 4-4h72c2.2 0 4 1.8 4 4v46.2l-16 11.7v-5.9h-48v5.9l-16-11.7zm55.7 64h-31.4l-4.3-3.1v-4.9h40v4.9zm-5.4 4-10.3 7.5-10.3-7.5zm-68.6-35.6c.4-.2.9-.5 1.3-.7.1-.1 5.6-3.1 13-7.2v18.8l-14.6-10.7c.1-.1.2-.1.3-.2zm118.3 79.6c0 2.3-1.9 4-4 4h-112c-2.2 0-4-1.9-4-4v-75.5l58.8 43.1c.4.3.8.4 1.2.4s.8-.1 1.2-.4l58.8-43.1z" fill="#324249"/><path d="m199 361h-48v16h48zm-4 12h-40v-8h40z" fill="#324249"/><g opacity=".2"><path d="m153 357h20c1.1 0 2-.9 2-2s-.9-2-2-2h-20c-1.1 0-2 .9-2 2s.9 2 2 2z"/><path d="m173 385h-20c-1.1 0-2 .9-2 2s.9 2 2 2h20c1.1 0 2-.9 2-2s-.9-2-2-2z"/></g></svg>