<?xml version="1.0" encoding="utf-8"?>
<!-- Generator: Adobe Illustrator 19.1.0, SVG Export Plug-In . SVG Version: 6.00 Build 0)  -->
<svg version="1.1" id="Layer_1" xmlns="http://www.w3.org/2000/svg" xmlns:xlink="http://www.w3.org/1999/xlink" x="0px" y="0px"
	 viewBox="55 277 240 240" style="enable-background:new 55 277 240 240;" xml:space="preserve">
<style type="text/css">
	.st0{fill:#1880B6;}
	.st1{fill:#F2F0DA;}
	.st2{fill:#8ED9EF;}
	.st3{fill:#324249;}
	.st4{opacity:0.2;}
</style>
<rect id="Call_to_Action" x="55" y="277" class="st0" width="240" height="240"/>
<g>
	<path class="st1" d="M139,337h72c2.2,0,4,1.8,4,4v46.2l-40,29.3l-40-29.3V341C135,338.8,136.8,337,139,337z"/>
	<g>
		<path class="st2" d="M233.2,373.3c-0.4-0.2-0.8-0.4-1.2-0.7c-0.1-0.1-5.6-3.1-13-7.2v18.8l14.6-10.7
			C233.5,373.5,233.4,373.4,233.2,373.3z"/>
		<path class="st2" d="M131,365.4c-7.4,4.1-12.9,7.1-13,7.2c-0.5,0.3-0.9,0.5-1.3,0.7c-0.1,0.1-0.2,0.1-0.3,0.1l14.6,10.7V365.4z"/>
		<path class="st2" d="M176.2,420.6c-0.4,0.3-0.8,0.4-1.2,0.4s-0.8-0.1-1.2-0.4L115,377.5V453c0,2.1,1.8,4,4,4h112c2.1,0,4-1.7,4-4
			v-75.5L176.2,420.6z"/>
		<rect x="155" y="365" class="st2" width="40" height="8"/>
		<polygon class="st2" points="190.7,405 195,401.9 195,397 155,397 155,401.9 159.3,405 		"/>
	</g>
	<g>
		<path class="st3" d="M151.6,417.6l-28,28c-0.8,0.8-0.8,2,0,2.8c0.4,0.4,0.9,0.6,1.4,0.6s1-0.2,1.4-0.6l28-28c0.8-0.8,0.8-2,0-2.8
			S152.4,416.8,151.6,417.6z"/>
		<path class="st3" d="M223.6,448.4c0.4,0.4,0.9,0.6,1.4,0.6s1-0.2,1.4-0.6c0.8-0.8,0.8-2,0-2.8L199,418.2c-0.8-0.8-2-0.8-2.8,0
			s-0.8,2,0,2.8L223.6,448.4z"/>
		<path class="st3" d="M235.1,369.8c-0.3-0.2-0.7-0.4-1.1-0.6c-0.6-0.4-6.9-3.9-15-8.4v-19.9c0-4.3-3.5-7.9-7.9-7.9h-72.3
			c-4.3,0-7.9,3.5-7.9,7.9v19.9c-8.1,4.5-14.4,8.1-15,8.4c-0.4,0.3-0.9,0.5-1.2,0.7c-1.8,1-3.8,2-3.8,5V453c0,4.2,3.6,8,8,8h112
			c4.1,0,8-3.7,8-8v-78.1C239,371.9,236.8,370.7,235.1,369.8z M219,365.4c7.4,4.1,12.8,7.2,13,7.2c0.4,0.2,0.8,0.5,1.2,0.7
			c0.2,0.1,0.3,0.2,0.4,0.2L219,384.3V365.4z M135,341c0-2.2,1.8-4,4-4h72c2.2,0,4,1.8,4,4v46.2l-16,11.7V393h-48v5.9l-16-11.7V341z
			 M190.7,405h-31.4l-4.3-3.1V397h40v4.9L190.7,405z M185.3,409l-10.3,7.5l-10.3-7.5H185.3z M116.7,373.4c0.4-0.2,0.9-0.5,1.3-0.7
			c0.1-0.1,5.6-3.1,13-7.2v18.8l-14.6-10.7C116.5,373.5,116.6,373.5,116.7,373.4z M235,453c0,2.3-1.9,4-4,4H119c-2.2,0-4-1.9-4-4
			v-75.5l58.8,43.1c0.4,0.3,0.8,0.4,1.2,0.4s0.8-0.1,1.2-0.4l58.8-43.1V453z"/>
		<path class="st3" d="M199,361h-48v16h48V361z M195,373h-40v-8h40V373z"/>
	</g>
	<g class="st4">
		<path d="M153,357h20c1.1,0,2-0.9,2-2s-0.9-2-2-2h-20c-1.1,0-2,0.9-2,2S151.9,357,153,357z"/>
		<path d="M173,385h-20c-1.1,0-2,0.9-2,2s0.9,2,2,2h20c1.1,0,2-0.9,2-2S174.1,385,173,385z"/>
	</g>
</g>
</svg>
