<svg viewBox="0 0 24 24" xmlns="http://www.w3.org/2000/svg"><path d="m13.0127 2.39111c-.61523-.41895-1.41064-.41943-2.02588.00049l-7.50293 5.11133c-.49268.33496-.78662.89111-.78662 1.4873v11.13135c0 .50171.20758.95508.5401 1.28168.00079.00073.0011.00177.00189.0025.00128.0011.00293.0014.00421.0025.32428.31573.76544.51215 1.25262.51215h15.00781c.48877 0 .93158-.19745 1.25616-.51501.00006-.00006.00012-.00006.00018-.00012l.00012-.00012c.33374-.32678.54236-.78082.54236-1.28357v-11.13135c0-.59619-.29395-1.15234-.78613-1.48682l-7.50391-5.1123zm6.79003 16.80103-4.45831-5.03656 4.45831-3.59698zm-15.60546-8.63355 4.45831 3.59698-4.45831 5.0365zm5.62683 4.5398 1.7052 1.37573c.03247.02625.07019.0387.10529.05865.0271.01538.05121.03253.07971.04437.09216.03839.18774.06348.28522.06348.00018 0 .00031-.00012.00049-.00012s.00031.00012.00049.00012c.09747 0 .19305-.02509.28522-.06348.0285-.01184.05261-.02899.07971-.04437.0351-.01996.07281-.03241.10529-.05865l1.7052-1.37573 4.711 5.32202h-13.77388zm2.00695-11.46704c.05127-.03516.11035-.05273.16895-.05273s.11719.01758.16846.05225l7.49994 5.10962-7.6684 6.18689-7.66852-6.18701 7.49957-5.10901z"/></svg>