<?xml version="1.0" encoding="utf-8"?>
<!-- Generator: Adobe Illustrator 19.1.0, SVG Export Plug-In . SVG Version: 6.00 Build 0)  -->
<svg version="1.1" id="Layer_1" xmlns="http://www.w3.org/2000/svg" xmlns:xlink="http://www.w3.org/1999/xlink" x="0px" y="0px"
	 viewBox="55 277 240 240" style="enable-background:new 55 277 240 240;" xml:space="preserve">
<style type="text/css">
	.st0{fill:#1880B6;}
	.st1{fill:#324249;}
	.st2{fill:#8ED9EF;}
	.st3{fill:#F2F0DA;}
</style>
<rect id="Call_to_Action_1_" x="55" y="277" class="st0" width="240" height="240"/>
<g>
	<g>
		<path class="st1" d="M151,369c6.6,0,12-5.4,12-12s-5.4-12-12-12s-12,5.4-12,12S144.4,369,151,369z M151,349c4.4,0,8,3.6,8,8
			s-3.6,8-8,8s-8-3.6-8-8S146.6,349,151,349z"/>
		<path class="st1" d="M231,357h-56c0-13.3-10.7-24-24-24s-24,10.7-24,24h-8c-4.4,0-8,3.6-8,8v88c0,4.4,3.6,8,8,8h112
			c4.4,0,8-3.6,8-8v-88C239,360.6,235.4,357,231,357z M151,337c11,0,20,9,20,20c0,3.1-0.6,6.5-2.1,8.9l-17.6,25.6L133,365.8
			c-1.4-2.4-2-5.7-2-8.8C131,346,140,337,151,337z M115,365c0-2.2,1.8-4,4-4h8.4c0,0,0,0,0,0c0.4,2.4,1.1,4.8,2.1,6.4
			c0,0.1,6.1,8.7,11.5,16.4l0.5,3.6l-26.5,4V365z M119,457c-2.2,0-4-1.8-4-4v-41.6l29.5-4.4l7.5,50H119z M235,453c0,2.2-1.8,4-4,4
			h-59l-3-19.9l66-0.1V453z M235,421h-68.6l-2.3-16.9l70.9-10.6V421z M235,389.4l-75.5,11.3l3.6,24.3H235v8l-66.6,0.1l-4-0.1l3.6,24
			h-12l-8.2-54.5l-32.8,4.9v-12l31-4.6c2.3,3.2,3.8,5.4,3.8,5.4c0.4,0.5,1,0.8,1.6,0.8c0,0,0,0,0,0c0.6,0,1.3-0.3,1.6-0.9
			c0,0,2.1-3.1,4.9-7.1l77.1-11.6V389.4z M235,373.4l-73.9,11.1l0-0.1c5.3-7.7,11.2-16.4,11.2-16.4c1.2-2.1,1.9-4.4,2.3-6.9H231
			c2.2,0,4,1.8,4,4V373.4z"/>
	</g>
	<g>
		<path class="st2" d="M141,383.8c-5.5-7.7-11.5-16.2-11.5-16.4c-1-1.7-1.7-4-2.1-6.4c0,0,0,0,0,0H119c-2.2,0-4,1.8-4,4v26.4l26.5-4
			L141,383.8z"/>
		<path class="st2" d="M115,411.4V453c0,2.2,1.8,4,4,4h33l-7.5-50L115,411.4z"/>
		<path class="st2" d="M172,457h59c2.2,0,4-1.8,4-4v-16l-66,0.1L172,457z"/>
		<polygon class="st2" points="166.4,421 235,421 235,393.4 164.1,404.1 		"/>
		<path class="st2" d="M231,361h-56.4c-0.4,2.5-1.1,4.8-2.3,6.9c0,0-5.9,8.7-11.2,16.4l0,0.1l73.9-11.1V365
			C235,362.8,233.2,361,231,361z"/>
	</g>
	<g>
		<path class="st3" d="M151,337c-11,0-20,9-20,20c0,3.1,0.6,6.5,2,8.8l18.3,25.7l17.6-25.6c1.5-2.4,2.1-5.8,2.1-8.9
			C171,346,162,337,151,337z M151,369c-6.6,0-12-5.4-12-12s5.4-12,12-12s12,5.4,12,12S157.6,369,151,369z"/>
	</g>
	<g>
		<path class="st3" d="M235,377.4L157.9,389c-2.8,4.1-4.9,7.1-4.9,7.1c-0.4,0.5-1,0.9-1.6,0.9c0,0,0,0,0,0c-0.6,0-1.2-0.3-1.6-0.8
			c0,0-1.6-2.2-3.8-5.4l-31,4.6v12l32.8-4.9L156,457h12l-3.6-24l4,0.1L235,433v-8h-71.8l-3.6-24.3l75.5-11.3V377.4z"/>
	</g>
	<circle class="st0" cx="151" cy="357" r="8"/>
</g>
</svg>
