<svg enable-background="new 55 277 240 240" viewBox="55 277 240 240" xmlns="http://www.w3.org/2000/svg"><path d="m55 277h240v240h-240z" fill="#1880b6"/><path d="m151 369c6.6 0 12-5.4 12-12s-5.4-12-12-12-12 5.4-12 12 5.4 12 12 12zm0-20c4.4 0 8 3.6 8 8s-3.6 8-8 8-8-3.6-8-8 3.6-8 8-8z" fill="#324249"/><path d="m231 357h-56c0-13.3-10.7-24-24-24s-24 10.7-24 24h-8c-4.4 0-8 3.6-8 8v88c0 4.4 3.6 8 8 8h112c4.4 0 8-3.6 8-8v-88c0-4.4-3.6-8-8-8zm-80-20c11 0 20 9 20 20 0 3.1-.6 6.5-2.1 8.9l-17.6 25.6-18.3-25.7c-1.4-2.4-2-5.7-2-8.8 0-11 9-20 20-20zm-36 28c0-2.2 1.8-4 4-4h8.4c.4 2.4 1.1 4.8 2.1 6.4 0 .1 6.1 8.7 11.5 16.4l.5 3.6-26.5 4zm4 92c-2.2 0-4-1.8-4-4v-41.6l29.5-4.4 7.5 50zm116-4c0 2.2-1.8 4-4 4h-59l-3-19.9 66-.1zm0-32h-68.6l-2.3-16.9 70.9-10.6zm0-31.6-75.5 11.3 3.6 24.3h71.9v8l-66.6.1-4-.1 3.6 24h-12l-8.2-54.5-32.8 4.9v-12l31-4.6c2.3 3.2 3.8 5.4 3.8 5.4.4.5 1 .8 1.6.8.6 0 1.3-.3 1.6-.9 0 0 2.1-3.1 4.9-7.1l77.1-11.6zm0-16-73.9 11.1v-.1c5.3-7.7 11.2-16.4 11.2-16.4 1.2-2.1 1.9-4.4 2.3-6.9h56.4c2.2 0 4 1.8 4 4z" fill="#324249"/><g fill="#8ed9ef"><path d="m141 383.8c-5.5-7.7-11.5-16.2-11.5-16.4-1-1.7-1.7-4-2.1-6.4h-8.4c-2.2 0-4 1.8-4 4v26.4l26.5-4z"/><path d="m115 411.4v41.6c0 2.2 1.8 4 4 4h33l-7.5-50z"/><path d="m172 457h59c2.2 0 4-1.8 4-4v-16l-66 .1z"/><path d="m166.4 421h68.6v-27.6l-70.9 10.7z"/><path d="m231 361h-56.4c-.4 2.5-1.1 4.8-2.3 6.9 0 0-5.9 8.7-11.2 16.4v.1l73.9-11.1v-8.3c0-2.2-1.8-4-4-4z"/></g><path d="m151 337c-11 0-20 9-20 20 0 3.1.6 6.5 2 8.8l18.3 25.7 17.6-25.6c1.5-2.4 2.1-5.8 2.1-8.9 0-11-9-20-20-20zm0 32c-6.6 0-12-5.4-12-12s5.4-12 12-12 12 5.4 12 12-5.4 12-12 12z" fill="#f2f0da"/><path d="m235 377.4-77.1 11.6c-2.8 4.1-4.9 7.1-4.9 7.1-.4.5-1 .9-1.6.9-.6 0-1.2-.3-1.6-.8 0 0-1.6-2.2-3.8-5.4l-31 4.6v12l32.8-4.9 8.2 54.5h12l-3.6-24 4 .1 66.6-.1v-8h-71.8l-3.6-24.3 75.5-11.3v-12z" fill="#f2f0da"/><circle cx="151" cy="357" fill="#1880b6" r="8"/></svg>