<svg viewBox="0 0 24 24" xmlns="http://www.w3.org/2000/svg"><path d="m15.14844 8.7207c0-1.73584-1.41211-3.14844-3.14844-3.14844s-3.14844 1.4126-3.14844 3.14844 1.41211 3.14844 3.14844 3.14844 3.14844-1.4126 3.14844-3.14844zm-4.79688 0c0-.90918.73926-1.64844 1.64844-1.64844s1.64844.73926 1.64844 1.64844-.73926 1.64844-1.64844 1.64844-1.64844-.73926-1.64844-1.64844z"/><path d="m5.96973 15.46094-1.79688 3.99268c-.24414.54395-.19629 1.16748.12793 1.66797.32324.5.87305.79883 1.46875.79883h12.46094c.5957 0 1.14551-.29883 1.46875-.79883.32422-.50049.37207-1.12402.12695-1.66846l-1.79492-3.99121c-.28125-.62793-.9082-1.03369-1.5957-1.03369h-.50787c1.40918-1.85077 2.71393-4.01727 2.71393-5.70752 0-3.66211-2.97949-6.64111-6.6416-6.64111s-6.6416 2.979-6.6416 6.64111c0 1.69025 1.30475 3.85675 2.71393 5.70752h-.50787c-.6875 0-1.31445.40576-1.59473 1.03271zm6.03027-11.88135c2.83496 0 5.1416 2.30615 5.1416 5.14111 0 2.17383-3.33398 6.08643-5.1416 7.96484-1.80762-1.87842-5.1416-5.79102-5.1416-7.96484 0-2.83496 2.30664-5.14111 5.1416-5.14111zm-.52539 14.7085c.14648.14307.33594.21436.52539.21436s.37891-.07129.52539-.21436c.23322-.22888 1.14233-1.13495 2.19055-2.35986h1.7196c.09766 0 .18652.05762.22754.14795l1.79492 3.9917c.04883.10791.00977.1958-.01758.23877-.02832.04248-.0918.11377-.20996.11377h-12.46093c-.11816 0-.18164-.07129-.20996-.11377-.02734-.04297-.06641-.13086-.01855-.23828l1.79688-3.99316c.04004-.08936.12891-.14697.22656-.14697h1.7196c1.04822 1.22491 1.95734 2.13098 2.19055 2.35986z"/></svg>