<svg fill="none" height="120" viewBox="0 0 120 120" width="120" xmlns="http://www.w3.org/2000/svg" xmlns:xlink="http://www.w3.org/1999/xlink"><clipPath id="a"><path d="m0 0h120v120h-120z"/></clipPath><g clip-path="url(#a)"><path d="m0 0h120v120h-120z" fill="#1880b6"/><g stroke="#324249" stroke-linecap="round" stroke-linejoin="round" stroke-width="2"><path d="m45.9758 42.5242h46.0242v32.5h-46.0242z" fill="#86d7f2"/><path d="m45.9758 29h46.0242v5.4516h-46.0242z" fill="#f0eed5"/><path d="m71.9758 57.2016-17.9274 17.8226h37.9516v-5.4516l-12.4758-12.371c-1.992-2.0968-5.5565-2.0968-7.5484 0z" fill="#f0eed5"/><path d="m58.1371 58.7742c2.2581 0 4.0887-1.8306 4.0887-4.0887 0-2.2582-1.8306-4.0887-4.0887-4.0887-2.2582 0-4.0887 1.8305-4.0887 4.0887 0 2.2581 1.8305 4.0887 4.0887 4.0887z" fill="#f0eed5"/><path d="m45.9758 91.2742h5.4516"/><path d="m56.7742 91.2742h35.2258"/><path d="m45.9758 83.2016h21.7016"/><path d="m73.0242 83.2016h13.5242"/><path d="m29.7258 58.7742h5.4516"/><path d="m27 42.5242h10.7984v10.7984h-10.7984z" fill="#f0eed5"/></g></g></svg>