<svg viewBox="0 0 24 24" xmlns="http://www.w3.org/2000/svg"><path d="m5.0791 11.45459h3.20508v1.5h-3.20508z"/><path d="m5.0791 14.71045h3.20508v1.5h-3.20508z"/><path d="m5.0791 17.68164h13.8418v1.5h-13.8418z"/><path d="m18.59961 8.36719h-7.83105c-.41406 0-.75.33594-.75.75v6.34326c0 .41406.33594.75.75.75h7.83105c.41406 0 .75-.33594.75-.75v-6.34326c0-.41406-.33594-.75-.75-.75zm-.75 1.5v2.5047l-.80566-.33429c-.16895-.06982-.3584-.07617-.53125-.0166l-1.25098.43018-1.65137-1.16602c-.26465-.18604-.61914-.18262-.87793.00977l-1.21387.89716v-2.32489h6.33105zm-6.33106 4.84326v-.65399l1.66895-1.23322 1.52246 1.07471c.19531.13818.44629.17383.67676.09668l1.34473-.4624 1.11816.46375v.71448h-6.33105z"/><path d="m20.1709 2.07959h-16.8418c-.68945 0-1.25.56055-1.25 1.25v17.34082c0 .68945.56055 1.25 1.25 1.25h17.3418c.68945 0 1.25-.56055 1.25-1.25v-16.84082c0-.96484-.78516-1.75-1.75-1.75zm0 1.5c.1377 0 .25.1123.25.25v1.76221h-16.8418v-2.01221zm-16.5918 16.84082v-13.32861h16.8418v13.32861z"/></svg>