<?xml version="1.0" encoding="utf-8"?>
<!-- Generator: Adobe Illustrator 16.0.0, SVG Export Plug-In . SVG Version: 6.00 Build 0)  -->
<!DOCTYPE svg PUBLIC "-//W3C//DTD SVG 1.0//EN" "http://www.w3.org/TR/2001/REC-SVG-20010904/DTD/svg10.dtd">
<svg version="1.0" id="Layer_1" xmlns="http://www.w3.org/2000/svg" xmlns:xlink="http://www.w3.org/1999/xlink" x="0px" y="0px"
	 width="480px" height="240px" viewBox="0 0 480 240" enable-background="new 0 0 480 240" xml:space="preserve">
<rect id="Button" fill="#1880B6" width="480" height="240"/>
<g>
	<g>
		<path fill="#F2F0DA" d="M240,104c-11.045,0-20,8.955-20,20v56h40v-56C260,112.955,251.045,104,240,104z M256,136
			c0,2.209-1.791,4-4,4h-24c-2.209,0-4-1.791-4-4v-12c0-8.836,7.164-16,16-16s16,7.164,16,16V136z"/>
	</g>
	<g>
		<path fill="#8ED9EF" d="M296,60H184c-2.209,0-4,1.791-4,4v64c0,2.208,1.791,4,4,4h32v-8c0-13.254,10.746-24,24-24s24,10.746,24,24
			v8h32c2.209,0,4-1.792,4-4V64C300,61.791,298.209,60,296,60z"/>
		<path fill="#8ED9EF" d="M240,112c-6.627,0-12,5.374-12,12v12h24v-12C252,117.373,246.627,112,240,112z"/>
	</g>
	<g>
		<path fill="#324249" d="M296,56H184c-4.418,0-8,3.582-8,8v64c0,4.418,3.582,8,8,8h32v44c0,2.209,1.791,4,4,4h40
			c2.209,0,4-1.791,4-4v-44h32c4.418,0,8-3.582,8-8V64C304,59.582,300.418,56,296,56z M260,180h-40v-56c0-11.045,8.955-20,20-20
			s20,8.955,20,20V180z M300,128c0,2.208-1.791,4-4,4h-32v-8c0-13.254-10.747-24-24-24s-24,10.746-24,24v8h-32c-2.209,0-4-1.792-4-4
			V64c0-2.209,1.791-4,4-4h112c2.209,0,4,1.791,4,4V128z"/>
		<path fill="#324249" d="M240,108c-8.836,0-16,7.164-16,16v12c0,2.209,1.791,4,4,4h24c2.209,0,4-1.791,4-4v-12
			C256,115.164,248.836,108,240,108z M252,136h-24v-12c0-6.627,5.373-12,12-12s12,5.374,12,12V136z"/>
		<path fill="#324249" d="M246,156h-12c-1.105,0-2,0.895-2,2c0,1.106,0.895,2,2,2h12c1.105,0,2-0.894,2-2
			C248,156.895,247.105,156,246,156z"/>
		<path fill="#324249" d="M246,164h-12c-1.105,0-2,0.895-2,2c0,1.105,0.895,2,2,2h12c1.105,0,2-0.895,2-2
			C248,164.895,247.105,164,246,164z"/>
		<path fill="#324249" d="M240,70c-1.105,0-2,0.895-2,2v16c0,1.106,0.895,2,2,2s2-0.895,2-2V72C242,70.895,241.105,70,240,70z"/>
		<path fill="#324249" d="M267,77.236c-0.955-0.557-2.18-0.227-2.732,0.732l-8,13.855c-0.553,0.958-0.225,2.18,0.732,2.733
			c0.314,0.182,0.658,0.268,0.998,0.268c0.691,0,1.363-0.358,1.734-1l8-13.855C268.285,79.012,267.957,77.789,267,77.236z"/>
		<path fill="#324249" d="M284.033,96.268l-13.857,8c-0.957,0.552-1.285,1.775-0.732,2.732c0.371,0.643,1.043,1,1.734,1
			c0.34,0,0.684-0.086,0.998-0.268l13.857-8c0.957-0.553,1.285-1.775,0.732-2.733C286.211,96.039,284.986,95.716,284.033,96.268z"/>
		<path fill="#324249" d="M209.824,104.268l-13.855-8c-0.955-0.551-2.18-0.229-2.732,0.732c-0.553,0.958-0.225,2.18,0.732,2.733
			l13.855,8c0.314,0.182,0.658,0.268,0.998,0.268c0.691,0,1.363-0.357,1.734-1C211.109,106.043,210.781,104.82,209.824,104.268z"/>
		<path fill="#324249" d="M215.734,77.969c-0.555-0.959-1.779-1.289-2.732-0.732c-0.957,0.553-1.285,1.775-0.732,2.732l8,13.855
			c0.371,0.643,1.043,1,1.734,1c0.34,0,0.684-0.086,0.998-0.268c0.957-0.553,1.285-1.775,0.732-2.733L215.734,77.969z"/>
	</g>
</g>
</svg>
