<?xml version="1.0" encoding="utf-8"?>
<!-- Generator: Adobe Illustrator 16.0.0, SVG Export Plug-In . SVG Version: 6.00 Build 0)  -->
<!DOCTYPE svg PUBLIC "-//W3C//DTD SVG 1.0//EN" "http://www.w3.org/TR/2001/REC-SVG-20010904/DTD/svg10.dtd">
<svg version="1.0" id="Layer_1" xmlns="http://www.w3.org/2000/svg" xmlns:xlink="http://www.w3.org/1999/xlink" x="0px" y="0px"
	 width="480px" height="240px" viewBox="0 0 480 240" enable-background="new 0 0 480 240" xml:space="preserve">
<rect id="Headline_1_" fill="#1880B6" width="480" height="240"/>
<g>
	<path fill="#8ED9EF" d="M300,172c0,2.211-1.791,4-4,4H184c-2.209,0-4-1.789-4-4V60c0-2.211,1.791-4,4-4h112c2.209,0,4,1.789,4,4
		V172z"/>
	<g>
		<path fill="#324249" d="M296.145,52H183.855c-4.34,0-7.855,3.516-7.855,7.855v112.289c0,4.34,3.516,7.855,7.855,7.855h112.289
			c4.34,0,7.855-3.516,7.855-7.855V59.855C304,55.516,300.484,52,296.145,52z M300,172c0,2.211-1.791,4-4,4H184
			c-2.209,0-4-1.789-4-4V60c0-2.211,1.791-4,4-4h112c2.209,0,4,1.789,4,4V172z"/>
		<path fill="#324249" d="M250.586,124.586L240,135.172l-10.586-10.586c-0.781-0.781-2.047-0.781-2.828,0s-0.781,2.047,0,2.828
			l12,12c0.391,0.391,0.902,0.586,1.414,0.586s1.023-0.195,1.414-0.586l12-12c0.781-0.781,0.781-2.047,0-2.828
			S251.367,123.805,250.586,124.586z"/>
		<path fill="#324249" d="M229.414,111.414L240,100.828l10.586,10.586c0.391,0.391,0.902,0.586,1.414,0.586s1.023-0.195,1.414-0.586
			c0.781-0.781,0.781-2.047,0-2.828l-12-12c-0.781-0.781-2.047-0.781-2.828,0l-12,12c-0.781,0.781-0.781,2.047,0,2.828
			S228.633,112.195,229.414,111.414z"/>
		<path fill="#324249" d="M290,116H190c-1.105,0-2,0.895-2,2s0.895,2,2,2h100c1.105,0,2-0.895,2-2S291.105,116,290,116z"/>
	</g>
	<g opacity="0.2">
		<path d="M206,76h20c1.105,0,2-0.895,2-2s-0.895-2-2-2h-20c-1.105,0-2,0.895-2,2S204.895,76,206,76z"/>
		<path d="M234,76h8c1.105,0,2-0.895,2-2s-0.895-2-2-2h-8c-1.105,0-2,0.895-2,2S232.895,76,234,76z"/>
		<path d="M250,76h24c1.105,0,2-0.895,2-2s-0.895-2-2-2h-24c-1.105,0-2,0.895-2,2S248.895,76,250,76z"/>
		<path d="M206,88h44c1.105,0,2-0.895,2-2s-0.895-2-2-2h-44c-1.105,0-2,0.895-2,2S204.895,88,206,88z"/>
		<path d="M274,84h-16c-1.105,0-2,0.895-2,2s0.895,2,2,2h16c1.105,0,2-0.895,2-2S275.105,84,274,84z"/>
		<path d="M274,148h-44c-1.105,0-2,0.895-2,2s0.895,2,2,2h44c1.105,0,2-0.895,2-2S275.105,148,274,148z"/>
		<path d="M238,160h-32c-1.105,0-2,0.895-2,2s0.895,2,2,2h32c1.105,0,2-0.895,2-2S239.105,160,238,160z"/>
		<path d="M274,160h-28c-1.105,0-2,0.895-2,2s0.895,2,2,2h28c1.105,0,2-0.895,2-2S275.105,160,274,160z"/>
		<path d="M206,152h16c1.105,0,2-0.895,2-2s-0.895-2-2-2h-16c-1.105,0-2,0.895-2,2S204.895,152,206,152z"/>
	</g>
</g>
</svg>
