<?xml version="1.0" encoding="utf-8"?>
<!-- Generator: Adobe Illustrator 16.0.0, SVG Export Plug-In . SVG Version: 6.00 Build 0)  -->
<!DOCTYPE svg PUBLIC "-//W3C//DTD SVG 1.0//EN" "http://www.w3.org/TR/2001/REC-SVG-20010904/DTD/svg10.dtd">
<svg version="1.0" id="Layer_1" xmlns="http://www.w3.org/2000/svg" xmlns:xlink="http://www.w3.org/1999/xlink" x="0px" y="0px"
	 width="480px" height="240px" viewBox="0 0 480 240" enable-background="new 0 0 480 240" xml:space="preserve">
<rect id="Call_to_Action_1_" fill="#1880B6" width="480" height="240"/>
<g>
	<path fill="#8CDFF2" d="M269.395,72.168c0.223,0.586,0.293,1.174,0.379,1.918c0.152,1.301,0.359,3.084,1.555,4.959
		c1.203,1.842,2.789,2.529,3.742,2.896c0.031,1.059-1,2.326-1.898,3.014c-0.242-0.033-0.676-0.143-1.008-0.227
		c-0.707-0.18-1.586-0.4-2.617-0.504c-2.309-0.223-3.922-0.797-5.961-1.525c-0.492-0.176-1.039-0.363-1.586-0.551V70.543
		l7.922-2.502c-0.207,0.457-0.422,0.924-0.594,1.469C269.047,70.377,269.07,71.316,269.395,72.168z"/>
	<g>
		<path fill="#324249" d="M300.727,57.547c-1.387-1.018-3.051-1.545-4.73-1.545c-0.809,0-1.617,0.121-2.402,0.369L258.066,67.59
			l-33.535-11.18C223.707,56.137,222.852,56,222,56c-0.938,0-1.875,0.164-2.766,0.494l-38,14C178.09,71.652,176,74.648,176,78v98
			c0,2.549,1.215,4.945,3.273,6.453C180.66,183.471,182.32,184,184,184c0.809,0,1.621-0.123,2.406-0.371L222,172.389l35.594,11.24
			c0.781,0.248,1.594,0.371,2.406,0.371c0.852,0,1.711-0.137,2.531-0.41l36-12c3.266-1.09,5.469-4.146,5.469-7.59V64
			C304,61.451,302.785,59.055,300.727,57.547z M294.789,60.188c0.391-0.123,0.797-0.186,1.207-0.186
			c0.848,0,1.691,0.273,2.367,0.771C299.391,61.523,300,62.73,300,64v50.172c-0.469-0.072-0.953-0.166-1.465-0.264
			c-2.332-0.467-3.801-1.043-5.559-3.092c-2.082-2.377-0.871-6.221-3.164-8.229c-0.883-0.756-1.734-1.008-2.586-1.008
			c-1.648-0.002-3.328,0.936-5.352,1.008c-3.332,0.148-5.625,1.512-8.391,1.512c-0.852,0-1.75-0.129-2.742-0.467
			c-2.684-0.92-3.711-3.021-6.355-4.121c-0.852-0.359-1.629-0.582-2.387-0.748V86.381c2.25,0.803,4.258,1.547,7.148,1.824
			c1.586,0.158,2.859,0.76,4.141,0.76c0.723,0,1.445-0.191,2.219-0.76c2.398-1.787,4.457-5.045,3.184-8.217
			c-0.828-2.09-2.824-1.305-3.988-3.09c-1.254-1.969-0.66-3.766-1.57-6.156c0.566-1.752,1.531-2.984,2.07-4.369L294.789,60.188z
			 M269.395,72.168c0.223,0.586,0.293,1.174,0.379,1.918c0.152,1.301,0.359,3.084,1.555,4.959c1.203,1.842,2.789,2.529,3.742,2.896
			c0.031,1.059-1,2.326-1.898,3.014c-0.242-0.033-0.676-0.143-1.008-0.227c-0.707-0.18-1.586-0.4-2.617-0.504
			c-2.309-0.223-3.922-0.797-5.961-1.525c-0.492-0.176-1.039-0.363-1.586-0.551V70.543l7.922-2.502
			c-0.207,0.457-0.422,0.924-0.594,1.469C269.047,70.377,269.07,71.316,269.395,72.168z M258,98.428
			c-1.086,0.021-2.203,0.08-3.457,0.08c-0.41,0-0.828-0.008-1.27-0.025c-0.234-0.01-0.465-0.014-0.691-0.014
			c-2.215,0-3.91,0.426-5.801,0.426c-0.938,0-1.914-0.104-3.035-0.412c-2.582-0.717-4.723-0.375-6.355-3.064
			c-1.898-3.189-1.805-7.035,0-10.305c1.887-3.381,4.734-2.611,7.945-3.078c0.594-0.08,1.152-0.117,1.688-0.117
			c3.992,0,6.629,2.055,10.977,3.184V98.428z M238.887,144.434c-1.059,2.58-3.02,3.117-5.215,3.117
			c-0.375,0-0.758-0.016-1.141-0.039c-2.359-0.139-3.418-1.814-5.562-3.078c-2.043-1.203-3.453-2.852-4.969-4.15v-25.961
			c1.492,2.018,2.078,4.074,4.164,5.422c0.805,0.523,1.578,0.707,2.328,0.707c1.805,0,3.508-1.059,5.414-1.059
			c0.578,0,1.172,0.098,1.797,0.352c3.195,1.332,5.91,2.156,7.141,6.195c0.805,2.6,0.828,4.592,0,7.174
			c-0.816,2.609-3.203,2.473-3.957,5.139C238.219,140.531,239.746,142.289,238.887,144.434z M180,94.312
			c1.75-0.014,3.445-0.133,5.68-0.246c2.789-0.154,4.789-1.633,7.078-1.633c0.766,0,1.566,0.166,2.438,0.604
			c2.676,1.305,3.172,4.146,5.57,6.154c3.621,3.035,6.496,2.584,10.328,5.154c2.855,1.918,4.836,3.516,6.906,5.572v28.42
			c-0.188-0.025-0.359-0.078-0.562-0.086c-0.742-0.021-1.418-0.109-2.047-0.109c-0.973,0-1.844,0.203-2.719,1.152
			c-1.504,1.621-0.211,4.371-1.578,6.156c-0.996,1.324-2.113,1.736-3.332,1.736c-1.184,0-2.465-0.387-3.82-0.705
			c-2.73-0.621-3.629-3.449-6.348-4.109c-1.016-0.244-1.828-0.439-2.656-0.439c-0.656,0-1.32,0.123-2.109,0.439
			c-3.375,1.373-3.938,5.178-5.57,9.26c-1.336,3.381-0.008,6.979-2.375,9.232c-1.152,1.098-2.254,1.436-3.445,1.436
			c-0.461,0-0.941-0.053-1.438-0.129V94.312z M182.617,74.248L218,61.213V104.5c-1.406-1.176-2.891-2.273-4.676-3.475
			c-2.164-1.451-4.035-2.111-5.691-2.695c-1.672-0.588-2.875-1.014-4.297-2.203c-0.598-0.502-1.07-1.215-1.617-2.041
			c-1.016-1.527-2.277-3.43-4.766-4.645c-1.324-0.662-2.75-1.008-4.195-1.008c-1.805,0-3.309,0.514-4.633,0.969
			c-0.977,0.334-1.82,0.623-2.668,0.67l-1.613,0.088c-1.469,0.08-2.648,0.145-3.844,0.152V78
			C180,76.332,181.051,74.824,182.617,74.248z M185.203,179.814C184.812,179.938,184.406,180,184,180
			c-0.855,0-1.672-0.268-2.363-0.773C180.609,178.477,180,177.27,180,176v-9.809c0.469,0.057,0.945,0.109,1.438,0.109
			c2.383,0,4.414-0.832,6.203-2.543c2.516-2.391,2.719-5.434,2.867-7.654c0.074-1.121,0.148-2.18,0.469-3
			c0.359-0.898,0.68-1.799,0.98-2.666c0.965-2.75,1.48-3.992,2.379-4.359c0.359-0.145,0.516-0.145,0.602-0.145
			c0.359,0,0.992,0.152,1.723,0.328c0.293,0.072,0.793,0.549,1.316,1.053c1.109,1.059,2.625,2.51,5.078,3.068l0.727,0.176
			c1.191,0.295,2.547,0.629,3.98,0.629c2.629,0,4.887-1.152,6.527-3.332c1.43-1.861,1.492-3.949,1.539-5.332
			c0.004-0.107,0.008-0.234,0.012-0.361c0.113,0.006,0.223,0.016,0.34,0.023c0.367,0.027,0.742,0.053,1.141,0.064
			c0.234,0.01,0.457,0.055,0.68,0.137v27.07L185.203,179.814z M223.203,168.574L222,168.193v-22.494
			c0.844,0.746,1.789,1.502,2.938,2.182c0.484,0.283,0.938,0.641,1.422,1.02c1.312,1.029,3.109,2.438,5.938,2.604
			c0.453,0.029,0.922,0.047,1.375,0.047c4.391,0,7.387-1.883,8.914-5.596c0.898-2.234,0.523-4.154,0.281-5.424
			c-0.094-0.461-0.191-0.984-0.141-1.152l0.031-0.104c0.062-0.08,0.367-0.32,0.59-0.498c0.949-0.748,2.543-2.002,3.316-4.469
			c1.051-3.289,1.055-6.154,0-9.555c-1.688-5.529-5.59-7.131-8.727-8.416l-0.695-0.285c-1.082-0.441-2.195-0.66-3.336-0.66
			c-1.547,0-2.867,0.393-3.922,0.707c-0.586,0.174-1.188,0.352-1.492,0.352c-0.039-0.002-0.078-0.014-0.156-0.064
			c-0.578-0.373-0.953-0.984-1.617-2.119c-0.562-0.951-1.258-2.133-2.293-3.314c-0.867-0.986-1.66-1.854-2.426-2.658V60
			c0.43,0,0.855,0.068,1.266,0.205l33.535,11.18L258,71.783v9.131c-1.008-0.32-1.961-0.674-2.922-1.061
			c-2.367-0.951-4.816-1.936-8.055-1.936c-0.727,0-1.477,0.051-2.227,0.154c-0.586,0.084-1.176,0.121-1.797,0.158
			c-2.617,0.158-6.57,0.398-9.102,4.932c-2.555,4.627-2.527,9.965,0.055,14.303c2.188,3.605,5.258,4.18,7.289,4.562
			c0.508,0.094,0.984,0.184,1.434,0.309c1.363,0.377,2.703,0.559,4.105,0.559c1.137,0,2.148-0.115,3.125-0.227
			c0.898-0.102,1.75-0.199,2.676-0.199c0.172,0,0.348,0.004,0.527,0.01c0.5,0.021,0.977,0.029,1.434,0.029
			c0.832,0,1.605-0.027,2.355-0.053c0.375-0.014,0.734-0.02,1.102-0.027v77.135L223.203,168.574z M297.266,167.795L262,179.549
			v-76.65c0.273,0.088,0.543,0.178,0.836,0.301c0.707,0.295,1.258,0.756,2.016,1.396c1.105,0.934,2.484,2.098,4.594,2.82
			c1.352,0.461,2.672,0.684,4.039,0.684c1.914,0,3.562-0.443,5.016-0.836c1.195-0.322,2.32-0.625,3.555-0.68
			c1.465-0.053,2.73-0.404,3.75-0.686c0.496-0.137,1.055-0.293,1.352-0.316c0.156,0.283,0.297,1.184,0.395,1.785
			c0.277,1.719,0.656,4.074,2.414,6.084c2.434,2.834,4.789,3.779,7.785,4.379l0.211,0.041c0.66,0.125,1.344,0.236,2.039,0.32V164
			C300,165.725,298.898,167.25,297.266,167.795z"/>
		<path fill="#324249" d="M286.609,134.645c-1.352-0.416-2.633-0.809-4.016-0.809c-1.305,0-2.484,0.354-3.609,1.086
			c-1.266,0.834-1.629,1.863-1.711,2.578c-0.227,1.93,1.203,3.445,2.719,5.051c1.016,1.072,2.539,2.691,2.246,3.463
			c-0.191,0.512-0.77,0.791-1.957,1.266c-1.477,0.592-3.707,1.482-4.188,4.143c-0.273,1.477,0.062,2.832,0.969,3.92
			c1.273,1.525,3.582,2.365,6.508,2.365c2.977,0,5.906-0.859,7.852-2.312c3.309-2.535,4.578-6.24,3.77-11.006
			C294.391,139.525,291.465,136.17,286.609,134.645z M289.008,152.205c-1.219,0.912-3.355,1.502-5.438,1.502
			c-1.84,0-3.047-0.465-3.438-0.928c-0.066-0.082-0.184-0.223-0.109-0.641c0.078-0.398,0.383-0.602,1.742-1.145
			c1.43-0.572,3.391-1.355,4.215-3.564c1.184-3.105-1.277-5.717-3.078-7.625c-0.477-0.504-1.141-1.209-1.473-1.686
			c1.055-0.555,2.25-0.191,4.109,0.381c3.281,1.033,5.148,3.172,5.707,6.549C291.812,148.381,291.113,150.592,289.008,152.205z"/>
	</g>
	<g>
		<path fill="#8ED9EF" d="M180,78v12.312c1.195-0.008,2.375-0.072,3.844-0.152l1.613-0.088c0.848-0.047,1.691-0.336,2.668-0.67
			c1.324-0.455,2.828-0.969,4.633-0.969c1.445,0,2.871,0.346,4.195,1.008c2.488,1.215,3.75,3.117,4.766,4.645
			c0.547,0.826,1.02,1.539,1.617,2.041c1.422,1.189,2.625,1.615,4.297,2.203c1.656,0.584,3.527,1.244,5.691,2.695
			c1.785,1.201,3.27,2.299,4.676,3.475V61.213l-35.383,13.035C181.051,74.824,180,76.332,180,78z"/>
		<path fill="#8ED9EF" d="M216.18,142.186c-0.117-0.008-0.227-0.018-0.34-0.023c-0.004,0.127-0.008,0.254-0.012,0.361
			c-0.047,1.383-0.109,3.471-1.539,5.332c-1.641,2.18-3.898,3.332-6.527,3.332c-1.434,0-2.789-0.334-3.98-0.629l-0.727-0.176
			c-2.453-0.559-3.969-2.01-5.078-3.068c-0.523-0.504-1.023-0.98-1.316-1.053c-0.73-0.176-1.363-0.328-1.723-0.328
			c-0.086,0-0.242,0-0.602,0.145c-0.898,0.367-1.414,1.609-2.379,4.359c-0.301,0.867-0.621,1.768-0.98,2.666
			c-0.32,0.82-0.395,1.879-0.469,3c-0.148,2.221-0.352,5.264-2.867,7.654c-1.789,1.711-3.82,2.543-6.203,2.543
			c-0.492,0-0.969-0.053-1.438-0.109V176c0,1.27,0.609,2.477,1.637,3.227c0.691,0.506,1.508,0.773,2.363,0.773
			c0.406,0,0.812-0.062,1.203-0.186L218,169.457v-27.07c-0.223-0.082-0.445-0.127-0.68-0.137
			C216.922,142.238,216.547,142.213,216.18,142.186z"/>
		<path fill="#8ED9EF" d="M223.266,60.205C222.855,60.068,222.43,60,222,60v48.295c0.766,0.805,1.559,1.672,2.426,2.658
			c1.035,1.182,1.73,2.363,2.293,3.314c0.664,1.135,1.039,1.746,1.617,2.119c0.078,0.051,0.117,0.062,0.156,0.064
			c0.305,0,0.906-0.178,1.492-0.352c1.055-0.314,2.375-0.707,3.922-0.707c1.141,0,2.254,0.219,3.336,0.66l0.695,0.285
			c3.137,1.285,7.039,2.887,8.727,8.416c1.055,3.4,1.051,6.266,0,9.555c-0.773,2.467-2.367,3.721-3.316,4.469
			c-0.223,0.178-0.527,0.418-0.59,0.498l-0.031,0.104c-0.051,0.168,0.047,0.691,0.141,1.152c0.242,1.27,0.617,3.189-0.281,5.424
			c-1.527,3.713-4.523,5.596-8.914,5.596c-0.453,0-0.922-0.018-1.375-0.047c-2.828-0.166-4.625-1.574-5.938-2.604
			c-0.484-0.379-0.938-0.736-1.422-1.02c-1.148-0.68-2.094-1.436-2.938-2.182v22.494l1.203,0.381L258,179.562v-77.135
			c-0.367,0.008-0.727,0.014-1.102,0.027c-0.75,0.025-1.523,0.053-2.355,0.053c-0.457,0-0.934-0.008-1.434-0.029
			c-0.18-0.006-0.355-0.01-0.527-0.01c-0.926,0-1.777,0.098-2.676,0.199c-0.977,0.111-1.988,0.227-3.125,0.227
			c-1.402,0-2.742-0.182-4.105-0.559c-0.449-0.125-0.926-0.215-1.434-0.309c-2.031-0.383-5.102-0.957-7.289-4.562
			c-2.582-4.338-2.609-9.676-0.055-14.303c2.531-4.533,6.484-4.773,9.102-4.932c0.621-0.037,1.211-0.074,1.797-0.158
			c0.75-0.104,1.5-0.154,2.227-0.154c3.238,0,5.688,0.984,8.055,1.936c0.961,0.387,1.914,0.74,2.922,1.061v-9.131l-1.199-0.398
			L223.266,60.205z"/>
		<path fill="#8ED9EF" d="M297.961,117.871l-0.211-0.041c-2.996-0.6-5.352-1.545-7.785-4.379c-1.758-2.01-2.137-4.365-2.414-6.084
			c-0.098-0.602-0.238-1.502-0.395-1.785c-0.297,0.023-0.855,0.18-1.352,0.316c-1.02,0.281-2.285,0.633-3.75,0.686
			c-1.234,0.055-2.359,0.357-3.555,0.68c-1.453,0.393-3.102,0.836-5.016,0.836c-1.367,0-2.688-0.223-4.039-0.684
			c-2.109-0.723-3.488-1.887-4.594-2.82c-0.758-0.641-1.309-1.102-2.016-1.396c-0.293-0.123-0.562-0.213-0.836-0.301v76.65
			l35.266-11.754c1.633-0.545,2.734-2.07,2.734-3.795v-45.809C299.305,118.107,298.621,117.996,297.961,117.871z M291.422,155.395
			c-1.945,1.453-4.875,2.312-7.852,2.312c-2.926,0-5.234-0.84-6.508-2.365c-0.906-1.088-1.242-2.443-0.969-3.92
			c0.48-2.66,2.711-3.551,4.188-4.143c1.188-0.475,1.766-0.754,1.957-1.266c0.293-0.771-1.23-2.391-2.246-3.463
			c-1.516-1.605-2.945-3.121-2.719-5.051c0.082-0.715,0.445-1.744,1.711-2.578c1.125-0.732,2.305-1.086,3.609-1.086
			c1.383,0,2.664,0.393,4.016,0.809c4.855,1.525,7.781,4.881,8.582,9.744C296,149.154,294.73,152.859,291.422,155.395z"/>
	</g>
	<g>
		<path fill="#F2F0DA" d="M298.363,60.773c-0.676-0.498-1.52-0.771-2.367-0.771c-0.41,0-0.816,0.062-1.207,0.186l-19.586,6.186
			c-0.539,1.385-1.504,2.617-2.07,4.369c0.91,2.391,0.316,4.188,1.57,6.156c1.164,1.785,3.16,1,3.988,3.09
			c1.273,3.172-0.785,6.43-3.184,8.217c-0.773,0.568-1.496,0.76-2.219,0.76c-1.281,0-2.555-0.602-4.141-0.76
			c-2.891-0.277-4.898-1.021-7.148-1.824v12.383c0.758,0.166,1.535,0.389,2.387,0.748c2.645,1.1,3.672,3.201,6.355,4.121
			c0.992,0.338,1.891,0.467,2.742,0.467c2.766,0,5.059-1.363,8.391-1.512c2.023-0.072,3.703-1.01,5.352-1.008
			c0.852,0,1.703,0.252,2.586,1.008c2.293,2.008,1.082,5.852,3.164,8.229c1.758,2.049,3.227,2.625,5.559,3.092
			c0.512,0.098,0.996,0.191,1.465,0.264V64C300,62.73,299.391,61.523,298.363,60.773z"/>
		<path fill="#F2F0DA" d="M245.336,82.035c-3.211,0.467-6.059-0.303-7.945,3.078c-1.805,3.27-1.898,7.115,0,10.305
			c1.633,2.689,3.773,2.348,6.355,3.064c1.121,0.309,2.098,0.412,3.035,0.412c1.891,0,3.586-0.426,5.801-0.426
			c0.227,0,0.457,0.004,0.691,0.014c0.441,0.018,0.859,0.025,1.27,0.025c1.254,0,2.371-0.059,3.457-0.08V85.102
			c-4.348-1.129-6.984-3.184-10.977-3.184C246.488,81.918,245.93,81.955,245.336,82.035z"/>
		<path fill="#F2F0DA" d="M235.703,119.744c-0.625-0.254-1.219-0.352-1.797-0.352c-1.906,0-3.609,1.059-5.414,1.059
			c-0.75,0-1.523-0.184-2.328-0.707c-2.086-1.348-2.672-3.404-4.164-5.422v25.961c1.516,1.299,2.926,2.947,4.969,4.15
			c2.145,1.264,3.203,2.939,5.562,3.078c0.383,0.023,0.766,0.039,1.141,0.039c2.195,0,4.156-0.537,5.215-3.117
			c0.859-2.145-0.668-3.902,0-6.182c0.754-2.666,3.141-2.529,3.957-5.139c0.828-2.582,0.805-4.574,0-7.174
			C241.613,121.9,238.898,121.076,235.703,119.744z"/>
		<path fill="#F2F0DA" d="M200.766,99.191c-2.398-2.008-2.895-4.85-5.57-6.154c-0.871-0.438-1.672-0.604-2.438-0.604
			c-2.289,0-4.289,1.479-7.078,1.633c-2.234,0.113-3.93,0.232-5.68,0.246v67.859c0.496,0.076,0.977,0.129,1.438,0.129
			c1.191,0,2.293-0.338,3.445-1.436c2.367-2.254,1.039-5.852,2.375-9.232c1.633-4.082,2.195-7.887,5.57-9.26
			c0.789-0.316,1.453-0.439,2.109-0.439c0.828,0,1.641,0.195,2.656,0.439c2.719,0.66,3.617,3.488,6.348,4.109
			c1.355,0.318,2.637,0.705,3.82,0.705c1.219,0,2.336-0.412,3.332-1.736c1.367-1.785,0.074-4.535,1.578-6.156
			c0.875-0.949,1.746-1.152,2.719-1.152c0.629,0,1.305,0.088,2.047,0.109c0.203,0.008,0.375,0.061,0.562,0.086v-28.42
			c-2.07-2.057-4.051-3.654-6.906-5.572C207.262,101.775,204.387,102.227,200.766,99.191z"/>
		<path fill="#F2F0DA" d="M285.539,138.5c-1.859-0.572-3.055-0.936-4.109-0.381c0.332,0.477,0.996,1.182,1.473,1.686
			c1.801,1.908,4.262,4.52,3.078,7.625c-0.824,2.209-2.785,2.992-4.215,3.564c-1.359,0.543-1.664,0.746-1.742,1.145
			c-0.074,0.418,0.043,0.559,0.109,0.641c0.391,0.463,1.598,0.928,3.438,0.928c2.082,0,4.219-0.59,5.438-1.502
			c2.105-1.613,2.805-3.824,2.238-7.156C290.688,141.672,288.82,139.533,285.539,138.5z"/>
	</g>
</g>
</svg>
