<?xml version="1.0" encoding="utf-8"?>
<!-- Generator: Adobe Illustrator 16.0.0, SVG Export Plug-In . SVG Version: 6.00 Build 0)  -->
<!DOCTYPE svg PUBLIC "-//W3C//DTD SVG 1.0//EN" "http://www.w3.org/TR/2001/REC-SVG-20010904/DTD/svg10.dtd">
<svg version="1.0" id="Layer_1" xmlns="http://www.w3.org/2000/svg" xmlns:xlink="http://www.w3.org/1999/xlink" x="0px" y="0px"
	 width="480px" height="240px" viewBox="0 0 480 240" enable-background="new 0 0 480 240" xml:space="preserve">
<rect id="Button_2_" fill="#1880B6" width="480" height="240"/>
<g>
	<g>
		<path fill="#324249" d="M204,84c6.629,0,12-5.371,12-12v-8c0-4.418-3.582-8-8-8h-8c-4.418,0-8,3.582-8,8v8
			C192,78.629,197.371,84,204,84z M196,64c0-2.211,1.789-4,4-4h8c2.211,0,4,1.789,4,4v8c0,4.418-3.582,8-8,8s-8-3.582-8-8V64z"/>
		<path fill="#324249" d="M276,84c6.629,0,12-5.371,12-12v-8c0-4.418-3.582-8-8-8h-8c-4.418,0-8,3.582-8,8v8
			C264,78.629,269.371,84,276,84z M268,64c0-2.211,1.789-4,4-4h8c2.211,0,4,1.789,4,4v8c0,4.418-3.582,8-8,8s-8-3.582-8-8V64z"/>
		<path fill="#324249" d="M276,88c-8.961,0-15.496,1.613-20,4.105V84c0-6.629-5.371-12-12-12h-8c-6.629,0-12,5.371-12,12v8.105
			C219.496,89.613,212.961,88,204,88c-20,0-28,8-28,16v36c0,2.211,1.789,4,4,4h8v4c0,2.211,1.789,4,4,4h12v20c0,2.211,1.789,4,4,4h8
			v4c0,2.211,1.789,4,4,4h40c2.211,0,4-1.789,4-4v-4h8c2.211,0,4-1.789,4-4v-20h12c2.211,0,4-1.789,4-4v-4h8c2.211,0,4-1.789,4-4
			v-36C304,96,296,88,276,88z M228,84c0-4.418,3.582-8,8-8h8c4.418,0,8,3.582,8,8v12c0,6.629-5.371,12-12,12s-12-5.371-12-12V84z
			 M272,172h-8v-30c0-1.105-0.895-2-2-2s-2,0.895-2,2v38h-40v-38c0-1.105-0.895-2-2-2s-2,0.895-2,2v30h-8v-8v-32
			c0-5.586,12-12,32-12s32,6.414,32,12V172z M300,132v8h-8v-26c0-1.105-0.895-2-2-2s-2,0.895-2,2v34h-12v-16
			c0-4.609-4.031-9.207-12-12.285V114c0-1.105-0.895-2-2-2s-2,0.895-2,2v4.402c-5.344-1.492-11.992-2.402-20-2.402
			c-8.016,0-14.66,0.906-20,2.395V114c0-1.105-0.895-2-2-2s-2,0.895-2,2v5.703c-7.984,3.078-12,7.684-12,12.297v16h-12v-34
			c0-1.105-0.895-2-2-2s-2,0.895-2,2v26h-8v-4v-32c0-5.586,8-12,24-12c9.418,0,16.273,2.566,20.156,5.551
			C224.945,105.648,231.695,112,240,112c8.188,0,14.863-6.172,15.809-14.105C259.707,94.906,266.621,92,276,92c16,0,24,6.414,24,12
			V132z"/>
	</g>
	<g>
		<path fill="#F2F0DA" d="M244,76h-8c-4.418,0-8,3.582-8,8v12c0,6.629,5.371,12,12,12s12-5.371,12-12V84
			C252,79.582,248.418,76,244,76z"/>
		<path fill="#F2F0DA" d="M280,60h-8c-2.211,0-4,1.789-4,4v8c0,4.418,3.582,8,8,8s8-3.582,8-8v-8C284,61.789,282.211,60,280,60z"/>
		<path fill="#F2F0DA" d="M208,60h-8c-2.211,0-4,1.789-4,4v8c0,4.418,3.582,8,8,8s8-3.582,8-8v-8C212,61.789,210.211,60,208,60z"/>
	</g>
	<g>
		<path fill="#8ED9EF" d="M240,120c-20,0-32,6.414-32,12v32v8h8v-30c0-1.105,0.895-2,2-2s2,0.895,2,2v38h40v-38c0-1.105,0.895-2,2-2
			s2,0.895,2,2v30h8v-40C272,126.414,260,120,240,120z"/>
		<path fill="#8ED9EF" d="M276,92c-9.379,0-16.293,2.906-20.191,5.895C254.863,105.828,248.188,112,240,112
			c-8.305,0-15.055-6.352-15.844-14.449C220.273,94.566,213.418,92,204,92c-16,0-24,6.414-24,12v32v4h8v-26c0-1.105,0.895-2,2-2
			s2,0.895,2,2v34h12v-16c0-4.613,4.016-9.219,12-12.297V114c0-1.105,0.895-2,2-2s2,0.895,2,2v4.395
			c5.34-1.488,11.984-2.395,20-2.395c8.008,0,14.656,0.91,20,2.402V114c0-1.105,0.895-2,2-2s2,0.895,2,2v5.715
			c7.969,3.078,12,7.676,12,12.285v16h12v-34c0-1.105,0.895-2,2-2s2,0.895,2,2v26h8v-8v-28C300,98.414,292,92,276,92z"/>
	</g>
</g>
</svg>
