<svg enable-background="new 0 0 120 120" viewBox="0 0 120 120" xmlns="http://www.w3.org/2000/svg"><path d="m0 0h120v120h-120z" fill="#1880b6"/><g stroke="#324249" stroke-linecap="round" stroke-linejoin="round" stroke-width="2" transform="translate(1 1)"><path d="m45 57-17-17v-12h12l17 17zm-11-21c1.1 0 2-.9 2-2s-.9-2-2-2-2 .9-2 2 .9 2 2 2zm44 54-17-17v-12h12l17 17zm-11-21c1.1 0 2-.9 2-2s-.9-2-2-2-2 .9-2 2 .9 2 2 2z" fill="#8ed9ef"/><path d="m78 57-17-17v-12h12l17 17zm-11-21c1.1 0 2-.9 2-2s-.9-2-2-2-2 .9-2 2 .9 2 2 2zm-22 54-17-17v-12h12l17 17zm-11-21c1.1 0 2-.9 2-2s-.9-2-2-2-2 .9-2 2 .9 2 2 2z" fill="#f2f0da"/></g></svg>