<svg viewBox="0 0 24 24" xmlns="http://www.w3.org/2000/svg"><path d="m20.69141 15.65234h-2.44775v-3.49121c0-.41406-.33594-.75-.75-.75h-4.74365v-3.06348h2.44775c.41406 0 .75-.33594.75-.75v-4.26074c0-.41406-.33594-.75-.75-.75h-6.39551c-.41406 0-.75.33594-.75.75v4.26074c0 .41406.33594.75.75.75h2.44775v3.06348h-4.74365c-.41406 0-.75.33594-.75.75v3.49121h-2.44775c-.41406 0-.75.33594-.75.75v4.26074c0 .41406.33594.75.75.75h6.39551c.41406 0 .75-.33594.75-.75v-4.26074c0-.41406-.33594-.75-.75-.75h-2.44775v-2.74121h9.4873v2.74121h-2.44775c-.41406 0-.75.33594-.75.75v4.26074c0 .41406.33594.75.75.75h6.39551c.41406 0 .75-.33594.75-.75v-4.26074c0-.41406-.33594-.75-.75-.75zm-11.13916-11.56543h4.89551v2.76074h-4.89551zm-.59815 15.82618h-4.89551v-2.76074h4.89551zm10.98731 0h-4.89551v-2.76074h4.89551z"/></svg>