<?xml version="1.0" encoding="utf-8"?>
<!-- Generator: Adobe Illustrator 17.1.0, SVG Export Plug-In . SVG Version: 6.00 Build 0)  -->
<!DOCTYPE svg PUBLIC "-//W3C//DTD SVG 1.1//EN" "http://www.w3.org/Graphics/SVG/1.1/DTD/svg11.dtd">
<svg version="1.1" id="Layer_1" xmlns="http://www.w3.org/2000/svg" xmlns:xlink="http://www.w3.org/1999/xlink" x="0px" y="0px"
	 viewBox="0 0 24 24" enable-background="new 0 0 24 24" xml:space="preserve">
<path d="M12,0L12,0c0.3,2,2.9,2.5,3.9,0.7l0-0.1l0,0.1c-0.3,2,2,3.2,3.5,1.9l0,0l0,0.1c-1,1.7,0.8,3.7,2.7,2.9l0.1,0l0,0
	c-1.5,1.3-0.4,3.8,1.6,3.6l0.1,0l-0.1,0c-1.8,0.8-1.6,3.4,0.3,3.9l0.1,0l-0.1,0c-2,0.2-2.6,2.7-1,3.8l0.1,0l-0.1,0
	c-1.9-0.5-3.4,1.7-2.1,3.3l0,0l-0.1,0c-1.7-1.1-3.8,0.5-3.1,2.4l0,0.1l0,0c-1.2-1.6-3.7-0.7-3.7,1.3l0,0.1l0-0.1
	c-0.6-1.9-3.3-1.9-3.9,0l0,0.1l0-0.1c0-2-2.5-2.8-3.7-1.3l0,0l0-0.1c0.7-1.9-1.4-3.5-3.1-2.4l-0.1,0l0,0c1.2-1.6-0.2-3.8-2.1-3.3
	l-0.1,0l0.1,0c1.7-1.1,1-3.7-1-3.8l-0.1,0l0.1,0C2,12.6,2.2,9.9,0.4,9.1l-0.1,0l0.1,0c2,0.2,3-2.3,1.6-3.6l0,0l0.1,0
	c1.8,0.8,3.6-1.2,2.7-2.9l0-0.1l0,0C6.1,4,8.4,2.7,8.1,0.7l0-0.1l0,0.1C9.1,2.5,11.7,2,12,0L12,0z"/>
</svg>
