<svg viewBox="0 0 24 24" xmlns="http://www.w3.org/2000/svg"><path d="m4.98877 21.51611h14.02246c.68945 0 1.25-.56055 1.25-1.25v-2.3667c0-.65033-.50439-1.16901-1.13965-1.22766v-9.13696c.63525-.05865 1.13965-.57733 1.13965-1.22766v-2.36719c0-.68945-.56055-1.25-1.25-1.25h-14.02246c-.68945 0-1.25.56055-1.25 1.25v2.36719c0 .65033.50439 1.16901 1.13965 1.22766v9.13696c-.63525.05865-1.13965.57733-1.13965 1.22766v2.3667c0 .68945.56055 1.25 1.25 1.25zm12.63281-13.95898v9.09229h-11.24316v-9.09229zm1.13965 12.45898h-13.52246v-1.8667h13.52246zm-13.52246-15.82617h13.52246v1.86719h-13.52246z"/></svg>