<?xml version="1.0" encoding="utf-8"?>
<!-- Generator: Adobe Illustrator 19.1.0, SVG Export Plug-In . SVG Version: 6.00 Build 0)  -->
<svg version="1.1" id="Layer_1" xmlns="http://www.w3.org/2000/svg" xmlns:xlink="http://www.w3.org/1999/xlink" x="0px" y="0px"
	 viewBox="55 277 240 240" style="enable-background:new 55 277 240 240;" xml:space="preserve">
<style type="text/css">
	.st0{fill:#1880B6;}
	.st1{fill:#F2F0DA;}
	.st2{opacity:0.2;}
	.st3{fill:#324249;}
</style>
<rect id="Call_to_Action_2_" x="55" y="277" class="st0" width="240" height="240"/>
<g>
	<g>
		<path class="st1" d="M219,337h-88c-2.2,0-4,1.8-4,4v112c0,2.2,1.8,4,4,4h88c2.2,0,4-1.8,4-4v-84v-28C223,338.8,221.2,337,219,337z
			"/>
	</g>
	<g class="st2">
		<path d="M145,361h24c1.1,0,2-0.9,2-2s-0.9-2-2-2h-24c-1.1,0-2,0.9-2,2S143.9,361,145,361z"/>
		<path d="M145,413h32c1.1,0,2-0.9,2-2s-0.9-2-2-2h-32c-1.1,0-2,0.9-2,2S143.9,413,145,413z"/>
		<path d="M185,413h20c1.1,0,2-0.9,2-2s-0.9-2-2-2h-20c-1.1,0-2,0.9-2,2S183.9,413,185,413z"/>
		<path d="M145,377h32c1.1,0,2-0.9,2-2s-0.9-2-2-2h-32c-1.1,0-2,0.9-2,2S143.9,377,145,377z"/>
		<path d="M185,377h20c1.1,0,2-0.9,2-2s-0.9-2-2-2h-20c-1.1,0-2,0.9-2,2S183.9,377,185,377z"/>
		<path d="M205,433h-36c-1.1,0-2,0.9-2,2s0.9,2,2,2h36c1.1,0,2-0.9,2-2S206.1,433,205,433z"/>
		<path d="M161,433h-16c-1.1,0-2,0.9-2,2s0.9,2,2,2h16c1.1,0,2-0.9,2-2S162.1,433,161,433z"/>
		<path d="M145,425h8c1.1,0,2-0.9,2-2s-0.9-2-2-2h-8c-1.1,0-2,0.9-2,2S143.9,425,145,425z"/>
		<path d="M161,421c-1.1,0-2,0.9-2,2s0.9,2,2,2h12c1.1,0,2-0.9,2-2s-0.9-2-2-2H161z"/>
		<path d="M205,421h-24c-1.1,0-2,0.9-2,2s0.9,2,2,2h24c1.1,0,2-0.9,2-2S206.1,421,205,421z"/>
		<path d="M205,397h-36c-1.1,0-2,0.9-2,2s0.9,2,2,2h36c1.1,0,2-0.9,2-2S206.1,397,205,397z"/>
		<path d="M161,397h-16c-1.1,0-2,0.9-2,2s0.9,2,2,2h16c1.1,0,2-0.9,2-2S162.1,397,161,397z"/>
		<path d="M145,389h8c1.1,0,2-0.9,2-2s-0.9-2-2-2h-8c-1.1,0-2,0.9-2,2S143.9,389,145,389z"/>
		<path d="M161,385c-1.1,0-2,0.9-2,2s0.9,2,2,2h12c1.1,0,2-0.9,2-2s-0.9-2-2-2H161z"/>
		<path d="M205,385h-24c-1.1,0-2,0.9-2,2s0.9,2,2,2h24c1.1,0,2-0.9,2-2S206.1,385,205,385z"/>
	</g>
</g>
<path class="st3" d="M227,453v-4V345v-4c0-4.4-3.6-8-8-8h-88c-4.4,0-8,3.6-8,8v4v104v4c0,4.4,3.6,8,8,8h88
	C223.4,461,227,457.4,227,453L227,453z M223,369v84c0,2.2-1.8,4-4,4h-88c-2.2,0-4-1.8-4-4V341c0-2.2,1.8-4,4-4h88c2.2,0,4,1.8,4,4
	V369z"/>
</svg>
