<svg enable-background="new 55 277 240 240" viewBox="55 277 240 240" xmlns="http://www.w3.org/2000/svg"><path d="m55 277h240v240h-240z" fill="#1880b6"/><path d="m219 337h-88c-2.2 0-4 1.8-4 4v112c0 2.2 1.8 4 4 4h88c2.2 0 4-1.8 4-4v-84-28c0-2.2-1.8-4-4-4z" fill="#f2f0da"/><g opacity=".2"><path d="m145 361h24c1.1 0 2-.9 2-2s-.9-2-2-2h-24c-1.1 0-2 .9-2 2s.9 2 2 2z"/><path d="m145 413h32c1.1 0 2-.9 2-2s-.9-2-2-2h-32c-1.1 0-2 .9-2 2s.9 2 2 2z"/><path d="m185 413h20c1.1 0 2-.9 2-2s-.9-2-2-2h-20c-1.1 0-2 .9-2 2s.9 2 2 2z"/><path d="m145 377h32c1.1 0 2-.9 2-2s-.9-2-2-2h-32c-1.1 0-2 .9-2 2s.9 2 2 2z"/><path d="m185 377h20c1.1 0 2-.9 2-2s-.9-2-2-2h-20c-1.1 0-2 .9-2 2s.9 2 2 2z"/><path d="m205 433h-36c-1.1 0-2 .9-2 2s.9 2 2 2h36c1.1 0 2-.9 2-2s-.9-2-2-2z"/><path d="m161 433h-16c-1.1 0-2 .9-2 2s.9 2 2 2h16c1.1 0 2-.9 2-2s-.9-2-2-2z"/><path d="m145 425h8c1.1 0 2-.9 2-2s-.9-2-2-2h-8c-1.1 0-2 .9-2 2s.9 2 2 2z"/><path d="m161 421c-1.1 0-2 .9-2 2s.9 2 2 2h12c1.1 0 2-.9 2-2s-.9-2-2-2z"/><path d="m205 421h-24c-1.1 0-2 .9-2 2s.9 2 2 2h24c1.1 0 2-.9 2-2s-.9-2-2-2z"/><path d="m205 397h-36c-1.1 0-2 .9-2 2s.9 2 2 2h36c1.1 0 2-.9 2-2s-.9-2-2-2z"/><path d="m161 397h-16c-1.1 0-2 .9-2 2s.9 2 2 2h16c1.1 0 2-.9 2-2s-.9-2-2-2z"/><path d="m145 389h8c1.1 0 2-.9 2-2s-.9-2-2-2h-8c-1.1 0-2 .9-2 2s.9 2 2 2z"/><path d="m161 385c-1.1 0-2 .9-2 2s.9 2 2 2h12c1.1 0 2-.9 2-2s-.9-2-2-2z"/><path d="m205 385h-24c-1.1 0-2 .9-2 2s.9 2 2 2h24c1.1 0 2-.9 2-2s-.9-2-2-2z"/></g><path d="m227 453v-4-104-4c0-4.4-3.6-8-8-8h-88c-4.4 0-8 3.6-8 8v4 104 4c0 4.4 3.6 8 8 8h88c4.4 0 8-3.6 8-8zm-4-84v84c0 2.2-1.8 4-4 4h-88c-2.2 0-4-1.8-4-4v-112c0-2.2 1.8-4 4-4h88c2.2 0 4 1.8 4 4z" fill="#324249"/></svg>