<svg viewBox="0 0 24 24" xmlns="http://www.w3.org/2000/svg"><path d="m5.63525 21.92041h12.72949c.96484 0 1.75-.78516 1.75-1.75v-16.34082c0-.96484-.78516-1.75-1.75-1.75h-12.72949c-.96484 0-1.75.78516-1.75 1.75v16.34082c0 .96484.78516 1.75 1.75 1.75zm-.25-18.09082c0-.1377.1123-.25.25-.25h12.72949c.1377 0 .25.1123.25.25v16.34082c0 .1377-.1123.25-.25.25h-12.72949c-.1377 0-.25-.1123-.25-.25z"/><path d="m8.34326 6.69922h2.65674v1.5h-2.65674z"/><path d="m8.34326 11.25h7.31348v1.5h-7.31348z"/><path d="m8.34326 15.80078h7.31348v1.5h-7.31348z"/></svg>