<svg enable-background="new 0 0 120 120" viewBox="0 0 120 120" xmlns="http://www.w3.org/2000/svg"><path d="m0 0h120v120h-120z" fill="#1880b6"/><g stroke="#324249" stroke-linecap="round" stroke-linejoin="round" stroke-width="2" transform="translate(4 3)"><path d="m33.7 51.2c.6-2.4 1.5-4.6 2.7-6.6l-2.4-3.2c-.6-.8-.5-1.9.2-2.6l4.6-4.6c.7-.7 1.8-.8 2.6-.2l3.2 2.4c2-1.2 4.2-2.2 6.6-2.7l.5-4c.1-1 1-1.7 2-1.7h6.5c1 0 1.8.7 2 1.7l.5 4c2.4.6 4.6 1.5 6.6 2.7l3.2-2.4c.8-.6 1.9-.5 2.6.2l4.6 4.6c.7.7.8 1.8.2 2.6l-2.4 3.2c1.2 2 2.2 4.2 2.7 6.6l4 .5c1 .1 1.7 1 1.7 2v6.5c0 1-.7 1.8-1.7 2l-4 .5c-.6 2.4-1.5 4.6-2.7 6.6l2.4 3.2c.6.8.5 1.9-.2 2.6l-4.6 4.6c-.7.7-1.8.8-2.6.2l-3.2-2.4c-2 1.2-4.2 2.2-6.6 2.7l-.5 4c-.1 1-1 1.7-2 1.7h-6.5c-1 0-1.8-.7-2-1.7l-.5-4c-2.4-.6-4.6-1.5-6.6-2.7l-3.2 2.5c-.8.6-1.9.5-2.6-.2l-4.6-4.6c-.7-.7-.8-1.8-.2-2.6l2.4-3.2c-1.2-2-2.2-4.2-2.7-6.6l-4-.5c-1-.1-1.7-1-1.7-2v-6.5c0-1 .7-1.8 1.7-2zm23.3 18.8c7.2 0 13-5.8 13-13s-5.8-13-13-13-13 5.8-13 13 5.8 13 13 13z" fill="#8ed9ef"/><circle cx="57" cy="57" fill="#f2f0da" r="5"/></g></svg>