<svg viewBox="0 0 24 24" xmlns="http://www.w3.org/2000/svg"><path d="m12 2.07959c-5.47021 0-9.92041 4.4502-9.92041 9.92041 0 5.4707 4.4502 9.9209 9.92041 9.9209s9.92041-4.4502 9.92041-9.9209c0-5.47021-4.4502-9.92041-9.92041-9.92041zm0 18.34131c-4.64307 0-8.42041-3.77734-8.42041-8.4209 0-4.64307 3.77734-8.42041 8.42041-8.42041s8.42041 3.77734 8.42041 8.42041c0 4.64355-3.77734 8.4209-8.42041 8.4209z"/><path d="m14.20996 9.12402-1.52686-3.37158c-.24316-.53613-1.12305-.53613-1.36621 0l-1.52686 3.37158-3.67822.40967c-.29297.03271-.53906.23389-.63037.51367-.09082.28027-.00977.58789.20801.78613l2.73438 2.49365-.74609 3.625c-.05957.28809.05518.58496.29346.75781.23877.17578.55664.19238.81152.0459l3.21729-1.83008 3.21729 1.83008c.11523.06543.24316.09766.37061.09766.15527 0 .31006-.04785.44092-.14355.23828-.17285.35303-.46973.29346-.75781l-.74609-3.625 2.73438-2.49365c.21777-.19824.29883-.50586.20801-.78613-.09131-.27979-.3374-.48096-.63037-.51367l-3.67822-.40967zm.04004 3.38233c-.19531.17822-.28271.44629-.229.70557l.49854 2.4209-2.14893-1.22266c-.11475-.06543-.24268-.09766-.37061-.09766s-.25586.03223-.37061.09766l-2.14893 1.22266.49854-2.4209c.05371-.25928-.03369-.52734-.229-.70557l-1.82568-1.66504 2.45605-.27344c.26318-.0293.49121-.19531.6001-.43604l1.01953-2.25146 1.01953 2.25146c.10889.24072.33691.40674.6001.43604l2.45605.27344z"/></svg>