<svg enable-background="new 55 277 240 240" viewBox="55 277 240 240" xmlns="http://www.w3.org/2000/svg"><path d="m55 277h240v240h-240z" fill="#1880b6"/><path d="m215 337h-80c-5.9 0-12 6-12 12v104c0 2.1 2 4 4 4h80c1.9 0 4-2.4 4-4v-92c0-4.4 3.6-8 8-8 1.1 0 2 .9 2 2s-.9 2-2 2c-2.2 0-4 1.8-4 4v20h8c2.1 0 4-2.2 4-4v-24c0-9.8-6.4-16-12-16zm-48 104c-15.5 0-28-12.5-28-28s12.5-28 28-28 28 12.5 28 28-12.5 28-28 28z" fill="#8ed9ef"/><path d="m191 413c0-13.3-10.7-24-24-24s-24 10.7-24 24 10.7 24 24 24 24-10.7 24-24z" fill="#f2f0da"/><g fill="#324249"><path d="m215 333h-80c-8.1 0-16 8-16 16v104c0 4.4 3.7 8 8 8h80c4.4 0 8-3.9 8-8v-68h8c4.2 0 8-4.1 8-8v-24c0-12-7.7-20-16-20zm12 44c0 1.8-1.9 4-4 4h-8v-20c0-2.2 1.8-4 4-4 1.1 0 2-.9 2-2s-.9-2-2-2c-4.4 0-8 3.6-8 8v92c0 1.6-2.1 4-4 4h-80c-2 0-4-1.9-4-4v-104c0-6 6.1-12 12-12h80c5.6 0 12 6.2 12 16z"/><path d="m167 403c2.2 0 4 1.8 4 4 0 1.1.9 2 2 2s2-.9 2-2c0-3.7-2.6-6.8-6-7.7v-.3c0-1.1-.9-2-2-2s-2 .9-2 2v.3c-3.4.9-6 4-6 7.7 0 4.4 3.6 8 8 8 2.2 0 4 1.8 4 4s-1.8 4-4 4-4-1.8-4-4c0-1.1-.9-2-2-2s-2 .9-2 2c0 3.7 2.6 6.8 6 7.7v.3c0 1.1.9 2 2 2s2-.9 2-2v-.3c3.4-.9 6-4 6-7.7 0-4.4-3.6-8-8-8-2.2 0-4-1.8-4-4s1.8-4 4-4z"/><path d="m167 385c-15.5 0-28 12.5-28 28s12.5 28 28 28 28-12.5 28-28-12.5-28-28-28zm0 52c-13.3 0-24-10.7-24-24s10.7-24 24-24 24 10.7 24 24-10.7 24-24 24z"/></g><g opacity=".2"><path d="m141 365h32c1.1 0 2-.9 2-2s-.9-2-2-2h-32c-1.1 0-2 .9-2 2s.9 2 2 2z"/><path d="m181 365h8c1.1 0 2-.9 2-2s-.9-2-2-2h-8c-1.1 0-2 .9-2 2s.9 2 2 2z"/><path d="m189 373h-32c-1.1 0-2 .9-2 2s.9 2 2 2h32c1.1 0 2-.9 2-2s-.9-2-2-2z"/><path d="m149 373h-8c-1.1 0-2 .9-2 2s.9 2 2 2h8c1.1 0 2-.9 2-2s-.9-2-2-2z"/></g></svg>