<?xml version="1.0" encoding="utf-8"?>
<!-- Generator: Adobe Illustrator 19.1.0, SVG Export Plug-In . SVG Version: 6.00 Build 0)  -->
<svg version="1.1" id="Layer_1" xmlns="http://www.w3.org/2000/svg" xmlns:xlink="http://www.w3.org/1999/xlink" x="0px" y="0px"
	 viewBox="55 277 240 240" style="enable-background:new 55 277 240 240;" xml:space="preserve">
<style type="text/css">
	.st0{fill:#1880B6;}
	.st1{fill:#8ED9EF;}
	.st2{fill:#F2F0DA;}
	.st3{fill:#324249;}
	.st4{opacity:0.2;}
</style>
<rect id="Price_Table_1_" x="55" y="277" class="st0" width="240" height="240"/>
<g>
	<path class="st1" d="M215,337h-80c-5.9,0-12,6-12,12v104c0,2.1,2,4,4,4h80c1.9,0,4-2.4,4-4v-92c0-4.4,3.6-8,8-8c1.1,0,2,0.9,2,2
		c0,1.1-0.9,2-2,2c-2.2,0-4,1.8-4,4v20h8c2.1,0,4-2.2,4-4v-24C227,343.2,220.6,337,215,337z M167,441c-15.5,0-28-12.5-28-28
		c0-15.5,12.5-28,28-28s28,12.5,28,28C195,428.5,182.5,441,167,441z"/>
	<path class="st2" d="M191,413c0-13.3-10.7-24-24-24c-13.3,0-24,10.7-24,24c0,13.3,10.7,24,24,24C180.3,437,191,426.3,191,413z"/>
	<g>
		<path class="st3" d="M215,333h-80c-8.1,0-16,8-16,16v104c0,4.4,3.7,8,8,8h80c4.4,0,8-3.9,8-8v-68h8c4.2,0,8-4.1,8-8v-24
			C231,341,223.3,333,215,333z M227,377c0,1.8-1.9,4-4,4h-8v-20c0-2.2,1.8-4,4-4c1.1,0,2-0.9,2-2c0-1.1-0.9-2-2-2c-4.4,0-8,3.6-8,8
			v92c0,1.6-2.1,4-4,4h-80c-2,0-4-1.9-4-4V349c0-6,6.1-12,12-12h80c5.6,0,12,6.2,12,16V377z"/>
		<path class="st3" d="M167,403c2.2,0,4,1.8,4,4c0,1.1,0.9,2,2,2c1.1,0,2-0.9,2-2c0-3.7-2.6-6.8-6-7.7V399c0-1.1-0.9-2-2-2
			s-2,0.9-2,2v0.3c-3.4,0.9-6,4-6,7.7c0,4.4,3.6,8,8,8c2.2,0,4,1.8,4,4c0,2.2-1.8,4-4,4c-2.2,0-4-1.8-4-4c0-1.1-0.9-2-2-2
			s-2,0.9-2,2c0,3.7,2.6,6.8,6,7.7v0.3c0,1.1,0.9,2,2,2s2-0.9,2-2v-0.3c3.4-0.9,6-4,6-7.7c0-4.4-3.6-8-8-8c-2.2,0-4-1.8-4-4
			C163,404.8,164.8,403,167,403z"/>
		<path class="st3" d="M167,385c-15.5,0-28,12.5-28,28c0,15.5,12.5,28,28,28s28-12.5,28-28C195,397.5,182.5,385,167,385z M167,437
			c-13.3,0-24-10.7-24-24c0-13.3,10.7-24,24-24c13.3,0,24,10.7,24,24C191,426.3,180.3,437,167,437z"/>
	</g>
	<g class="st4">
		<path d="M141,365h32c1.1,0,2-0.9,2-2c0-1.1-0.9-2-2-2h-32c-1.1,0-2,0.9-2,2C139,364.1,139.9,365,141,365z"/>
		<path d="M181,365h8c1.1,0,2-0.9,2-2c0-1.1-0.9-2-2-2h-8c-1.1,0-2,0.9-2,2C179,364.1,179.9,365,181,365z"/>
		<path d="M189,373h-32c-1.1,0-2,0.9-2,2c0,1.1,0.9,2,2,2h32c1.1,0,2-0.9,2-2C191,373.9,190.1,373,189,373z"/>
		<path d="M149,373h-8c-1.1,0-2,0.9-2,2c0,1.1,0.9,2,2,2h8c1.1,0,2-0.9,2-2C151,373.9,150.1,373,149,373z"/>
	</g>
</g>
</svg>
