<svg viewBox="0 0 24 24" xmlns="http://www.w3.org/2000/svg"><path d="m17.95361 21.41309c.96484 0 1.75-.78516 1.75-1.75v-15.32618c0-.96484-.78516-1.75-1.75-1.75h-11.90722c-.96484 0-1.75.78516-1.75 1.75v15.32617c0 .96484.78516 1.75 1.75 1.75h11.90723zm-11.90722-17.32618h11.90723c.1377 0 .25.1123.25.25v2.18848h-12.40723v-2.18848c0-.1377.1123-.25.25-.25zm-.25 15.57618v-11.6377h12.40723v11.6377c0 .1377-.1123.25-.25.25h-11.90723c-.1377 0-.25-.1123-.25-.25z"/><path d="m12.40039 16.08887h-.82715c-.32715 0-.59326-.26562-.59326-.59277h-1.5c0 1.03906.76294 1.89661 1.75684 2.05878v.98126h1.5v-.98126c.9939-.16217 1.75684-1.01971 1.75684-2.05878 0-1.1543-.93896-2.09375-2.09326-2.09375h-.82715c-.32715 0-.59326-.2666-.59326-.59375s.26611-.59375.59326-.59375h.82715c.32715 0 .59326.2666.59326.59375h1.5c0-1.03906-.76294-1.89746-1.75684-2.05975v-.98126h-1.5v.98126c-.9939.16229-1.75684 1.02069-1.75684 2.05975 0 1.1543.93896 2.09375 2.09326 2.09375h.82715c.32715 0 .59326.2666.59326.59375s-.26611.59277-.59326.59277z"/></svg>