<?xml version="1.0" encoding="utf-8"?>
<!-- Generator: Adobe Illustrator 16.0.0, SVG Export Plug-In . SVG Version: 6.00 Build 0)  -->
<!DOCTYPE svg PUBLIC "-//W3C//DTD SVG 1.0//EN" "http://www.w3.org/TR/2001/REC-SVG-20010904/DTD/svg10.dtd">
<svg version="1.0" id="Layer_1" xmlns="http://www.w3.org/2000/svg" xmlns:xlink="http://www.w3.org/1999/xlink" x="0px" y="0px"
	 width="480px" height="240px" viewBox="0 0 480 240" enable-background="new 0 0 480 240" xml:space="preserve">
<rect id="Call_to_Action_2_" fill="#1880B6" width="480" height="240"/>
<g>
	<path fill="#324249" d="M296,63.992h-3.999V64c0-4.421-3.579-7.999-8.001-7.999h-88c-4.422,0-8.001,3.578-8.001,7.999H184
		c-4.421,0-8,3.579-8,8v96c0,4.422,3.579,8,8,8h3.999c0,4.422,3.579,8,8.001,8h88c4.422,0,8.001-3.578,8.001-8v-0.008H296
		c4.421,0,8-3.578,8-8v-96C304,67.57,300.421,63.992,296,63.992z M187.999,172H184c-2.212,0-4-1.789-4-4V72c0-2.21,1.788-4,4-4
		h3.999V172z M287.999,92v84c0,2.211-1.788,4-3.999,4h-88c-2.211,0-3.999-1.789-3.999-4V64c0-2.21,1.788-4,3.999-4h88
		c2.211,0,3.999,1.789,3.999,4V92z M300,167.992c0,2.211-1.788,4-4,4h-3.999v-104H296c2.212,0,4,1.788,4,4V167.992z"/>
	<g>
		<path fill="#F2F0DA" d="M284,60h-88c-2.211,0-3.999,1.789-3.999,4v112c0,2.211,1.788,4,3.999,4h88c2.211,0,3.999-1.789,3.999-4V92
			V64C287.999,61.789,286.211,60,284,60z"/>
	</g>
	<g>
		<path fill="#8ED9EF" d="M180,72v96c0,2.211,1.788,4,4,4h3.999V68H184C181.788,68,180,69.79,180,72z"/>
		<path fill="#8ED9EF" d="M296,67.993h-3.999v104H296c2.212,0,4-1.789,4-4v-96C300,69.781,298.212,67.993,296,67.993z"/>
	</g>
	<g opacity="0.2">
		<path d="M210,84h24c1.105,0,2-0.894,2-2c0-1.106-0.895-2-2-2h-24c-1.105,0-2.001,0.894-2.001,2C207.999,83.105,208.895,84,210,84z
			"/>
		<path d="M210,136h32.001c1.104,0,1.999-0.895,1.999-2s-0.896-2-1.999-2H210c-1.105,0-2.001,0.895-2.001,2S208.895,136,210,136z"/>
		<path d="M250,136h20c1.105,0,2.001-0.895,2.001-2s-0.896-2-2.001-2h-20c-1.105,0-2.001,0.895-2.001,2S248.895,136,250,136z"/>
		<path d="M210,100h32.001c1.104,0,1.999-0.895,1.999-2c0-1.105-0.896-2-1.999-2H210c-1.105,0-2.001,0.894-2.001,2
			C207.999,99.105,208.895,100,210,100z"/>
		<path d="M250,100h20c1.105,0,2.001-0.895,2.001-2c0-1.105-0.896-2-2.001-2h-20c-1.105,0-2.001,0.894-2.001,2
			C247.999,99.105,248.895,100,250,100z"/>
		<path d="M270,156h-36c-1.106,0-1.999,0.895-1.999,2s0.893,2,1.999,2h36c1.105,0,2.001-0.895,2.001-2S271.105,156,270,156z"/>
		<path d="M226,156h-16c-1.105,0-2.001,0.895-2.001,2s0.896,2,2.001,2h16c1.106,0,1.999-0.895,1.999-2S227.106,156,226,156z"/>
		<path d="M210,148h7.999c1.105,0,2.001-0.895,2.001-2s-0.896-2-2.001-2H210c-1.105,0-2.001,0.895-2.001,2S208.895,148,210,148z"/>
		<path d="M226,144c-1.105,0-2,0.895-2,2s0.895,2,2,2h11.999c1.105,0,2.001-0.895,2.001-2s-0.896-2-2.001-2H226z"/>
		<path d="M270,144h-24c-1.105,0-2,0.895-2,2s0.895,2,2,2h24c1.105,0,2.001-0.895,2.001-2S271.105,144,270,144z"/>
		<path d="M270,120h-36c-1.106,0-1.999,0.894-1.999,2c0,1.105,0.893,2,1.999,2h36c1.105,0,2.001-0.895,2.001-2
			C272.001,120.894,271.105,120,270,120z"/>
		<path d="M226,120h-16c-1.105,0-2.001,0.894-2.001,2c0,1.105,0.896,2,2.001,2h16c1.106,0,1.999-0.895,1.999-2
			C227.999,120.894,227.106,120,226,120z"/>
		<path d="M210,112h7.999c1.105,0,2.001-0.895,2.001-2s-0.896-2-2.001-2H210c-1.105,0-2.001,0.895-2.001,2S208.895,112,210,112z"/>
		<path d="M226,108c-1.105,0-2,0.895-2,2s0.895,2,2,2h11.999c1.105,0,2.001-0.895,2.001-2s-0.896-2-2.001-2H226z"/>
		<path d="M270,108h-24c-1.105,0-2,0.895-2,2s0.895,2,2,2h24c1.105,0,2.001-0.895,2.001-2S271.105,108,270,108z"/>
	</g>
</g>
</svg>
