<svg enable-background="new 0 0 24 24" viewBox="0 0 24 24" xmlns="http://www.w3.org/2000/svg"><path d="m12 0c.3 2 2.9 2.5 3.9.7v-.1.1c-.3 2 2 3.2 3.5 1.9v.1c-1 1.7.8 3.7 2.7 2.9h.1c-1.5 1.3-.4 3.8 1.6 3.6h.1-.1c-1.8.8-1.6 3.4.3 3.9h.1-.1c-2 .2-2.6 2.7-1 3.8h.1-.1c-1.9-.5-3.4 1.7-2.1 3.3h-.1c-1.7-1.1-3.8.5-3.1 2.4v.1c-1.2-1.6-3.7-.7-3.7 1.3v.1-.1c-.6-1.9-3.3-1.9-3.9 0v.1-.1c0-2-2.5-2.8-3.7-1.3v-.1c.7-1.9-1.4-3.5-3.1-2.4h-.1c1.2-1.6-.2-3.8-2.1-3.3h-.1.1c1.7-1.1 1-3.7-1-3.8h-.1.1c1.8-.5 2-3.2.2-4h-.1.1c2 .2 3-2.3 1.6-3.6h.1c1.8.8 3.6-1.2 2.7-2.9v-.1c1.3 1.5 3.6.2 3.3-1.8v-.1.1c1 1.8 3.6 1.3 3.9-.7z"/></svg>