<svg enable-background="new 55 277 240 240" viewBox="55 277 240 240" xmlns="http://www.w3.org/2000/svg"><path d="m55 277h240v240h-240z" fill="#1880b6"/><path d="m231 333h-92c-1.9 0-4 2.4-4 4v92c0 4.4-3.6 8-8 8-1.1 0-2-.9-2-2s.9-2 2-2c2.2 0 4-1.8 4-4v-52h-12c-2.1 0-4 2.3-4 4v56c0 9.8 6.4 16 12 16h96c5.9 0 12-6 12-12v-104c0-2.1-2-4-4-4zm-12 56c0 2.2-1.8 4-4 4h-60c-2.2 0-4-1.8-4-4v-24c0-2.2 1.8-4 4-4h60c2.2 0 4 1.8 4 4z" fill="#8ed9ef"/><path d="m215 361h-60c-2.2 0-4 1.8-4 4v24c0 2.2 1.8 4 4 4h60c2.2 0 4-1.8 4-4v-24c0-2.2-1.8-4-4-4zm0 28h-60v-24h60z" fill="#324249"/><path d="m231 329h-92c-4.4 0-8 3.9-8 8v36h-12c-4.2 0-8 4.1-8 8v56c0 12 7.7 20 16 20h96c8.1 0 16-8 16-16v-104c0-4.4-3.7-8-8-8zm4 112c0 6-6.1 12-12 12h-96c-5.6 0-12-6.2-12-16v-56c0-1.8 1.9-4 4-4h12v52c0 2.2-1.8 4-4 4-1.1 0-2 .9-2 2s.9 2 2 2c4.4 0 8-3.6 8-8v-92c0-1.6 2.1-4 4-4h92c2 0 4 1.9 4 4z" fill="#324249"/><g opacity=".2"><path d="m153 353h24c1.1 0 2-.9 2-2s-.9-2-2-2h-24c-1.1 0-2 .9-2 2s.9 2 2 2z"/><path d="m153 405h36c1.1 0 2-.9 2-2s-.9-2-2-2h-36c-1.1 0-2 .9-2 2s.9 2 2 2z"/><path d="m197 405h20c1.1 0 2-.9 2-2s-.9-2-2-2h-20c-1.1 0-2 .9-2 2s.9 2 2 2z"/><path d="m217 425h-36c-1.1 0-2 .9-2 2s.9 2 2 2h36c1.1 0 2-.9 2-2s-.9-2-2-2z"/><path d="m173 425h-20c-1.1 0-2 .9-2 2s.9 2 2 2h20c1.1 0 2-.9 2-2s-.9-2-2-2z"/><path d="m153 417h12c1.1 0 2-.9 2-2s-.9-2-2-2h-12c-1.1 0-2 .9-2 2s.9 2 2 2z"/><path d="m173 413c-1.1 0-2 .9-2 2s.9 2 2 2h12c1.1 0 2-.9 2-2s-.9-2-2-2z"/><path d="m217 413h-24c-1.1 0-2 .9-2 2s.9 2 2 2h24c1.1 0 2-.9 2-2s-.9-2-2-2z"/></g><path d="m155 365h60v24h-60z" fill="#f2f0da"/></svg>