<svg viewBox="0 0 24 24" xmlns="http://www.w3.org/2000/svg"><path d="m20.1709 3.16357h-11.78516c-.96484 0-1.75.78516-1.75 1.75v6.43835c-.08234-.01196-.16443-.02527-.25-.02527h-2.55664c-.96484 0-1.75.78516-1.75 1.75v4.73096c0 1.66992 1.3584 3.02881 3.02832 3.02881h13.78516c1.66992 0 3.02832-1.35889 3.02832-3.02881v-12.89404c0-.96484-.78516-1.75-1.75-1.75zm-16.5918 14.64405v-4.73096c0-.1377.1123-.25.25-.25h2.55664c.1377 0 .25.1123.25.25v4.73096c0 .84277-.68555 1.52881-1.52832 1.52881s-1.52832-.68604-1.52832-1.52881zm16.8418 0c0 .84277-.68555 1.52881-1.52832 1.52881h-11.18591c.26599-.4505.42908-.96887.42908-1.52881v-12.89405c0-.1377.1123-.25.25-.25h11.78516c.1377 0 .25.1123.25.25v12.89404z"/><path d="m18.2002 6.21826h-7.82422c-.41406 0-.75.33594-.75.75v3.15918c0 .41406.33594.75.75.75h7.82422c.41406 0 .75-.33594.75-.75v-3.15918c0-.41406-.33594-.75-.75-.75zm-.75 3.15918h-6.32422v-1.65918h6.32422z"/><path d="m10.37598 12.67432h7.82422v1.5h-7.82422z"/><path d="m10.37598 15.75586h7.82422v1.5h-7.82422z"/></svg>