<svg xmlns="http://www.w3.org/2000/svg" xmlns:xlink="http://www.w3.org/1999/xlink" width="256" height="256"><defs><linearGradient id="b" x1="50%" x2="97.955%" y1="66.059%" y2="100%"><stop offset="0%" stop-color="#ED8A00"/><stop offset="29.273%" stop-color="#F49B1E"/><stop offset="100%" stop-color="#FCB044"/><stop offset="100%" stop-color="#FCAF45"/><stop offset="100%" stop-color="#FCB044"/></linearGradient><linearGradient id="d" x1="50%" x2="50%" y1="0%" y2="100%"><stop offset="0%" stop-color="#FFF"/><stop offset="100%" stop-color="#FFF" stop-opacity=".364"/></linearGradient><rect id="a" width="256" height="256" x="0" y="0" rx="64"/><rect id="c" width="256" height="256" x="0" y="0" rx="64"/></defs><g fill="none" fill-rule="evenodd"><g fill="url(#b)"><use xlink:href="#a"/><use xlink:href="#c"/></g><g transform="translate(45.827 56.889)"><path fill="#FDEED8" d="M34.603 49.374v25.639h-15.21zM128.106 49.374l15.21 25.639h-15.21z"/><path fill="#FADEB6" d="m16.985 34.048 17.609 15.339-15.201 25.626L0 50.004zM145.912 34.017l16.853 15.987-19.449 25.009-15.25-25.656z"/><path fill="#F8C479" d="M34.603 49.374h93.503v25.639H34.603z"/><circle cx="80.593" cy="41.086" r="8.217" fill="#FFF" fill-rule="nonzero" opacity=".703"/><path fill="url(#d)" fill-rule="nonzero" d="M116.2 32.87h-6.628a29.349 29.349 0 0 0-2.794-6.63l4.766-4.765c2.137-2.137 2.137-5.643 0-7.78l-3.89-3.889c-2.136-2.137-5.642-2.137-7.778 0L95 14.682c-1.972-1.041-4.054-1.918-6.19-2.52V5.478C88.81 2.465 86.345 0 83.332 0h-5.479c-3.013 0-5.478 2.465-5.478 5.478v6.629c-2.246.602-4.382 1.534-6.41 2.63L60.982 9.75c-2.137-2.136-5.643-2.136-7.78 0l-3.889 3.89c-2.136 2.136-2.136 5.642 0 7.779l4.985 4.985a27.227 27.227 0 0 0-2.63 6.41h-6.683c-3.013.054-5.478 2.52-5.478 5.532v5.479c0 3.013 2.465 5.478 5.478 5.478h6.629c.603 2.136 1.424 4.218 2.52 6.19l-4.876 4.876c-2.136 2.136-2.136 5.642 0 7.779l3.89 3.89c2.136 2.136 5.642 2.136 7.779 0l4.766-4.767a29.349 29.349 0 0 0 6.629 2.794v6.629c0 3.013 2.465 5.478 5.478 5.478h5.478c3.013 0 5.478-2.465 5.478-5.478v-6.629c2.246-.603 4.383-1.534 6.41-2.63l4.656 4.657c2.137 2.136 5.643 2.136 7.78 0l3.889-3.89c2.136-2.136 2.136-5.642 0-7.779l-4.657-4.656a27.227 27.227 0 0 0 2.63-6.41h6.738c3.013 0 5.478-2.465 5.478-5.478v-5.533c0-3.013-2.465-5.478-5.478-5.478ZM80.594 57.52a16.413 16.413 0 0 1-16.435-16.435c0-9.093 7.34-16.434 16.435-16.434 9.093 0 16.434 7.34 16.434 16.434 0 9.094-7.34 16.435-16.434 16.435Z"/><path fill="#FFF" d="M19.393 75.013h123.923l-6.779 63.832a3.776 3.776 0 0 1-3.755 3.377H30.223a3.776 3.776 0 0 1-3.753-3.36l-7.077-63.85Z"/><path fill="#FADBB6" d="M19.393 75.013h123.923l-17.993 26.884H38.091z"/></g></g></svg>