<?xml version="1.0" encoding="utf-8"?>
<!-- Generator: Adobe Illustrator 19.1.0, SVG Export Plug-In . SVG Version: 6.00 Build 0)  -->
<svg version="1.1" id="Layer_1" xmlns="http://www.w3.org/2000/svg" xmlns:xlink="http://www.w3.org/1999/xlink" x="0px" y="0px"
	 viewBox="55 277 240 240" style="enable-background:new 55 277 240 240;" xml:space="preserve">
<style type="text/css">
	.st0{fill:#1880B6;}
	.st1{fill:#324249;}
	.st2{fill:#F2F0DA;}
	.st3{fill:#8ED9EF;}
	.st4{opacity:0.2;}
</style>
<rect id="Call_to_Action_2_" x="55" y="277" class="st0" width="240" height="240"/>
<g>
	<path class="st1" d="M231,341h-4v0c0-4.4-3.6-8-8-8h-88c-4.4,0-8,3.6-8,8h-4c-4.4,0-8,3.6-8,8v96c0,4.4,3.6,8,8,8h4
		c0,4.4,3.6,8,8,8h88c4.4,0,8-3.6,8-8v0h4c4.4,0,8-3.6,8-8v-96C239,344.6,235.4,341,231,341z M123,449h-4c-2.2,0-4-1.8-4-4v-96
		c0-2.2,1.8-4,4-4h4V449z M223,369v84c0,2.2-1.8,4-4,4h-88c-2.2,0-4-1.8-4-4V341c0-2.2,1.8-4,4-4h88c2.2,0,4,1.8,4,4V369z M235,445
		c0,2.2-1.8,4-4,4h-4V345h4c2.2,0,4,1.8,4,4V445z"/>
	<g>
		<path class="st2" d="M219,337h-88c-2.2,0-4,1.8-4,4v112c0,2.2,1.8,4,4,4h88c2.2,0,4-1.8,4-4v-84v-28C223,338.8,221.2,337,219,337z
			"/>
	</g>
	<g>
		<path class="st3" d="M115,349v96c0,2.2,1.8,4,4,4h4V345h-4C116.8,345,115,346.8,115,349z"/>
		<path class="st3" d="M231,345h-4v104h4c2.2,0,4-1.8,4-4v-96C235,346.8,233.2,345,231,345z"/>
	</g>
	<g class="st4">
		<path d="M145,361h24c1.1,0,2-0.9,2-2s-0.9-2-2-2h-24c-1.1,0-2,0.9-2,2C143,360.1,143.9,361,145,361z"/>
		<path d="M145,413h32c1.1,0,2-0.9,2-2s-0.9-2-2-2h-32c-1.1,0-2,0.9-2,2S143.9,413,145,413z"/>
		<path d="M185,413h20c1.1,0,2-0.9,2-2s-0.9-2-2-2h-20c-1.1,0-2,0.9-2,2S183.9,413,185,413z"/>
		<path d="M145,377h32c1.1,0,2-0.9,2-2s-0.9-2-2-2h-32c-1.1,0-2,0.9-2,2C143,376.1,143.9,377,145,377z"/>
		<path d="M185,377h20c1.1,0,2-0.9,2-2s-0.9-2-2-2h-20c-1.1,0-2,0.9-2,2C183,376.1,183.9,377,185,377z"/>
		<path d="M205,433h-36c-1.1,0-2,0.9-2,2s0.9,2,2,2h36c1.1,0,2-0.9,2-2S206.1,433,205,433z"/>
		<path d="M161,433h-16c-1.1,0-2,0.9-2,2s0.9,2,2,2h16c1.1,0,2-0.9,2-2S162.1,433,161,433z"/>
		<path d="M145,425h8c1.1,0,2-0.9,2-2s-0.9-2-2-2h-8c-1.1,0-2,0.9-2,2S143.9,425,145,425z"/>
		<path d="M161,421c-1.1,0-2,0.9-2,2s0.9,2,2,2h12c1.1,0,2-0.9,2-2s-0.9-2-2-2H161z"/>
		<path d="M205,421h-24c-1.1,0-2,0.9-2,2s0.9,2,2,2h24c1.1,0,2-0.9,2-2S206.1,421,205,421z"/>
		<path d="M205,397h-36c-1.1,0-2,0.9-2,2c0,1.1,0.9,2,2,2h36c1.1,0,2-0.9,2-2C207,397.9,206.1,397,205,397z"/>
		<path d="M161,397h-16c-1.1,0-2,0.9-2,2c0,1.1,0.9,2,2,2h16c1.1,0,2-0.9,2-2C163,397.9,162.1,397,161,397z"/>
		<path d="M145,389h8c1.1,0,2-0.9,2-2s-0.9-2-2-2h-8c-1.1,0-2,0.9-2,2S143.9,389,145,389z"/>
		<path d="M161,385c-1.1,0-2,0.9-2,2s0.9,2,2,2h12c1.1,0,2-0.9,2-2s-0.9-2-2-2H161z"/>
		<path d="M205,385h-24c-1.1,0-2,0.9-2,2s0.9,2,2,2h24c1.1,0,2-0.9,2-2S206.1,385,205,385z"/>
	</g>
</g>
</svg>
