<svg viewBox="0 0 24 24" xmlns="http://www.w3.org/2000/svg"><path d="m17.7041 2.58691h-11.4082c-.68945 0-1.25.56055-1.25 1.25v16.32617c0 .68945.56055 1.25 1.25 1.25h11.4082c.68945 0 1.25-.56055 1.25-1.25v-16.32617c0-.68945-.56055-1.25-1.25-1.25zm-.25 17.32618h-10.9082v-15.82618h10.9082v15.82617z"/><path d="m19.92432 5.8457h1.5v12.30859h-1.5z"/><path d="m2.57568 5.8457h1.5v12.30859h-1.5z"/><path d="m8.77246 15.33105h6.45508v1.5h-6.45508z"/><path d="m8.77246 11.25h6.45508v1.5h-6.45508z"/><path d="m8.77246 7.16895h4.06738v1.5h-4.06738z"/></svg>